<?xml version="1.0" encoding="utf-8"?>
<!-- Generator: Adobe Illustrator 24.3.0, SVG Export Plug-In . SVG Version: 6.00 Build 0)  -->
<svg version="1.1" id="Layer_1" xmlns="http://www.w3.org/2000/svg" xmlns:xlink="http://www.w3.org/1999/xlink" x="0px" y="0px"
	 viewBox="0 0 50 50" style="enable-background:new 0 0 50 50;" xml:space="preserve">
<path d="M34.19,16.4c1.31,0.12,2.25,0.71,2.68,1.94c0.65,1.82-0.7,3.75-2.63,3.75c-0.35,0-0.53,0.08-0.67,0.44
	c-0.75,1.99-2.05,3.54-3.88,4.63c-0.36,0.22-0.55,0.43-0.48,0.86c0.03,0.2,0.01,0.41,0.01,0.64c1.34,0.42,2.66,0.83,3.98,1.25
	c1.21,0.38,2.43,0.74,3.62,1.15c2.26,0.78,3.75,2.89,3.76,5.28c0.01,3.24,0,6.48,0,9.72c0,0.65-0.23,0.89-0.87,0.89
	c-9.84,0-19.67,0-29.51,0c-0.62,0-0.86-0.24-0.86-0.86c0-3.25-0.01-6.51,0-9.76c0.01-2.38,1.5-4.51,3.77-5.27
	c2.34-0.78,4.7-1.48,7.04-2.23c0.2-0.07,0.58-0.01,0.54-0.38c-0.05-0.42,0.23-0.89-0.36-1.23c-1.92-1.09-3.25-2.71-4.03-4.78
	c-0.1-0.27-0.22-0.35-0.5-0.35c-1.3,0-2.32-0.71-2.74-1.86c-0.42-1.16-0.09-2.37,0.91-3.18c0.21-0.17,0.19-0.32,0.14-0.53
	c-0.27-1.07-0.62-2.13-0.77-3.22c-0.54-3.87,1.88-7.75,5.57-9.12c1.63-0.6,3.29-0.62,4.98-0.41c2.2,0.28,4.4,0.51,6.6,0.77
	c1.15,0.14,2.29,0.26,3.44,0.02c1.18-0.24,2.25-0.69,3.23-1.38c0.28-0.2,0.55-0.34,0.9-0.18c0.37,0.18,0.41,0.5,0.4,0.86
	c-0.03,1.33,0.09,2.66-0.25,3.97c-0.57,2.17-1.79,3.87-3.66,5.09c-0.25,0.17-0.36,0.32-0.35,0.63C34.2,14.51,34.19,15.45,34.19,16.4
	z M24.23,45.52c0-3.86,0-7.69,0-11.57c-0.18,0.09-0.33,0.15-0.47,0.22c-0.89,0.44-1.77,0.89-2.66,1.32
	c-0.52,0.25-0.93,0.08-1.11-0.47c-0.1-0.31-0.18-0.62-0.27-0.93c-0.31-1.09-0.63-2.17-0.95-3.28c-0.18,0.05-0.32,0.08-0.46,0.13
	c-1.45,0.45-2.89,0.91-4.34,1.37c-2.11,0.66-3.22,2.17-3.22,4.38c0,2.79,0,5.59,0,8.38c0,0.16,0,0.31,0,0.46c1.21,0,2.36,0,3.56,0
	c0-2.13,0-4.23,0-6.33c0.5,0,0.94,0,1.42,0c0,2.13,0,4.22,0,6.34C18.58,45.52,21.38,45.52,24.23,45.52z M17.16,15.01
	c0,1.6-0.01,3.14,0,4.68c0,0.29,0.04,0.59,0.1,0.88c0.84,4.43,4.84,7.17,9.26,6.34c3.22-0.6,5.92-3.46,6.15-6.71
	c0.15-2.07,0.07-4.16,0.09-6.25c0-0.03-0.02-0.05-0.05-0.13c-1.39,0.55-2.86,0.48-4.32,0.48c-1.67,0-3.34,0-5.01,0
	c-0.22,0-0.44,0.04-0.65,0.11c-1.13,0.39-2.28,0.61-3.47,0.6C18.58,15.01,17.89,15.01,17.16,15.01z M27.18,8.97
	c0.44,0.25,0.83,0.48,1.23,0.71c-0.7,1.26-1.63,2.26-2.7,3.12c1.73,0,3.43,0.12,5.12-0.02C34.56,12.47,37.45,8.77,37,5
	c-0.15,0.07-0.3,0.13-0.44,0.2c-1.6,0.77-3.29,1.08-5.04,0.9c-2.88-0.29-5.76-0.63-8.63-0.99c-2.94-0.37-5.91,1.15-7.34,3.79
	c-1.36,2.51-0.86,4.99,0.02,7.49c0.01,0.01,0.05,0.02,0.13,0.03c0.01-0.14,0.03-0.28,0.03-0.42c0-0.53,0-1.06,0-1.6
	c0-0.56,0.25-0.81,0.81-0.82c0.87-0.01,1.75,0.01,2.62,0c1.86-0.02,3.59-0.51,5.14-1.54C25.49,11.26,26.43,10.23,27.18,8.97z
	 M39.15,45.52c0-3.16,0.08-6.28-0.03-9.39c-0.06-1.87-1.15-3.15-2.94-3.77c-0.75-0.26-1.52-0.48-2.28-0.72
	c-0.91-0.28-1.82-0.57-2.75-0.85c-0.04,0.11-0.06,0.18-0.08,0.24c-0.38,1.32-0.75,2.64-1.14,3.95c-0.17,0.58-0.58,0.76-1.13,0.5
	c-0.31-0.14-0.61-0.3-0.91-0.45c-0.72-0.36-1.44-0.72-2.2-1.1c0,3.9,0,7.73,0,11.59c2.84,0,5.65,0,8.51,0c0-2.13,0-4.23,0-6.33
	c0.5,0,0.95,0,1.43,0c0,2.13,0,4.22,0,6.34C36.81,45.52,37.96,45.52,39.15,45.52z M22.17,28.07c-0.16,0.59,0.03,0.98,0.44,1.33
	c0.44,0.37,0.82,0.81,1.23,1.22c0.37,0.37,0.74,0.75,1.12,1.15c0.86-0.86,1.64-1.7,2.47-2.46c0.4-0.37,0.41-0.75,0.35-1.23
	C25.88,28.65,24.02,28.65,22.17,28.07z M26.17,32.56c0.89,0.45,1.73,0.86,2.6,1.3c0.34-1.19,0.67-2.33,1-3.49
	c-0.29-0.1-0.53-0.21-0.79-0.25c-0.14-0.02-0.35,0.02-0.45,0.12C27.75,30.98,26.99,31.74,26.17,32.56z M23.75,32.56
	c-0.82-0.82-1.6-1.6-2.39-2.38c-0.07-0.07-0.21-0.12-0.3-0.1c-0.3,0.07-0.59,0.17-0.91,0.27c0.34,1.18,0.66,2.32,1,3.5
	C22.03,33.42,22.87,33,23.75,32.56z M34.16,20.67c0.85-0.03,1.48-0.65,1.45-1.44c-0.03-0.76-0.65-1.36-1.45-1.33
	C34.16,18.81,34.16,19.72,34.16,20.67z M15.74,20.66c0-0.93,0-1.86,0-2.8c-0.93,0.13-1.47,0.72-1.43,1.47
	C14.36,20.11,14.98,20.68,15.74,20.66z"/>
<path d="M11.48,22.09c-0.51,0-0.95,0-1.41,0c-0.13-1.07-0.64-1.81-1.71-2.07c-1.44-0.35-2.87,1.02-2.5,2.46
	c0.18,0.7,0.04,1.09-0.59,1.49c-1.28,0.82-1.17,2.68,0.14,3.49c0.59,0.36,0.65,0.52,0.48,1.16C5.56,29.85,6.24,31,7.47,31.29
	c1.14,0.28,2.26-0.48,2.53-1.71c0.02-0.11,0.05-0.23,0.07-0.35c0.46,0,0.91,0,1.36,0c0.13,1.5-1.11,3.07-2.68,3.43
	c-2.39,0.55-4.52-1.28-4.37-3.76c0.02-0.26-0.04-0.42-0.24-0.6c-1.6-1.44-1.6-3.84,0-5.28c0.2-0.18,0.26-0.34,0.24-0.6
	c-0.12-1.97,1.22-3.62,3.09-3.84c1.88-0.23,3.56,1.01,3.94,2.92C11.45,21.68,11.45,21.87,11.48,22.09z"/>
<path d="M38.45,29.24c0.48,0,0.91,0,1.39,0c0.04,0.17,0.07,0.35,0.12,0.53c0.27,1.09,1.42,1.79,2.49,1.53
	c1.17-0.28,1.87-1.36,1.62-2.51c-0.19-0.87-0.19-0.87,0.57-1.4c1.27-0.88,1.2-2.72-0.12-3.54c-0.59-0.36-0.65-0.51-0.48-1.15
	c0.32-1.24-0.36-2.38-1.59-2.68c-1.14-0.27-2.26,0.48-2.53,1.71c-0.02,0.11-0.05,0.23-0.07,0.36c-0.45,0-0.89,0-1.41,0
	c0.04-0.31,0.06-0.62,0.13-0.9c0.43-1.69,2.13-2.83,3.88-2.61c1.74,0.21,3.12,1.73,3.09,3.49c-0.01,0.51,0.13,0.84,0.49,1.21
	c1.36,1.39,1.25,3.66-0.22,4.99c-0.22,0.2-0.28,0.38-0.27,0.68c0.1,1.94-1.23,3.57-3.1,3.8c-1.88,0.23-3.56-1.02-3.94-2.92
	C38.47,29.64,38.47,29.45,38.45,29.24z"/>
<path d="M34.84,24.95c0-0.5,0-0.93,0-1.31c1.86-0.23,3.7-0.46,5.6-0.7c0.09,0.34,0.2,0.77,0.33,1.27
	C38.82,24.71,36.87,24.96,34.84,24.95z"/>
<path d="M40.77,27.09c-0.12,0.49-0.23,0.91-0.32,1.28c-1.88-0.23-3.72-0.46-5.6-0.7c0-0.37,0-0.8,0-1.3
	C36.83,26.34,38.78,26.62,40.77,27.09z"/>
<path d="M9.48,28.38c-0.09-0.36-0.2-0.79-0.32-1.27c1.94-0.5,3.9-0.75,5.92-0.74c0,0.48,0,0.92,0,1.31
	C13.22,27.91,11.39,28.14,9.48,28.38z"/>
<path d="M9.16,24.22c0.12-0.48,0.23-0.92,0.33-1.28c1.88,0.24,3.72,0.46,5.59,0.7c0,0.36,0,0.81,0,1.31
	C13.07,24.97,11.12,24.7,9.16,24.22z"/>
<path d="M27.81,24.93c-0.48,0-0.92,0-1.23,0c-0.33-0.43-0.57-0.85-0.9-1.16c-0.18-0.17-0.52-0.22-0.79-0.22
	c-0.71,0.01-1.12,0.45-1.39,1.39c-0.44,0-0.88,0-1.37,0c0-0.96,0.39-1.72,1.14-2.27c0.98-0.71,2.03-0.77,3.08-0.19
	C27.29,23,27.75,23.83,27.81,24.93z"/>
<path d="M20.31,16.49c0.96,0.48,1.88,0.94,2.85,1.43c-0.21,0.43-0.41,0.83-0.64,1.28c-0.95-0.47-1.87-0.93-2.85-1.42
	C19.88,17.35,20.08,16.95,20.31,16.49z"/>
<path d="M26.76,17.92c0.97-0.49,1.89-0.95,2.85-1.42c0.21,0.42,0.42,0.82,0.64,1.28c-0.95,0.48-1.88,0.94-2.85,1.43
	C27.2,18.78,26.99,18.38,26.76,17.92z"/>
<path d="M29.97,37.73c0.67,0,1.33,0,2,0c0.56,0,0.81,0.25,0.81,0.82c0,1.11-0.01,2.22,0.01,3.32c0,0.43-0.17,0.7-0.58,0.83
	c-0.06,0.02-0.11,0.04-0.17,0.06c-2.19,0.75-2.19,0.75-4.38-0.07c-0.38-0.14-0.56-0.39-0.56-0.8c0.01-1.12,0-2.25,0.01-3.37
	c0-0.53,0.26-0.79,0.79-0.79C28.58,37.73,29.27,37.73,29.97,37.73z M28.51,39.17c0,0.58,0.04,1.11-0.01,1.64
	c-0.05,0.52,0.15,0.69,0.63,0.89c0.75,0.33,1.37,0.06,2.03-0.17c0.08-0.03,0.18-0.13,0.18-0.2c0.01-0.72,0.01-1.44,0.01-2.16
	C30.38,39.17,29.47,39.17,28.51,39.17z"/>
</svg>
