<?xml version="1.0" encoding="utf-8"?>
<!-- Generator: Adobe Illustrator 24.3.0, SVG Export Plug-In . SVG Version: 6.00 Build 0)  -->
<svg version="1.1" id="Layer_1" xmlns="http://www.w3.org/2000/svg" xmlns:xlink="http://www.w3.org/1999/xlink" x="0px" y="0px"
	 viewBox="0 0 50 50" style="enable-background:new 0 0 50 50;" xml:space="preserve">
<path d="M2.59,29.61c0.15-0.83,0.23-1.68,0.46-2.49c1.86-6.68,6.08-10.99,12.87-12.65c2.18-0.53,4.4-0.44,6.61,0
	c0.12,0.02,0.25,0.04,0.31,0.05c0.22-1.09,0.32-2.18,0.65-3.19c1.61-4.88,5-7.74,10.04-8.64c0.21-0.04,0.43-0.07,0.64-0.11
	c0.76,0,1.52,0,2.28,0c0.54,0.1,1.09,0.18,1.62,0.31c4.73,1.15,8.45,5.18,9.25,9.99c0.46,2.73,0.05,5.31-1.26,7.76
	c-0.09,0.17-0.12,0.42-0.07,0.61c0.23,0.96,0.5,1.92,0.75,2.88c0.39,1.49-0.76,2.64-2.25,2.25c-0.96-0.25-1.91-0.52-2.88-0.75
	c-0.17-0.04-0.39-0.05-0.53,0.03c-1.68,0.9-3.46,1.37-5.36,1.48c-0.04,0-0.08,0.02-0.16,0.04c0.09,0.66,0.21,1.32,0.28,1.98
	c0.42,4.01-0.5,7.7-2.82,10.99c-2.77,3.94-6.56,6.35-11.31,7.15c-3.67,0.62-7.15-0.06-10.4-1.85c-0.29-0.16-0.54-0.2-0.86-0.11
	c-1.39,0.38-2.78,0.76-4.18,1.12c-1.72,0.44-3.1-0.92-2.65-2.64c0.37-1.42,0.77-2.84,1.13-4.27c0.05-0.19,0.04-0.44-0.05-0.61
	c-1.11-2.03-1.84-4.19-2.05-6.5c-0.01-0.07-0.05-0.13-0.07-0.2C2.59,31.36,2.59,30.48,2.59,29.61z M19.54,45.7
	c0.51-0.06,1.51-0.13,2.48-0.31c3.43-0.63,6.39-2.16,8.61-4.89c3.05-3.74,4.02-8.05,3.11-12.75c-1.78-9.15-10.13-12.71-17.06-11.63
	c-3.53,0.55-6.42,2.33-8.71,5.06c-4.03,4.83-4.91,11.69-1.51,17.22c0.24,0.39,0.24,0.75,0.13,1.17c-0.42,1.52-0.82,3.04-1.23,4.56
	c-0.15,0.56,0.01,0.72,0.56,0.58c1.58-0.41,3.16-0.82,4.73-1.25c0.39-0.11,0.7-0.04,1.03,0.16C13.96,44.97,16.42,45.66,19.54,45.7z
	 M45.07,24.71c-0.32-1.2-0.65-2.32-0.9-3.45c-0.07-0.32-0.04-0.75,0.11-1.03c1.21-2.17,1.7-4.45,1.3-6.91
	c-0.45-2.8-1.68-5.15-3.99-6.84c-2.27-1.66-4.83-2.27-7.61-1.96c-2.9,0.33-5.32,1.59-7.11,3.93c-1.4,1.82-1.99,3.93-2.14,6.19
	c-0.02,0.34,0.08,0.48,0.39,0.6c4.67,1.83,7.93,5.09,9.75,9.76c0.12,0.31,0.27,0.42,0.6,0.4c1.79-0.08,3.49-0.52,5.04-1.44
	c0.38-0.23,0.74-0.26,1.17-0.14C42.77,24.12,43.88,24.4,45.07,24.71z"/>
<path d="M35.24,14c0.5,0.01,0.87,0.4,0.86,0.9c-0.02,0.48-0.39,0.84-0.87,0.85c-0.5,0-0.88-0.38-0.87-0.88
	C34.35,14.36,34.73,13.99,35.24,14z"/>
<path d="M39.61,14c0.5,0.01,0.88,0.4,0.86,0.9c-0.02,0.48-0.39,0.85-0.87,0.85c-0.51,0-0.88-0.37-0.88-0.88
	C38.73,14.36,39.11,13.99,39.61,14z"/>
<path d="M31.71,14.88c-0.01,0.5-0.39,0.87-0.9,0.86c-0.5-0.01-0.87-0.41-0.85-0.91c0.01-0.48,0.39-0.84,0.88-0.84
	C31.34,14,31.72,14.38,31.71,14.88z"/>
<g>
	<path d="M31.59,28.75c-0.07,0.39-0.13,0.78-0.22,1.16c-0.33,1.34-0.99,2.49-1.96,3.46c-0.06,0.06-0.14,0.11-0.21,0.17
		c0.32,0.56,0.47,1.12,0.46,1.73c-0.02,1.44-1.15,2.73-2.57,2.95c-0.68,0.11-1.33,0.01-1.94-0.31c-0.15-0.08-0.23-0.06-0.34,0.05
		c-1.67,1.68-3.35,3.35-5.02,5.03c-0.15,0.15-0.31,0.29-0.55,0.23c-0.31-0.08-0.44-0.34-0.34-0.71c0.23-0.85,0.46-1.71,0.69-2.56
		c0.08-0.29,0.15-0.58,0.23-0.86c0.09-0.32,0.34-0.49,0.6-0.42c0.29,0.08,0.43,0.33,0.34,0.67c-0.13,0.51-0.27,1.01-0.4,1.51
		c-0.01,0.05-0.02,0.11-0.02,0.13c1.27-1.27,2.55-2.55,3.84-3.84c-0.27-0.36-0.51-0.79-0.61-1.29c-0.22-1.06,0.03-2,0.77-2.79
		c0.6-0.64,1.23-1.25,1.86-1.87c0.26-0.26,0.52-0.25,0.78,0.01c0.54,0.53,1.07,1.07,1.61,1.61c0.84-0.79,1.42-1.73,1.76-2.81
		c1.16-3.73-1.24-7.65-5.09-8.31c-1.27-0.22-2.5-0.06-3.68,0.45c-0.15,0.07-0.24,0.15-0.28,0.32c-0.69,2.6-1.39,5.2-2.09,7.8
		c-0.02,0.06-0.02,0.13-0.04,0.21c0.8,0.22,1.6,0.43,2.4,0.65c0.26,0.07,0.53,0.14,0.79,0.21c0.34,0.1,0.48,0.33,0.39,0.68
		c-0.3,1.15-0.61,2.3-0.92,3.44c-0.09,0.34-0.34,0.51-0.61,0.43c-0.27-0.08-0.43-0.37-0.33-0.69c0.27-0.93,0.5-1.86,0.75-2.79
		c0.02-0.08,0.03-0.15,0.05-0.24c-0.89-0.24-1.75-0.47-2.62-0.7c-0.19-0.05-0.37-0.1-0.56-0.15c-0.37-0.1-0.49-0.33-0.39-0.72
		c0.41-1.55,0.83-3.1,1.24-4.65c0.36-1.35,0.73-2.7,1.09-4.05c0.06-0.21,0.17-0.35,0.36-0.45c4.34-2.23,9.74,0.39,10.66,5.18
		c0.05,0.28,0.1,0.55,0.15,0.83C31.59,27.88,31.59,28.32,31.59,28.75z M26.54,32.24c0.01-0.01,0,0-0.02,0.01
		c-0.48,0.48-0.96,0.95-1.44,1.43c-0.38,0.38-0.58,0.84-0.62,1.37c-0.06,0.93,0.5,1.8,1.4,2.12c0.91,0.32,1.91,0,2.45-0.79
		c0.53-0.77,0.51-1.85-0.11-2.53C27.69,33.29,27.11,32.79,26.54,32.24z"/>
	<path d="M17.46,40.41c0.62-2.3,1.23-4.58,1.84-6.88c-0.55-0.15-1.08-0.29-1.6-0.43c-0.53-0.14-1.06-0.28-1.58-0.43
		c-0.38-0.11-0.5-0.32-0.4-0.71c0.79-2.94,1.57-5.88,2.36-8.82c0.05-0.19,0.03-0.3-0.15-0.41c-2.15-1.35-4.37-1.49-6.65-0.38
		c-0.36,0.18-0.63,0.14-0.78-0.12c-0.15-0.26-0.06-0.53,0.23-0.69c0.83-0.46,1.73-0.75,2.67-0.85c2.01-0.22,3.83,0.28,5.44,1.5
		c0.36,0.28,0.4,0.38,0.28,0.82c-0.77,2.86-1.53,5.73-2.3,8.59c-0.02,0.07-0.03,0.14-0.05,0.23c0.54,0.15,1.08,0.29,1.61,0.44
		c0.5,0.14,1.01,0.27,1.51,0.4c0.44,0.12,0.56,0.32,0.44,0.77c-0.71,2.65-1.42,5.29-2.13,7.94c-0.14,0.51-0.54,0.63-0.91,0.25
		c-2.77-2.77-5.55-5.53-8.3-8.31c-1.56-1.58-2.26-3.51-2.14-5.72c0.06-1.05,0.34-2.04,0.83-2.97c0.19-0.37,0.45-0.48,0.73-0.33
		c0.27,0.15,0.31,0.42,0.13,0.77c-1.17,2.41-0.97,4.71,0.56,6.9c0.19,0.28,0.43,0.52,0.67,0.76c2.49,2.5,4.99,4.99,7.48,7.49
		C17.33,40.29,17.39,40.34,17.46,40.41z"/>
	<path d="M20.33,37.28c0-0.27,0.23-0.49,0.49-0.48c0.26,0.01,0.47,0.23,0.47,0.48c0,0.26-0.23,0.49-0.49,0.49
		C20.54,37.78,20.32,37.55,20.33,37.28z"/>
	<path d="M9.85,23.18c0,0.27-0.23,0.49-0.49,0.48c-0.25-0.01-0.47-0.23-0.47-0.48c0-0.26,0.22-0.49,0.49-0.49
		C9.63,22.68,9.85,22.91,9.85,23.18z"/>
</g>
</svg>
