<?xml version="1.0" encoding="utf-8"?>
<!-- Generator: Adobe Illustrator 24.3.0, SVG Export Plug-In . SVG Version: 6.00 Build 0)  -->
<svg version="1.1" id="Layer_1" xmlns="http://www.w3.org/2000/svg" xmlns:xlink="http://www.w3.org/1999/xlink" x="0px" y="0px"
	 viewBox="0 0 50 50" style="enable-background:new 0 0 50 50;" xml:space="preserve">
<path d="M2.59,29.61c0.15-0.83,0.23-1.68,0.46-2.49c1.86-6.68,6.08-10.99,12.87-12.65c2.18-0.53,4.4-0.44,6.61,0
	c0.12,0.02,0.25,0.04,0.31,0.05c0.22-1.09,0.32-2.18,0.65-3.19c1.61-4.88,5-7.74,10.04-8.64c0.21-0.04,0.43-0.07,0.64-0.11
	c0.76,0,1.52,0,2.28,0c0.54,0.1,1.09,0.18,1.62,0.31c4.73,1.15,8.45,5.18,9.25,9.99c0.46,2.73,0.05,5.31-1.26,7.76
	c-0.09,0.17-0.12,0.42-0.07,0.61c0.23,0.96,0.5,1.92,0.75,2.88c0.39,1.49-0.76,2.64-2.25,2.25c-0.96-0.25-1.91-0.52-2.88-0.75
	c-0.17-0.04-0.39-0.05-0.53,0.03c-1.68,0.9-3.46,1.37-5.36,1.48c-0.04,0-0.08,0.02-0.16,0.04c0.09,0.66,0.21,1.32,0.28,1.98
	c0.42,4.01-0.5,7.7-2.82,10.99c-2.77,3.94-6.56,6.35-11.31,7.15c-3.67,0.62-7.15-0.06-10.4-1.85c-0.29-0.16-0.54-0.2-0.86-0.11
	c-1.39,0.38-2.78,0.76-4.18,1.12c-1.72,0.44-3.1-0.92-2.65-2.64c0.37-1.42,0.77-2.84,1.13-4.27c0.05-0.19,0.04-0.44-0.05-0.61
	c-1.11-2.03-1.84-4.19-2.05-6.5c-0.01-0.07-0.05-0.13-0.07-0.2C2.59,31.36,2.59,30.48,2.59,29.61z M19.54,45.7
	c0.51-0.06,1.51-0.13,2.48-0.31c3.43-0.63,6.39-2.16,8.61-4.89c3.05-3.74,4.02-8.05,3.11-12.75c-1.78-9.15-10.13-12.71-17.06-11.63
	c-3.53,0.55-6.42,2.33-8.71,5.06c-4.03,4.83-4.91,11.69-1.51,17.22c0.24,0.39,0.24,0.75,0.13,1.17c-0.42,1.52-0.82,3.04-1.23,4.56
	c-0.15,0.56,0.01,0.72,0.56,0.58c1.58-0.41,3.16-0.82,4.73-1.25c0.39-0.11,0.7-0.04,1.03,0.16C13.96,44.97,16.42,45.66,19.54,45.7z
	 M45.07,24.71c-0.32-1.2-0.65-2.32-0.9-3.45c-0.07-0.32-0.04-0.75,0.11-1.03c1.21-2.17,1.7-4.45,1.3-6.91
	c-0.45-2.8-1.68-5.15-3.99-6.84c-2.27-1.66-4.83-2.27-7.61-1.96c-2.9,0.33-5.32,1.59-7.11,3.93c-1.4,1.82-1.99,3.93-2.14,6.19
	c-0.02,0.34,0.08,0.48,0.39,0.6c4.67,1.83,7.93,5.09,9.75,9.76c0.12,0.31,0.27,0.42,0.6,0.4c1.79-0.08,3.49-0.52,5.04-1.44
	c0.38-0.23,0.74-0.26,1.17-0.14C42.77,24.12,43.88,24.4,45.07,24.71z"/>
<path d="M35.24,14c0.5,0.01,0.87,0.4,0.86,0.9c-0.02,0.48-0.39,0.84-0.87,0.85c-0.5,0-0.88-0.38-0.87-0.88
	C34.35,14.36,34.73,13.99,35.24,14z"/>
<path d="M39.61,14c0.5,0.01,0.88,0.4,0.86,0.9c-0.02,0.48-0.39,0.85-0.87,0.85c-0.51,0-0.88-0.37-0.88-0.88
	C38.73,14.36,39.11,13.99,39.61,14z"/>
<path d="M31.71,14.88c-0.01,0.5-0.39,0.87-0.9,0.86c-0.5-0.01-0.87-0.41-0.85-0.91c0.01-0.48,0.39-0.84,0.88-0.84
	C31.34,14,31.72,14.38,31.71,14.88z"/>
<path d="M20.19,18.38c0.52,0.09,0.62,0.47,0.62,0.91c0,0.37,0,0.75,0.01,1.12c0.01,0.49,0.11,0.62,0.59,0.71
	c0.91,0.16,1.81,0.34,2.66,0.71c0.1,0.04,0.19,0.08,0.29,0.12c0.42,0.2,0.56,0.47,0.44,0.92c-0.19,0.69-0.39,1.38-0.61,2.07
	c-0.19,0.6-0.39,0.68-0.96,0.42c-1.14-0.54-2.33-0.81-3.59-0.79c-0.49,0.01-0.97,0.04-1.42,0.27c-1.05,0.53-1.21,1.69-0.32,2.47
	c0.54,0.48,1.2,0.76,1.85,1.05c1.05,0.47,2.13,0.89,3.11,1.46c1.77,1.03,2.73,2.62,2.8,4.68c0.08,2.3-1.48,4.47-3.73,5.27
	c-0.24,0.08-0.48,0.15-0.71,0.24c-0.39,0.15-0.55,0.39-0.55,0.8c0,0.55,0,1.1,0,1.65c0,0.56-0.24,0.8-0.8,0.81
	c-0.54,0.01-1.09,0.01-1.63,0c-0.52,0-0.77-0.26-0.78-0.78c-0.01-0.55-0.02-1.1-0.04-1.65c-0.01-0.3-0.11-0.41-0.41-0.48
	c-0.76-0.17-1.53-0.29-2.27-0.51c-0.55-0.16-1.08-0.42-1.6-0.67c-0.32-0.15-0.44-0.44-0.34-0.79c0.22-0.78,0.42-1.57,0.67-2.35
	c0.15-0.47,0.36-0.54,0.82-0.31c0.98,0.5,2.01,0.84,3.1,1.02c0.89,0.15,1.77,0.16,2.63-0.19c0.84-0.34,1.29-1.02,1.21-1.87
	c-0.06-0.56-0.35-1.01-0.81-1.3c-0.58-0.36-1.2-0.67-1.82-0.95c-1.07-0.47-2.17-0.85-3.15-1.5c-0.95-0.63-1.75-1.39-2.19-2.47
	c-0.75-1.88-0.3-4.8,2.06-6.21c0.54-0.32,1.14-0.56,1.73-0.81c0.56-0.24,0.63-0.31,0.64-0.91c0.01-0.48,0.03-0.96,0.03-1.43
	c0-0.39,0.14-0.66,0.55-0.73C18.9,18.38,19.55,18.38,20.19,18.38z"/>
</svg>
