<?xml version="1.0" encoding="utf-8"?>
<!-- Generator: Adobe Illustrator 24.3.0, SVG Export Plug-In . SVG Version: 6.00 Build 0)  -->
<svg version="1.1" id="Layer_1" xmlns="http://www.w3.org/2000/svg" xmlns:xlink="http://www.w3.org/1999/xlink" x="0px" y="0px"
	 viewBox="0 0 50 50" style="enable-background:new 0 0 50 50;" xml:space="preserve">
<path d="M2.59,29.61c0.15-0.83,0.23-1.68,0.46-2.49c1.86-6.68,6.08-10.99,12.87-12.65c2.18-0.53,4.4-0.44,6.61,0
	c0.12,0.02,0.25,0.04,0.31,0.05c0.22-1.09,0.32-2.18,0.65-3.19c1.61-4.88,5-7.74,10.04-8.64c0.21-0.04,0.43-0.07,0.64-0.11
	c0.76,0,1.52,0,2.28,0c0.54,0.1,1.09,0.18,1.62,0.31c4.73,1.15,8.45,5.18,9.25,9.99c0.46,2.73,0.05,5.31-1.26,7.76
	c-0.09,0.17-0.12,0.42-0.07,0.61c0.23,0.96,0.5,1.92,0.75,2.88c0.39,1.49-0.76,2.64-2.25,2.25c-0.96-0.25-1.91-0.52-2.88-0.75
	c-0.17-0.04-0.39-0.05-0.53,0.03c-1.68,0.9-3.46,1.37-5.36,1.48c-0.04,0-0.08,0.02-0.16,0.04c0.09,0.66,0.21,1.32,0.28,1.98
	c0.42,4.01-0.5,7.7-2.82,10.99c-2.77,3.94-6.56,6.35-11.31,7.15c-3.67,0.62-7.15-0.06-10.4-1.85c-0.29-0.16-0.54-0.2-0.86-0.11
	c-1.39,0.38-2.78,0.76-4.18,1.12c-1.72,0.44-3.1-0.92-2.65-2.64c0.37-1.42,0.77-2.84,1.13-4.27c0.05-0.19,0.04-0.44-0.05-0.61
	c-1.11-2.03-1.84-4.19-2.05-6.5c-0.01-0.07-0.05-0.13-0.07-0.2C2.59,31.36,2.59,30.48,2.59,29.61z M19.54,45.7
	c0.51-0.06,1.51-0.13,2.48-0.31c3.43-0.63,6.39-2.16,8.61-4.89c3.05-3.74,4.02-8.05,3.11-12.75c-1.78-9.15-10.13-12.71-17.06-11.63
	c-3.53,0.55-6.42,2.33-8.71,5.06c-4.03,4.83-4.91,11.69-1.51,17.22c0.24,0.39,0.24,0.75,0.13,1.17c-0.42,1.52-0.82,3.04-1.23,4.56
	c-0.15,0.56,0.01,0.72,0.56,0.58c1.58-0.41,3.16-0.82,4.73-1.25c0.39-0.11,0.7-0.04,1.03,0.16C13.96,44.97,16.42,45.66,19.54,45.7z
	 M45.07,24.71c-0.32-1.2-0.65-2.32-0.9-3.45c-0.07-0.32-0.04-0.75,0.11-1.03c1.21-2.17,1.7-4.45,1.3-6.91
	c-0.45-2.8-1.68-5.15-3.99-6.84c-2.27-1.66-4.83-2.27-7.61-1.96c-2.9,0.33-5.32,1.59-7.11,3.93c-1.4,1.82-1.99,3.93-2.14,6.19
	c-0.02,0.34,0.08,0.48,0.39,0.6c4.67,1.83,7.93,5.09,9.75,9.76c0.12,0.31,0.27,0.42,0.6,0.4c1.79-0.08,3.49-0.52,5.04-1.44
	c0.38-0.23,0.74-0.26,1.17-0.14C42.77,24.12,43.88,24.4,45.07,24.71z"/>
<path d="M23.72,28.16c0.01-0.14,0.03-0.25,0.01-0.34c-0.23-1.09,0.34-1.81,1.13-2.42c0.17-0.13,0.41-0.25,0.62-0.26
	c1.32-0.02,2.63-0.03,3.95,0c0.22,0,0.48,0.13,0.66,0.28c0.29,0.22,0.56,0.48,0.77,0.77c0.16,0.22,0.31,0.51,0.31,0.78
	c0.02,2.57,0.02,5.15,0,7.72c0,0.25-0.18,0.5-0.28,0.75c-0.01,0.01-0.02,0.02-0.03,0.03c-0.62,0.82-1.39,1.2-2.46,1.09
	c-0.9-0.09-1.81,0.01-2.72-0.04c-0.32-0.02-0.66-0.19-0.93-0.38c-0.8-0.56-1.22-1.31-1.03-2.33c0.02-0.1,0-0.2,0-0.32
	c-2.98,0-5.93,0-8.94,0c0,0.39,0.04,0.79-0.01,1.17c-0.04,0.28-0.17,0.58-0.33,0.82c-0.6,0.84-1.39,1.19-2.45,1.08
	c-0.9-0.09-1.81,0.01-2.72-0.04c-0.3-0.02-0.63-0.18-0.89-0.36c-0.85-0.59-1.12-1.39-1.08-2.45c0.09-2.19,0.03-4.38,0.02-6.58
	c0-0.43,0.17-0.73,0.43-1.05c0.6-0.76,1.32-1.04,2.29-0.96c0.96,0.08,1.93-0.01,2.89,0.03c0.28,0.01,0.58,0.16,0.81,0.33
	c0.79,0.58,1.25,1.33,1.05,2.36c-0.02,0.09,0.01,0.2,0.02,0.33C17.79,28.16,20.73,28.16,23.72,28.16z M13.04,30.8
	c0-1.08,0-2.16,0-3.24c0-0.48-0.2-0.68-0.69-0.68c-0.86,0-1.72,0-2.59,0c-0.42,0-0.65,0.23-0.65,0.64c0,2.19,0,4.38,0,6.57
	c0,0.44,0.23,0.66,0.68,0.66c0.86,0,1.72,0,2.59,0c0.45,0,0.66-0.22,0.67-0.67C13.04,32.99,13.04,31.9,13.04,30.8z M29.43,30.88
	c0-1.11,0-2.22,0-3.33c0-0.45-0.22-0.67-0.66-0.67c-0.88,0-1.75,0-2.63,0c-0.43,0-0.66,0.24-0.66,0.68c0,2.17,0,4.35,0,6.52
	c0,0.44,0.23,0.67,0.66,0.67c0.86,0,1.72,0,2.58,0c0.49,0,0.7-0.22,0.7-0.72C29.43,32.98,29.43,31.93,29.43,30.88z M14.82,29.97
	c0,0.59,0,1.12,0,1.68c2.98,0,5.93,0,8.88,0c0-0.58,0-1.13,0-1.68C20.74,29.97,17.8,29.97,14.82,29.97z"/>
<path d="M35.24,14c0.5,0.01,0.87,0.4,0.86,0.9c-0.02,0.48-0.39,0.84-0.87,0.85c-0.5,0-0.88-0.38-0.87-0.88
	C34.35,14.36,34.73,13.99,35.24,14z"/>
<path d="M39.61,14c0.5,0.01,0.88,0.4,0.86,0.9c-0.02,0.48-0.39,0.85-0.87,0.85c-0.51,0-0.88-0.37-0.88-0.88
	C38.73,14.36,39.11,13.99,39.61,14z"/>
<path d="M31.71,14.88c-0.01,0.5-0.39,0.87-0.9,0.86c-0.5-0.01-0.87-0.41-0.85-0.91c0.01-0.48,0.39-0.84,0.88-0.84
	C31.34,14,31.72,14.38,31.71,14.88z"/>
</svg>
