<?xml version="1.0" encoding="utf-8"?>
<!-- Generator: Adobe Illustrator 24.3.0, SVG Export Plug-In . SVG Version: 6.00 Build 0)  -->
<svg version="1.1" id="Layer_1" xmlns="http://www.w3.org/2000/svg" xmlns:xlink="http://www.w3.org/1999/xlink" x="0px" y="0px"
	 viewBox="0 0 50 50" style="enable-background:new 0 0 50 50;" xml:space="preserve">
<path d="M2.59,29.61c0.15-0.83,0.23-1.68,0.46-2.49c1.86-6.68,6.08-10.99,12.87-12.65c2.18-0.53,4.4-0.44,6.61,0
	c0.12,0.02,0.25,0.04,0.31,0.05c0.22-1.09,0.32-2.18,0.65-3.19c1.61-4.88,5-7.74,10.04-8.64c0.21-0.04,0.43-0.07,0.64-0.11
	c0.76,0,1.52,0,2.28,0c0.54,0.1,1.09,0.18,1.62,0.31c4.73,1.15,8.45,5.18,9.25,9.99c0.46,2.73,0.05,5.31-1.26,7.76
	c-0.09,0.17-0.12,0.42-0.07,0.61c0.23,0.96,0.5,1.92,0.75,2.88c0.39,1.49-0.76,2.64-2.25,2.25c-0.96-0.25-1.91-0.52-2.88-0.75
	c-0.17-0.04-0.39-0.05-0.53,0.03c-1.68,0.9-3.46,1.37-5.36,1.48c-0.04,0-0.08,0.02-0.16,0.04c0.09,0.66,0.21,1.32,0.28,1.98
	c0.42,4.01-0.5,7.7-2.82,10.99c-2.77,3.94-6.56,6.35-11.31,7.15c-3.67,0.62-7.15-0.06-10.4-1.85c-0.29-0.16-0.54-0.2-0.86-0.11
	c-1.39,0.38-2.78,0.76-4.18,1.12c-1.72,0.44-3.1-0.92-2.65-2.64c0.37-1.42,0.77-2.84,1.13-4.27c0.05-0.19,0.04-0.44-0.05-0.61
	c-1.11-2.03-1.84-4.19-2.05-6.5c-0.01-0.07-0.05-0.13-0.07-0.2C2.59,31.36,2.59,30.48,2.59,29.61z M19.54,45.7
	c0.51-0.06,1.51-0.13,2.48-0.31c3.43-0.63,6.39-2.16,8.61-4.89c3.05-3.74,4.02-8.05,3.11-12.75c-1.78-9.15-10.13-12.71-17.06-11.63
	c-3.53,0.55-6.42,2.33-8.71,5.06c-4.03,4.83-4.91,11.69-1.51,17.22c0.24,0.39,0.24,0.75,0.13,1.17c-0.42,1.52-0.82,3.04-1.23,4.56
	c-0.15,0.56,0.01,0.72,0.56,0.58c1.58-0.41,3.16-0.82,4.73-1.25c0.39-0.11,0.7-0.04,1.03,0.16C13.96,44.97,16.42,45.66,19.54,45.7z
	 M45.07,24.71c-0.32-1.2-0.65-2.32-0.9-3.45c-0.07-0.32-0.04-0.75,0.11-1.03c1.21-2.17,1.7-4.45,1.3-6.91
	c-0.45-2.8-1.68-5.15-3.99-6.84c-2.27-1.66-4.83-2.27-7.61-1.96c-2.9,0.33-5.32,1.59-7.11,3.93c-1.4,1.82-1.99,3.93-2.14,6.19
	c-0.02,0.34,0.08,0.48,0.39,0.6c4.67,1.83,7.93,5.09,9.75,9.76c0.12,0.31,0.27,0.42,0.6,0.4c1.79-0.08,3.49-0.52,5.04-1.44
	c0.38-0.23,0.74-0.26,1.17-0.14C42.77,24.12,43.88,24.4,45.07,24.71z"/>
<path d="M35.24,14c0.5,0.01,0.87,0.4,0.86,0.9c-0.02,0.48-0.39,0.84-0.87,0.85c-0.5,0-0.88-0.38-0.87-0.88
	C34.35,14.36,34.73,13.99,35.24,14z"/>
<path d="M39.61,14c0.5,0.01,0.88,0.4,0.86,0.9c-0.02,0.48-0.39,0.85-0.87,0.85c-0.51,0-0.88-0.37-0.88-0.88
	C38.73,14.36,39.11,13.99,39.61,14z"/>
<path d="M31.71,14.88c-0.01,0.5-0.39,0.87-0.9,0.86c-0.5-0.01-0.87-0.41-0.85-0.91c0.01-0.48,0.39-0.84,0.88-0.84
	C31.34,14,31.72,14.38,31.71,14.88z"/>
<path d="M19.99,18.78c0.34,0.05,0.68,0.09,1.02,0.14c2.88,0.45,5.29,1.78,7.22,3.97c1.59,1.8,2.56,3.9,2.87,6.28
	c0.44,3.37-0.38,6.43-2.5,9.1c-1.99,2.51-4.6,4.02-7.78,4.45c-3.36,0.45-6.41-0.37-9.08-2.48c-2.51-1.99-3.99-4.6-4.47-7.77
	c-0.04-0.28-0.07-0.57-0.11-0.86c0-0.53,0-1.06,0-1.6c0.04-0.29,0.07-0.57,0.11-0.86c0.34-2.36,1.29-4.46,2.87-6.25
	c1.93-2.19,4.34-3.52,7.23-3.98c0.34-0.05,0.68-0.09,1.02-0.14C18.93,18.78,19.46,18.78,19.99,18.78z M29.91,30.8
	c0-5.92-4.8-10.72-10.71-10.72c-5.92,0-10.72,4.8-10.71,10.71c0,5.92,4.79,10.71,10.71,10.72C25.1,41.51,29.91,36.71,29.91,30.8z"/>
<path d="M24.39,33.33c0.35,0.23,0.68,0.44,1.02,0.66c0.02,0.01,0.03,0.03,0.06,0.07c-1.45,2.08-3.43,3.27-5.97,3.38
	c-2.8,0.12-4.96-1.13-6.61-3.39c0.38-0.25,0.74-0.48,1.1-0.72c1.27,1.79,2.98,2.81,5.19,2.81C21.39,36.14,23.11,35.14,24.39,33.33z"
	/>
<path d="M13.8,29.34c-0.38,0-0.75,0-1.11,0c-0.05,0-0.09,0-0.17-0.01c0.01-0.88,0.35-1.59,1.06-2.08c0.87-0.6,1.81-0.66,2.74-0.16
	c0.87,0.47,1.29,1.24,1.33,2.24c-0.44,0-0.87,0-1.29,0c-0.17-0.83-0.6-1.25-1.28-1.25C14.41,28.07,13.97,28.5,13.8,29.34z"/>
<path d="M22.03,29.33c-0.43,0-0.84,0-1.28,0c0-0.83,0.31-1.51,0.96-2.01c0.87-0.66,1.83-0.75,2.8-0.26c0.9,0.46,1.33,1.23,1.37,2.26
	c-0.44,0-0.86,0-1.29,0c-0.2-0.86-0.63-1.27-1.32-1.25C22.59,28.1,22.16,28.53,22.03,29.33z"/>
</svg>
