<?xml version="1.0" encoding="utf-8"?>
<!-- Generator: Adobe Illustrator 24.3.0, SVG Export Plug-In . SVG Version: 6.00 Build 0)  -->
<svg version="1.1" id="Layer_1" xmlns="http://www.w3.org/2000/svg" xmlns:xlink="http://www.w3.org/1999/xlink" x="0px" y="0px"
	 viewBox="0 0 50 50" style="enable-background:new 0 0 50 50;" xml:space="preserve">
<path d="M47.56,4.58c-0.06,0.48-0.13,0.96-0.17,1.45c-0.07,0.89-0.12,1.78-0.2,2.66c-0.06,0.76-0.42,1.32-1.13,1.62
	c-0.71,0.3-1.37,0.16-1.94-0.35c-0.2-0.18-0.36-0.4-0.55-0.62c-0.17,0.16-0.29,0.27-0.4,0.38c-2.07,2.07-4.14,4.14-6.2,6.21
	c-1.81,1.81-4.04,1.82-5.85,0.02c-0.95-0.94-1.89-1.89-2.84-2.84c-0.1-0.1-0.21-0.2-0.38-0.35c-0.29,0.31-0.55,0.61-0.83,0.89
	c-3.38,3.38-6.76,6.77-10.14,10.15c-1.69,1.69-3.96,1.69-5.65,0.01c-0.42-0.42-0.84-0.84-1.26-1.26c-0.14-0.15-0.27-0.31-0.43-0.5
	c-0.17,0.16-0.28,0.26-0.39,0.37c-1.11,1.11-2.22,2.23-3.34,3.33c-0.65,0.64-1.43,0.84-2.29,0.58c-0.85-0.26-1.38-0.85-1.57-1.72
	c-0.18-0.84,0.1-1.55,0.69-2.15c0.83-0.83,1.66-1.66,2.48-2.49c0.55-0.55,1.08-1.1,1.64-1.64c1.61-1.55,3.86-1.56,5.47-0.01
	c0.61,0.59,1.19,1.2,1.82,1.84c0.15-0.15,0.28-0.26,0.4-0.38c3.52-3.52,7.03-7.04,10.55-10.56c1.81-1.81,4.04-1.8,5.84,0.01
	c1.04,1.04,2.08,2.08,3.08,3.08c2.08-2.08,4.15-4.14,6.31-6.31c-0.12-0.1-0.34-0.23-0.51-0.4c-0.55-0.57-0.74-1.25-0.43-2
	c0.31-0.75,0.91-1.09,1.71-1.15c1.27-0.09,2.55-0.19,3.82-0.29c0.1-0.01,0.2-0.05,0.3-0.08c0.39,0,0.77,0,1.16,0
	c0.59,0.24,1,0.66,1.25,1.25C47.56,3.75,47.56,4.16,47.56,4.58z"/>
<path d="M47.56,25.79c-0.11,0.43-0.19,0.86-0.32,1.28c-0.44,1.44-1.23,2.66-2.38,3.63c-0.08,0.06-0.15,0.13-0.24,0.21
	c2.17,0.72,2.77,2.16,1.62,3.87c0.74,0.99,0.77,2,0,3.04c0.75,1.01,0.77,2.03,0,3.05c0.76,1.02,0.75,2.03,0.01,3.03
	c0.75,1.19,0.72,2.27-0.06,3.1c-0.46,0.49-1.04,0.72-1.71,0.72c-3,0-6,0-9,0c-0.95,0-1.67-0.39-2.1-1.23
	c-0.42-0.82-0.34-1.63,0.19-2.39c0.03-0.05,0.07-0.1,0.11-0.17c-0.74-1-0.77-2.01,0-3.04c-0.73-0.99-0.77-2,0-3.04
	c-0.73-0.99-0.77-2,0-3.05c-0.53-0.72-0.74-1.52-0.38-2.4c0.36-0.88,1.07-1.3,1.98-1.44c-0.44-0.46-0.91-0.88-1.28-1.37
	c-3.63-4.67-0.89-11.42,4.96-12.24c4.08-0.58,7.95,2.33,8.53,6.42c0.01,0.08,0.06,0.16,0.08,0.24
	C47.56,24.61,47.56,25.2,47.56,25.79z M39.96,18.86c-3.36,0-6.04,2.68-6.04,6.05c0,3.35,2.68,6.03,6,6.04
	c3.04,0.01,6.06-2.35,6.06-6.05C45.98,21.2,42.97,18.86,39.96,18.86z M39.99,44.72c0,0,0-0.01,0-0.01c-1.47,0-2.94,0-4.41,0
	c-0.57,0-0.93,0.29-0.92,0.73c0.01,0.43,0.36,0.73,0.89,0.73c2.92,0,5.84,0,8.77-0.01c0.56,0,0.89-0.28,0.89-0.71
	c0.01-0.47-0.31-0.73-0.91-0.73C42.86,44.72,41.42,44.72,39.99,44.72z M39.95,41.69c0,0,0-0.01,0-0.01c-1.47,0-2.94,0-4.41,0
	c-0.53,0-0.85,0.26-0.88,0.68c-0.03,0.43,0.32,0.77,0.85,0.77c2.99,0,5.97-0.02,8.96-0.05c0.17,0,0.41-0.05,0.48-0.16
	c0.13-0.22,0.25-0.51,0.22-0.75c-0.05-0.33-0.36-0.48-0.71-0.48C42.95,41.69,41.45,41.69,39.95,41.69z M39.98,35.62
	c0-0.01,0-0.01,0-0.02c-1.49,0-2.97,0-4.46,0c-0.32,0-0.59,0.06-0.76,0.35c-0.29,0.49,0.1,1.09,0.76,1.08
	c2.96-0.04,5.91-0.02,8.87-0.03c0.52,0,0.81-0.24,0.82-0.67c0.01-0.45-0.28-0.71-0.82-0.71C42.92,35.62,41.45,35.62,39.98,35.62z
	 M39.94,38.66c0,0,0-0.01,0-0.01c-1.47,0-2.94,0-4.41,0c-0.53,0-0.85,0.26-0.87,0.69c-0.02,0.43,0.32,0.74,0.87,0.74
	c2.97,0,5.94-0.01,8.91-0.03c0.17,0,0.42-0.03,0.49-0.14c0.14-0.21,0.27-0.5,0.25-0.74c-0.04-0.33-0.33-0.5-0.69-0.5
	C42.97,38.66,41.45,38.66,39.94,38.66z M39.96,33.98c0,0,0-0.01,0-0.01c1.49,0,2.97,0,4.46,0c0.51,0,0.8-0.26,0.8-0.69
	c0-0.43-0.28-0.69-0.8-0.69c-2.96-0.01-5.91-0.02-8.87-0.03c-0.56,0-0.89,0.28-0.89,0.71c0,0.44,0.33,0.71,0.89,0.71
	C37.02,33.98,38.49,33.98,39.96,33.98z"/>
<path d="M31.02,43.92c0.55,0.73,0.74,1.5,0.41,2.36c-0.34,0.87-1.15,1.43-2.11,1.43c-3.04,0-6.09,0-9.13,0
	c-0.91,0-1.6-0.42-2.03-1.21c-0.43-0.8-0.36-1.6,0.14-2.36c0.05-0.07,0.1-0.14,0.15-0.22c-0.69-0.94-0.79-1.9-0.11-2.89
	c0.05-0.08,0.04-0.26-0.02-0.34c-1.08-1.51-0.03-3.47,1.59-3.61c0.04,0,0.08-0.04,0.15-0.07c-2.15-1.81-3.16-4.1-2.89-6.88
	c0.19-1.95,1.08-3.59,2.55-4.89c3.05-2.71,7.74-2.46,10.6,0.57c2.8,2.98,2.86,8.13-0.91,11.21c0.1,0.03,0.17,0.07,0.25,0.08
	c1.64,0.3,2.44,2.04,1.56,3.44c-0.16,0.26-0.15,0.4,0.01,0.66C31.81,42.13,31.68,43.04,31.02,43.92z M24.75,37.02
	c3.35,0,6.02-2.71,6.02-6.08c0-3.27-2.74-6.01-6.02-6.02c-3.35-0.01-6.06,2.72-6.06,6.1C18.7,34.35,21.4,37.03,24.75,37.02z
	 M24.78,44.72c0,0,0-0.01,0-0.01c-1.47,0-2.94,0-4.41,0c-0.59,0-0.91,0.26-0.91,0.73c0,0.45,0.32,0.73,0.88,0.73
	c2.93,0,5.85,0,8.78-0.01c0.57,0,0.87-0.27,0.86-0.74c0-0.47-0.3-0.71-0.88-0.71C27.67,44.72,26.22,44.72,24.78,44.72z M24.69,41.69
	c0,0,0-0.01,0-0.01c-1.48,0-2.97,0-4.45,0c-0.45,0-0.73,0.24-0.77,0.64c-0.04,0.43,0.2,0.72,0.65,0.8c0.13,0.02,0.27,0.02,0.4,0.02
	c2.48,0,4.96,0,7.44,0c0.46,0,0.92-0.02,1.38-0.05c0.49-0.04,0.75-0.4,0.63-0.87c-0.1-0.39-0.39-0.52-0.78-0.52
	C27.69,41.69,26.19,41.69,24.69,41.69z M24.74,38.66c0,0,0-0.01,0-0.01c-1.5,0-3,0-4.5,0c-0.56,0-0.87,0.39-0.75,0.9
	c0.12,0.48,0.49,0.53,0.9,0.53c2.92-0.01,5.85-0.02,8.77-0.03c0.57,0,0.83-0.23,0.82-0.7c-0.01-0.46-0.28-0.68-0.84-0.69
	C27.67,38.65,26.21,38.66,24.74,38.66z"/>
<path d="M14.17,43.14c2.07,0.21,2.78,2.37,1.73,3.71c-0.46,0.58-1.07,0.88-1.82,0.88c-3.03,0-6.06,0-9.09,0
	c-1.28,0-2.26-0.96-2.32-2.22c-0.05-1.17,0.86-2.19,2.07-2.32c0.03,0,0.06-0.01,0.16-0.04c-1.92-1.6-2.99-3.61-2.97-6.1
	c0.02-2.51,1.05-4.54,3.04-6.05c3.18-2.41,7.61-1.94,10.29,1.07C17.81,34.92,18.04,39.97,14.17,43.14z M9.52,31.03
	c-3.35,0.01-6.07,2.73-6.06,6.06c0.01,3.32,2.79,6.11,6.09,6.03c3.68-0.08,6.03-3.09,6-6.11C15.53,33.91,12.99,31.05,9.52,31.03z
	 M9.5,44.72c0,0,0-0.01,0-0.01c-1.47,0-2.94,0-4.41,0c-0.53,0-0.83,0.27-0.84,0.71c-0.01,0.44,0.29,0.75,0.81,0.75
	c2.97,0,5.93,0,8.9-0.02c0.23,0,0.54-0.15,0.68-0.33c0.12-0.16,0.16-0.53,0.06-0.67c-0.15-0.21-0.46-0.4-0.71-0.41
	C12.49,44.7,10.99,44.72,9.5,44.72z"/>
<path d="M42.09,22.76c-0.15,0.16-0.32,0.41-0.56,0.56c-0.32,0.2-0.62,0.03-0.88-0.21c-0.15-0.14-0.29-0.36-0.46-0.38
	c-0.24-0.03-0.57,0.01-0.72,0.16c-0.15,0.15-0.24,0.51-0.16,0.7c0.08,0.21,0.36,0.39,0.6,0.48c0.37,0.15,0.8,0.14,1.14,0.32
	c0.78,0.41,1.2,1.08,1.21,1.98c0.01,0.91-0.41,1.58-1.17,2.06c-0.15,0.1-0.3,0.27-0.36,0.44c-0.13,0.36-0.34,0.58-0.73,0.6
	c-0.42,0.02-0.71-0.19-0.79-0.57c-0.06-0.27-0.21-0.37-0.41-0.52c-0.29-0.2-0.56-0.44-0.77-0.72c-0.29-0.38-0.2-0.85,0.15-1.1
	c0.37-0.27,0.78-0.21,1.11,0.16c0.13,0.14,0.26,0.3,0.43,0.36c0.42,0.16,0.87-0.12,0.95-0.54c0.08-0.41-0.21-0.79-0.66-0.83
	c-0.56-0.05-1.08-0.18-1.52-0.55c-1.25-1.03-1.09-2.96,0.3-3.77c0.21-0.12,0.36-0.23,0.41-0.51c0.08-0.38,0.38-0.59,0.79-0.57
	c0.39,0.02,0.6,0.24,0.73,0.6c0.06,0.17,0.2,0.34,0.35,0.44C41.54,21.68,41.96,22.01,42.09,22.76z"/>
<path d="M26.89,28.88c-0.15,0.16-0.32,0.48-0.56,0.55c-0.24,0.07-0.57-0.08-0.84-0.18c-0.12-0.05-0.17-0.28-0.29-0.32
	c-0.25-0.07-0.54-0.15-0.78-0.08c-0.32,0.08-0.47,0.41-0.36,0.72c0.07,0.22,0.28,0.41,0.47,0.57c0.1,0.08,0.28,0.07,0.43,0.08
	c1.02,0.11,1.82,0.8,2.03,1.78c0.22,1.01-0.21,1.98-1.09,2.52c-0.17,0.1-0.32,0.29-0.39,0.47c-0.14,0.38-0.4,0.6-0.79,0.6
	c-0.37-0.01-0.61-0.22-0.75-0.59c-0.08-0.19-0.26-0.35-0.41-0.51c-0.26-0.26-0.56-0.48-0.78-0.78c-0.26-0.36-0.14-0.82,0.21-1.06
	c0.34-0.23,0.75-0.18,1.05,0.13c0.05,0.05,0.09,0.12,0.14,0.18c0.25,0.27,0.54,0.36,0.88,0.2c0.35-0.16,0.45-0.47,0.38-0.82
	c-0.07-0.35-0.32-0.51-0.67-0.55c-0.19-0.02-0.38-0.04-0.57-0.08c-0.97-0.24-1.61-0.97-1.76-2c-0.12-0.81,0.37-1.74,1.13-2.23
	c0.18-0.11,0.33-0.31,0.42-0.5c0.15-0.35,0.38-0.57,0.76-0.57c0.39,0,0.66,0.2,0.75,0.57c0.06,0.28,0.23,0.41,0.45,0.54
	C26.41,27.79,26.79,28.16,26.89,28.88z"/>
<path d="M7.42,39.48c-0.02-0.5,0.16-0.73,0.47-0.87c0.31-0.15,0.58-0.07,0.82,0.14c0.12,0.11,0.19,0.31,0.32,0.36
	c0.24,0.09,0.56,0.2,0.76,0.11c0.21-0.09,0.42-0.42,0.42-0.64c-0.01-0.22-0.26-0.45-0.44-0.64c-0.08-0.08-0.25-0.08-0.38-0.08
	c-1.04-0.07-1.87-0.75-2.12-1.74c-0.25-0.99,0.19-2.04,1.09-2.56c0.21-0.12,0.36-0.23,0.41-0.51c0.07-0.37,0.38-0.58,0.75-0.57
	c0.38,0,0.67,0.22,0.74,0.59c0.05,0.28,0.21,0.37,0.4,0.51c0.32,0.25,0.63,0.54,0.86,0.87c0.24,0.34,0.09,0.78-0.25,1.01
	c-0.33,0.23-0.71,0.19-1.01-0.11c-0.07-0.07-0.13-0.17-0.2-0.24c-0.23-0.25-0.5-0.37-0.83-0.22c-0.32,0.15-0.49,0.39-0.44,0.74
	C8.86,36,9.1,36.21,9.45,36.28c0.23,0.05,0.47,0.04,0.7,0.1c0.91,0.25,1.59,1.03,1.67,1.93c0.09,0.99-0.3,1.77-1.16,2.28
	c-0.19,0.12-0.34,0.21-0.39,0.47c-0.07,0.39-0.38,0.62-0.78,0.6c-0.39-0.02-0.64-0.24-0.76-0.64c-0.05-0.16-0.18-0.32-0.32-0.41
	C7.94,40.31,7.51,39.96,7.42,39.48z"/>
</svg>
