<?xml version="1.0" encoding="utf-8"?>
<!-- Generator: Adobe Illustrator 24.3.0, SVG Export Plug-In . SVG Version: 6.00 Build 0)  -->
<svg version="1.1" id="Layer_1" xmlns="http://www.w3.org/2000/svg" xmlns:xlink="http://www.w3.org/1999/xlink" x="0px" y="0px"
	 viewBox="0 0 50 50" style="enable-background:new 0 0 50 50;" xml:space="preserve">
<path d="M23.37,1.16c0.19,0.2,0.41,0.37,0.58,0.59c1.3,1.68,2.59,3.36,3.88,5.04c0.9,1.17,0.86,2.24-0.12,3.34
	c-1.19,1.33-2.37,2.66-3.56,3.98c-1.01,1.13-2.38,1.22-3.46,0.15c-0.52-0.51-0.95-0.81-1.68-0.38c-0.34,0.2-0.8,0.22-1.21,0.33
	c0.24,4.07,0.49,8.17,0.73,12.34c4.3-2.57,8.46-2.21,12.44,0.28c0.67-0.61,1.29-1.21,1.95-1.77c3.69-3.16,8.16-3.62,12.61-1.3
	c0.63,0.33,1.23,0.72,1.82,1.12c0.56,0.38,0.68,0.82,0.38,1.24c-0.29,0.42-0.76,0.44-1.3,0.06c-1.76-1.25-3.7-2.07-5.86-2.24
	c-2.49-0.2-4.65,0.66-6.52,2.28c-0.61,0.53-1.2,1.07-1.83,1.63c0.29,0.35,0.45,0.54,0.61,0.75c0.71,0.89,1.31,1.84,1.55,2.97
	c0.04,0.18,0.07,0.37,0.04,0.55c-0.06,0.4-0.32,0.64-0.72,0.67c-0.4,0.03-0.72-0.16-0.81-0.55c-0.56-2.33-2.06-3.86-4.17-4.85
	c-3.5-1.64-6.81-1.25-9.94,0.97c-0.16,0.11-0.27,0.32-0.35,0.51c-0.31,0.72-0.55,1.48-0.92,2.17c-0.19,0.36-0.56,0.66-0.91,0.88
	c-0.39,0.24-0.83,0.07-1.04-0.29c-0.22-0.38-0.1-0.8,0.27-1.1c0.16-0.13,0.34-0.29,0.42-0.47c0.43-0.89,0.79-1.8,0.72-2.83
	c-0.2-2.93-0.36-5.87-0.53-8.81c-0.05-0.82-0.11-1.64-0.12-2.46c-0.01-0.68-0.12-1.32-0.64-1.82c-0.08-0.07-0.18-0.17-0.19-0.26
	c-0.03-0.29-0.13-0.65,0-0.86c0.13-0.21,0.49-0.34,0.77-0.38c0.74-0.11,1.5-0.13,2.24-0.25c0.25-0.04,0.5-0.24,0.69-0.42
	c0.39-0.38,0.82-0.44,1.23-0.08c0.46,0.39,0.89,0.82,1.34,1.22c0.47,0.43,0.77,0.43,1.19-0.03c1.23-1.37,2.45-2.75,3.68-4.12
	c0.27-0.3,0.35-0.63,0.09-0.96c-1.27-1.67-2.56-3.34-3.86-5.04c-1.16,0.53-2.29,1.04-3.43,1.56c-2.78,1.27-5.56,2.55-8.35,3.81
	c-0.31,0.14-0.47,0.34-0.56,0.66c-1.54,5.58-3.1,11.16-4.62,16.75c-0.78,2.89-1.5,5.8-2.17,8.72c-0.18,0.8-0.12,1.66-0.14,2.49
	c0,0.13,0.17,0.32,0.31,0.39c0.33,0.17,0.68,0.3,1.03,0.42c1.34,0.45,2.33,1.44,3.47,2.2c1.92,1.27,3.81,2.6,5.8,3.75
	c3.08,1.78,6.48,2.32,10.01,2.28c3.33-0.04,6.59-0.5,9.83-1.23c0.29-0.07,0.65-0.02,0.92,0.11c3.75,1.79,7.69,2.57,11.84,2.21
	c0.64-0.06,1.05,0.22,1.07,0.73c0.03,0.48-0.35,0.8-0.96,0.86c-4.32,0.39-8.44-0.37-12.36-2.22c-0.16-0.08-0.39-0.07-0.57-0.03
	c-3.22,0.73-6.48,1.12-9.79,1.2c-5.23,0.12-9.88-1.5-14.11-4.49c-1.12-0.8-2.26-1.57-3.35-2.42c-1-0.78-2.08-1.38-3.27-1.81
	c-1.15-0.42-1.42-0.95-1.49-2.17c-0.13-2.21,0.51-4.29,1.07-6.37c1.96-7.32,3.99-14.63,5.98-21.94c0.2-0.72,0.61-1.18,1.28-1.48
	c4.05-1.84,8.1-3.7,12.14-5.55c0.12-0.06,0.24-0.13,0.35-0.2C23,1.16,23.19,1.16,23.37,1.16z"/>
<path d="M24.67,43.56c-5.36-0.11-9.39-1.83-12.48-5.57c-0.19-0.23-0.36-0.47-0.52-0.71c-0.3-0.47-0.23-0.91,0.17-1.18
	c0.4-0.26,0.79-0.13,1.16,0.29c0.8,0.9,1.55,1.86,2.47,2.62c2.14,1.79,4.67,2.67,7.44,2.88c1.63,0.12,3.24-0.03,4.84-0.35
	c0.58-0.12,0.99,0.1,1.1,0.56c0.12,0.5-0.15,0.9-0.76,0.99C26.77,43.3,25.44,43.45,24.67,43.56z"/>
<path d="M47.88,39.92c0,0.44-0.41,0.87-0.85,0.79c-1.53-0.25-3.04-0.58-4.35-1.46c-0.51-0.34-0.94-0.76-1.09-1.39
	c-0.12-0.5,0.07-0.92,0.49-1.07c0.43-0.15,0.76,0.09,1.04,0.53c0.21,0.33,0.53,0.69,0.88,0.82c0.99,0.37,2.02,0.66,3.04,0.94
	C47.56,39.23,47.88,39.49,47.88,39.92z"/>
</svg>
