<?xml version="1.0" encoding="utf-8"?>
<!-- Generator: Adobe Illustrator 24.3.0, SVG Export Plug-In . SVG Version: 6.00 Build 0)  -->
<svg version="1.1" id="Layer_1" xmlns="http://www.w3.org/2000/svg" xmlns:xlink="http://www.w3.org/1999/xlink" x="0px" y="0px"
	 viewBox="0 0 50 50" style="enable-background:new 0 0 50 50;" xml:space="preserve">
<path d="M35.86,1.49c0.53,0.12,1.07,0.21,1.59,0.36c4.07,1.1,7.02,4.63,7.4,8.83c0.38,4.17-1.83,8.03-5.52,10
	c-1.93,1.03-3.72,2.32-5.57,3.5c-0.49,0.31-0.96,0.69-1.59,0.35c-0.62-0.34-0.62-0.92-0.61-1.52c0.01-0.41-0.01-0.82,0-1.24
	c0.01-0.35-0.15-0.58-0.46-0.72c-0.1-0.05-0.2-0.08-0.29-0.13c-0.42-0.21-0.84-0.58-1.27-0.59c-0.39-0.01-0.78,0.38-1.19,0.56
	c-0.21,0.09-0.44,0.2-0.65,0.18c-0.53-0.04-0.64,0.24-0.73,0.68c-0.39,1.83-1.39,3.26-2.89,4.36c-0.64,0.47-0.77,0.87-0.49,1.69
	c0.59-0.14,0.95,0.24,1.31,0.63c0.37,0.4,0.72,0.82,1.11,1.21c0.12,0.12,0.31,0.2,0.48,0.24c1.63,0.44,3.26,0.88,4.9,1.3
	c1.67,0.43,2.55,1.55,2.64,3.28c0.14,2.93,0.34,5.85,0.51,8.78c0.07,1.25,0.16,2.5,0.21,3.75c0.04,0.93-0.45,1.42-1.38,1.42
	c-9,0-17.99,0-26.99,0c-0.95,0-1.44-0.56-1.38-1.52c0.18-3.03,0.35-6.07,0.53-9.1c0.08-1.3,0.12-2.59,0.26-3.88
	c0.15-1.37,0.96-2.26,2.27-2.63c1.61-0.46,3.24-0.85,4.86-1.28c0.43-0.11,0.79-0.28,1.07-0.68c0.33-0.47,0.77-0.87,1.22-1.23
	c0.25-0.2,0.62-0.27,1.04-0.44c0-0.26,0.01-0.64-0.01-1.02c0-0.08-0.09-0.19-0.17-0.24c-1.92-1.23-3.06-2.98-3.43-5.23
	c-0.29-0.05-0.58-0.08-0.86-0.15c-2.38-0.63-3.28-3.51-1.66-5.36c0.2-0.23,0.26-0.45,0.26-0.73c0.02-1.24-0.04-2.48,0.11-3.7
	c0.39-3.27,3.47-6.08,6.76-6.24c0.91-0.05,1.83-0.04,2.75-0.03c1.26,0.02,2.3,0.54,3.14,1.47c0.17,0.2,0.31,0.21,0.58,0.16
	c0.68-0.13,1.38-0.15,2.06-0.25c0.18-0.02,0.41-0.11,0.51-0.24c1.76-2.55,4.14-4.09,7.22-4.52c0.06-0.01,0.11-0.05,0.16-0.08
	C34.4,1.49,35.13,1.49,35.86,1.49z M10.01,39.41c0-0.2,0-0.35,0-0.51c0-0.64,0-1.28,0-1.92c0-0.36-0.04-0.77,0.48-0.76
	c0.49,0,0.45,0.4,0.45,0.74c0,0.11,0,0.21,0,0.32c0,3.22,0,6.45,0,9.67c0,0.18,0,0.35,0,0.54c6.01,0,11.96,0,17.96,0
	c0-0.2,0-0.38,0-0.56c0-3.28,0-6.57,0-9.85c0-0.14-0.01-0.28,0.01-0.41c0.03-0.28,0.18-0.46,0.48-0.45c0.3,0.01,0.44,0.18,0.44,0.47
	c0,0.61,0,1.22,0,1.83c0,0.3,0,0.6,0,0.89c1.22,0,2.38,0,3.54,0c-0.1-1.77-0.17-3.51-0.31-5.24c-0.09-1.1-0.74-1.76-1.8-2.05
	c-1.75-0.46-3.5-0.94-5.25-1.39c-0.12-0.03-0.31,0.05-0.41,0.14c-0.82,0.8-1.62,1.62-2.44,2.42c-0.6,0.59-1.09,0.59-1.69-0.01
	c-0.38-0.38-0.76-0.75-1.13-1.14c-0.29-0.31-0.67-0.3-0.96,0.01c-0.38,0.4-0.76,0.79-1.16,1.18c-0.57,0.55-1.07,0.54-1.63-0.01
	c-0.6-0.59-1.24-1.14-1.77-1.79c-0.58-0.71-1.13-0.86-2.04-0.54c-1.39,0.49-2.85,0.77-4.28,1.13c-0.98,0.25-1.72,0.92-1.79,1.79
	c-0.15,1.82-0.24,3.65-0.35,5.5C7.6,39.41,8.78,39.41,10.01,39.41z M32.56,23.76c0.25-0.14,0.38-0.2,0.51-0.28
	c2.19-1.36,4.36-2.74,6.56-4.09c3.21-1.97,4.89-5.96,4.15-9.6c-0.94-4.65-5.53-8.1-10.64-7.2c-4.82,0.85-8.28,5.68-7.4,10.5
	c0.6,3.29,2.44,5.64,5.52,6.97c0.91,0.39,1.32,1.02,1.31,1.98C32.55,22.56,32.56,23.09,32.56,23.76z M13.55,14.85
	c-0.01,0.14-0.03,0.22-0.03,0.29c0,1.71-0.01,3.42,0.01,5.13c0,0.36,0.05,0.73,0.12,1.09c0.66,3.16,3.22,5.2,6.45,5.15
	c2.97-0.04,5.69-2.43,6.03-5.37c0.13-1.12,0.06-2.25,0.11-3.38c0.02-0.44-0.07-0.82-0.3-1.21c-0.28-0.47-0.57-0.97-0.67-1.49
	c-0.17-0.84-0.62-1.16-1.43-1.38c-0.94-0.26-1.81-0.81-2.74-1.25C19.14,14.67,16.53,15.27,13.55,14.85z M6.34,40.38
	c-0.08,1.31-0.17,2.59-0.24,3.87c-0.05,0.93-0.09,1.86-0.14,2.79c-0.01,0.23,0.01,0.45,0.31,0.46c1.23,0.01,2.46,0,3.7,0
	c0-2.4,0-4.75,0-7.12C8.76,40.38,7.59,40.38,6.34,40.38z M33.42,40.39c-1.21,0-2.37,0-3.55,0c0,2.38,0,4.72,0,7.1
	c1.22,0,2.41,0,3.6,0c0.31,0,0.37-0.21,0.35-0.47c-0.1-1.61-0.19-3.23-0.28-4.84C33.5,41.58,33.46,40.99,33.42,40.39z M17.26,26.99
	c-0.06,0.41-0.09,0.79-0.19,1.15c-0.07,0.25-0.01,0.39,0.16,0.55c0.72,0.7,1.42,1.42,2.14,2.14c0.22,0.22,0.77,0.25,0.99,0.04
	c0.76-0.75,1.51-1.51,2.26-2.27c0.07-0.07,0.12-0.22,0.1-0.32c-0.06-0.42-0.14-0.83-0.22-1.28C20.78,27.61,19.02,27.63,17.26,26.99z
	 M12.54,20.16c0-1.59,0-3.14,0-4.7c-1.42,0.16-2.35,1.18-2.28,2.46C10.32,19.18,11.32,20.18,12.54,20.16z M23.89,28.75
	c-0.95,0.94-1.88,1.86-2.8,2.76c0.41,0.41,0.83,0.82,1.19,1.18c0.92-0.9,1.86-1.82,2.79-2.73C24.69,29.56,24.28,29.15,23.89,28.75z
	 M18.64,31.49c-0.89-0.89-1.81-1.81-2.68-2.67c-0.4,0.4-0.83,0.83-1.2,1.21c0.88,0.87,1.79,1.78,2.69,2.68
	C17.83,32.31,18.24,31.89,18.64,31.49z M28.67,19.75c-0.54-0.49-0.99-0.91-1.5-1.38c0,0.51,0,0.94,0,1.38
	c0,0.13,0.01,0.27,0.03,0.53C27.7,20.09,28.16,19.93,28.67,19.75z"/>
<path d="M34.79,13.41c1.22,0,2.44-0.01,3.66,0c1.04,0.01,1.39,0.57,0.97,1.52c-0.81,1.83-2.71,3.09-4.68,3.02
	c-2.16-0.08-3.72-1.11-4.63-3.08c-0.4-0.87-0.03-1.45,0.93-1.46C32.29,13.4,33.54,13.41,34.79,13.41z M31.13,14.48
	c0.34,1.37,2.07,2.48,3.81,2.46c1.5-0.02,3.21-1.22,3.48-2.46C35.99,14.48,33.56,14.48,31.13,14.48z"/>
<path d="M30.96,8.07c1.33,0,2.45,1.09,2.46,2.37c0,0.31-0.07,0.56-0.42,0.59c-0.36,0.03-0.52-0.18-0.56-0.52
	c-0.11-0.89-0.71-1.48-1.5-1.49c-0.77-0.01-1.36,0.53-1.52,1.42c-0.06,0.35-0.17,0.65-0.6,0.58c-0.42-0.07-0.44-0.41-0.41-0.75
	C28.57,9.01,29.65,8.06,30.96,8.07z"/>
<path d="M38.65,8.07c1.34,0,2.45,1.07,2.47,2.36c0.01,0.33-0.07,0.59-0.45,0.61c-0.36,0.01-0.49-0.22-0.53-0.55
	c-0.09-0.84-0.71-1.43-1.49-1.45c-0.75-0.02-1.37,0.53-1.52,1.36c-0.01,0.05-0.02,0.09-0.03,0.13c-0.04,0.33-0.2,0.56-0.57,0.5
	c-0.36-0.05-0.44-0.33-0.42-0.65C36.17,9.11,37.31,8.06,38.65,8.07z"/>
<path d="M20.02,23c-1.03-0.03-1.84-0.29-2.5-0.94c-0.23-0.22-0.38-0.48-0.12-0.76c0.27-0.29,0.53-0.16,0.79,0.08
	c0.98,0.9,2.4,0.89,3.4-0.02c0.25-0.23,0.5-0.33,0.76-0.07c0.26,0.27,0.12,0.52-0.1,0.76C21.69,22.63,20.79,23,20.02,23z"/>
<path d="M16.8,16.73c0.45,0.25,0.86,0.43,1.2,0.7c0.11,0.09,0.13,0.5,0.02,0.61c-0.11,0.12-0.48,0.14-0.62,0.04
	c-0.45-0.33-0.83-0.33-1.28,0c-0.14,0.1-0.49,0.08-0.63-0.03c-0.24-0.18-0.19-0.5,0.05-0.66C15.92,17.14,16.34,16.97,16.8,16.73z"/>
<path d="M23,16.73c0.45,0.24,0.86,0.41,1.22,0.66c0.25,0.16,0.3,0.48,0.05,0.66c-0.15,0.11-0.5,0.13-0.63,0.03
	c-0.45-0.33-0.83-0.32-1.28,0c-0.14,0.1-0.49,0.07-0.63-0.03c-0.24-0.18-0.19-0.5,0.05-0.66C22.14,17.14,22.55,16.97,23,16.73z"/>
</svg>
