<?xml version="1.0" encoding="utf-8"?>
<!-- Generator: Adobe Illustrator 24.3.0, SVG Export Plug-In . SVG Version: 6.00 Build 0)  -->
<svg version="1.1" id="Layer_1" xmlns="http://www.w3.org/2000/svg" xmlns:xlink="http://www.w3.org/1999/xlink" x="0px" y="0px"
	 viewBox="0 0 50 50" style="enable-background:new 0 0 50 50;" xml:space="preserve">
<style type="text/css">
	.st0{fill:#FFFFFF;}
</style>
<path d="M41.25,2.27c0.82,0.22,1.61,0.49,2.27,1.06c1.76,1.55,2.06,4.05,0.73,6.25c-0.93,1.54-2.24,2.69-3.75,3.63
	c-1.06,0.66-2.17,1.22-3.29,1.78c-0.24,0.12-0.62,0.1-0.88,0c-0.77-0.33-1.51-0.73-2.32-1.12c0,0.93,0,1.82,0,2.71
	c0,0.57,0,1.13,0,1.7c0,0.48-0.26,0.78-0.66,0.78c-0.4,0-0.67-0.29-0.67-0.77c0-1.62-0.01-3.24,0.01-4.86c0-0.32-0.1-0.51-0.36-0.69
	c-1-0.71-1.91-1.52-2.62-2.53c-1.4-1.99-1.73-4.04-0.3-6.22c-1-0.39-1.99-0.51-2.98-0.12c-0.45,0.18-0.85,0.47-1.25,0.75
	c-0.5,0.35-0.88,0.42-1.34,0.04c-1.02-0.82-2.17-1.06-3.45-1.04c-3.27,0.04-6.55,0.01-9.82,0.02C8.18,3.62,6.21,5.07,5.6,7.29
	C5.45,7.84,5.39,8.43,5.39,9c-0.02,4.49-0.01,8.99-0.01,13.48c0,1.2,0.32,1.49,1.53,1.37c-0.06-0.91-0.12-1.82-0.18-2.74
	c-0.01-0.16-0.03-0.37,0.06-0.47c0.17-0.2,0.39-0.43,0.62-0.48c0.31-0.06,0.58,0.15,0.64,0.49c0.05,0.26,0.05,0.53,0.05,0.8
	c-0.03,5.09,3.52,9.37,8.17,10.59c6.25,1.65,12.67-2.58,13.57-8.98c0.09-0.63,0.13-1.27,0.14-1.91c0.02-1.95,0.01-3.9,0.01-5.85
	c0-0.16,0-0.32,0-0.5c-0.82-0.11-1.62-0.18-2.4-0.34c-2.38-0.48-3.63-1.21-5.43-3.09c-4.27,2.65-9.04,3.37-14.04,3.42
	c0,0.49,0,0.94,0,1.4c0,0.61,0.01,1.22,0,1.83c-0.01,0.52-0.28,0.8-0.71,0.79c-0.4-0.01-0.65-0.3-0.66-0.79
	c-0.01-1.12-0.01-2.23,0-3.35c0-0.85,0.38-1.22,1.23-1.23c2.89-0.01,5.75-0.27,8.55-1.06c1.77-0.5,3.43-1.23,4.99-2.2
	c0.76-0.47,1.12-0.41,1.68,0.29c1.25,1.57,2.93,2.38,4.87,2.7c0.76,0.13,1.53,0.19,2.3,0.27c0.58,0.06,0.98,0.43,0.98,1.01
	c-0.02,2.81-0.05,5.62-0.09,8.43c0,0.32-0.08,0.64-0.14,1c0.24,0,0.46,0.01,0.68,0c0.53-0.04,0.88-0.39,0.89-0.93
	c0.02-0.59,0-1.19,0.01-1.79c0-0.49,0.25-0.77,0.67-0.77c0.42,0,0.66,0.27,0.66,0.77c0,0.62,0.01,1.25,0,1.87
	c-0.02,1.21-0.98,2.16-2.2,2.18c-0.34,0-0.68,0-1.07,0c-0.53,1.57-1.32,3-2.41,4.26c-1.08,1.25-2.37,2.24-3.91,3.03
	c0.22,0.06,0.37,0.1,0.52,0.14c2.83,0.81,4.83,3.38,4.87,6.33c0.03,2.5,0.01,5,0.01,7.5c0,0.92-0.59,1.5-1.51,1.5
	c-1.12,0-2.23,0-3.35,0c-0.52,0-0.83-0.25-0.84-0.66c-0.01-0.42,0.31-0.68,0.86-0.68c1.14,0,2.29,0,3.47,0
	c0.01-0.19,0.02-0.35,0.02-0.51c0-2.29,0-4.58,0-6.87c0-3.15-2.33-5.48-5.49-5.49c-0.27,0-0.53,0-0.83,0
	c-0.04,0.48-0.04,0.94-0.11,1.39c-0.23,1.52-1.55,2.62-3.09,2.58c-1.57-0.04-2.84-1.2-2.99-2.76c-0.04-0.38-0.04-0.77-0.06-1.15
	c-2.86-0.46-5.47,1.25-6.17,3.98c-0.12,0.46-0.17,0.94-0.18,1.41c-0.02,2.32,0,4.64-0.02,6.96c0,0.37,0.11,0.47,0.48,0.47
	c3.96-0.01,7.91-0.01,11.87,0c0.2,0,0.47,0,0.58,0.12c0.16,0.17,0.3,0.48,0.26,0.68c-0.04,0.2-0.32,0.37-0.52,0.51
	c-0.08,0.06-0.23,0.01-0.35,0.01c-4,0-8,0-12,0c-1.09,0-1.65-0.55-1.65-1.64c0-2.38,0-4.76,0-7.14c0-3.18,2.03-5.79,5.11-6.59
	c0.07-0.02,0.14-0.05,0.26-0.1c-0.25-0.14-0.46-0.27-0.67-0.39c-2.6-1.52-4.43-3.7-5.46-6.53C7.35,25.28,7.2,25.2,6.89,25.2
	c-0.4,0.01-0.81,0.01-1.19-0.08c-0.99-0.24-1.66-1.09-1.66-2.11c-0.01-4.86-0.03-9.73,0.01-14.59C4.06,5.5,6.36,2.89,9.28,2.37
	c0.1-0.02,0.19-0.06,0.28-0.09c4.14,0,8.27,0,12.41,0c0.84,0.34,1.68,0.68,2.47,0.99c0.79-0.32,1.62-0.66,2.44-0.99
	c0.54,0,1.07,0,1.61,0c0.65,0.21,1.3,0.43,1.96,0.63c0.06,0.02,0.15,0.01,0.21-0.01c0.53-0.2,1.06-0.41,1.58-0.62
	c0.51,0,1.01,0,1.52,0c0.18,0.05,0.37,0.1,0.55,0.14c0.93,0.21,1.74,0.66,2.43,1.23c0.54-0.32,1.02-0.65,1.54-0.89
	c0.46-0.21,0.97-0.33,1.46-0.48C40.24,2.27,40.74,2.27,41.25,2.27z M35.96,4.81c-0.71-0.72-1.74-1.15-2.8-1.2
	c-1.7-0.08-3.03,1.02-3.28,2.69c-0.19,1.28,0.31,2.34,1.07,3.29c1.5,1.89,3.54,3.04,5.68,4.05c0.1,0.05,0.26,0.02,0.37-0.03
	c1.43-0.67,2.8-1.44,4.03-2.44c1.07-0.87,2.02-1.85,2.48-3.2c0.64-1.84-0.23-3.67-1.97-4.2c-2.01-0.61-4.19,0.58-4.76,2.63
	c0.43,0.29,0.87,0.6,1.31,0.89c0.36,0.24,0.47,0.55,0.3,0.96c-0.32,0.8-0.61,1.61-0.93,2.41c-0.19,0.48-0.53,0.67-0.93,0.52
	c-0.38-0.14-0.52-0.53-0.34-1.01c0.25-0.66,0.51-1.32,0.76-1.97c-0.04-0.05-0.05-0.08-0.07-0.1c-0.35-0.24-0.71-0.49-1.07-0.73
	C35.1,6.9,35.06,6.76,35.42,6C35.6,5.61,35.78,5.22,35.96,4.81z M17.31,33.71c0,0.34-0.01,0.71,0,1.07
	c0.05,1.06,1.12,1.84,2.14,1.54c1.12-0.33,1.49-1.24,1.23-2.62C19.57,33.71,18.46,33.71,17.31,33.71z"/>
<path class="st0" d="M32.23,2.27c-0.53,0.21-1.05,0.42-1.58,0.62c-0.06,0.02-0.15,0.03-0.21,0.01c-0.65-0.21-1.3-0.42-1.96-0.63
	C29.73,2.27,30.98,2.27,32.23,2.27z"/>
<path d="M23.86,26.81c-0.14,0.17-0.28,0.45-0.48,0.52c-0.2,0.07-0.49-0.04-0.72-0.13c-0.11-0.05-0.17-0.23-0.24-0.36
	c-0.71-1.38-1.86-2.12-3.4-2.12c-1.54,0-2.69,0.75-3.39,2.13c-0.18,0.36-0.4,0.64-0.85,0.54c-0.46-0.11-0.64-0.54-0.41-1.03
	c0.72-1.56,1.94-2.53,3.61-2.9c2.27-0.51,4.63,0.66,5.65,2.76C23.71,26.38,23.76,26.55,23.86,26.81z"/>
<path d="M23.96,20.91c-0.87,0-1.68-0.6-1.94-1.44c-0.13-0.41,0.04-0.77,0.4-0.91c0.34-0.12,0.7,0.03,0.85,0.43
	c0.13,0.32,0.32,0.53,0.68,0.54c0.37,0,0.55-0.22,0.68-0.53c0.17-0.4,0.51-0.56,0.85-0.43c0.37,0.14,0.53,0.49,0.4,0.9
	C25.65,20.31,24.84,20.91,23.96,20.91z"/>
<path d="M14.1,20.91c-0.83,0-1.65-0.57-1.91-1.35c-0.15-0.45-0.02-0.81,0.35-0.98c0.37-0.16,0.71,0,0.91,0.46
	c0.13,0.3,0.32,0.49,0.66,0.49c0.34,0,0.53-0.19,0.66-0.5c0.18-0.45,0.54-0.61,0.91-0.45c0.38,0.17,0.5,0.52,0.33,0.97
	C15.72,20.36,14.94,20.91,14.1,20.91z"/>
</svg>
