<?xml version="1.0" encoding="utf-8"?>
<!-- Generator: Adobe Illustrator 24.3.0, SVG Export Plug-In . SVG Version: 6.00 Build 0)  -->
<svg version="1.1" id="Layer_1" xmlns="http://www.w3.org/2000/svg" xmlns:xlink="http://www.w3.org/1999/xlink" x="0px" y="0px"
	 viewBox="0 0 50 50" style="enable-background:new 0 0 50 50;" xml:space="preserve">
<path d="M10.27,7.03c0.06-0.68,0.06-0.68,0.72-0.68c1.67,0,3.34-0.01,5.01,0.01c0.27,0,0.4-0.06,0.52-0.34
	c0.3-0.7,0.86-1.09,1.64-1.1c0.7-0.01,1.4,0,2.1,0c0.82,0,1.4,0.38,1.71,1.13c0.11,0.27,0.26,0.31,0.5,0.3c1.67-0.01,3.34,0,5.01,0
	c0.68,0,0.68,0,0.73,0.69c0.12,0.01,0.25,0.02,0.38,0.02c1.01,0,2.03,0,3.04,0c1.19,0,1.93,0.73,1.93,1.91
	c0,3.46,0.01,6.92-0.01,10.37c0,0.34,0.07,0.61,0.34,0.81c0.3,0.22,0.4,0.51,0.39,0.89c-0.03,1.06-0.02,2.12,0,3.17
	c0.01,0.36-0.08,0.64-0.37,0.85c-0.29,0.21-0.37,0.49-0.37,0.85c0.02,2.62,0.01,5.25,0.01,7.87c0,0.16,0,0.33,0,0.54
	c1.71-0.01,3.2,0.51,4.36,1.8c0.52-0.31,1.04-0.59,1.54-0.9c0.81-0.51,1.69-0.58,2.58-0.31c0.87,0.26,1.72,0.58,2.58,0.86
	c0.3,0.1,0.4,0.29,0.4,0.61c-0.01,2.67,0,5.34-0.01,8c0,0.51-0.08,0.59-0.6,0.59c-0.73,0-1.46-0.03-2.19,0.01
	c-0.81,0.04-1.49-0.23-1.99-0.82c-0.48-0.56-0.95-0.75-1.74-0.65c-2.17,0.26-4.27-0.24-6.25-1.12c-0.99-0.44-1.92-1-2.89-1.49
	c-0.23-0.11-0.5-0.2-0.75-0.2c-7.21-0.01-14.43-0.01-21.64-0.01c-1.31,0-2-0.7-2-2.01c0-9.87,0-19.73,0-29.6
	c0-1.31,0.69-2.01,2-2.01c1.07,0,2.15,0,3.22-0.01C10.17,7.06,10.2,7.05,10.27,7.03z M30.67,9.92c-0.97,0-1.91,0.01-2.85-0.01
	c-0.27,0-0.43,0.08-0.59,0.3c-0.94,1.22-2.19,1.85-3.73,1.86c-2.86,0-5.72,0-8.58,0c-1.29,0-2.45-0.42-3.26-1.4
	C11.11,10,10.52,9.86,9.75,9.91C9.1,9.96,8.45,9.92,7.82,9.92c0,9.34,0,18.62,0,27.87c5.56,0,11.07,0,16.61,0
	c-0.11-1.03-0.23-2.01-0.32-3.01c-0.1-1.26-0.17-2.53,0.16-3.77c0.3-1.15,0.6-2.3,0.9-3.45c0.13-0.49,0.46-1.02,0.35-1.44
	c-0.12-0.44-0.68-0.75-1.01-1.15c-0.14-0.17-0.26-0.41-0.26-0.61c-0.03-1.15-0.03-2.29,0-3.44c0.01-0.22,0.12-0.49,0.28-0.65
	c0.76-0.8,1.56-1.56,2.32-2.35c0.22-0.22,0.44-0.3,0.75-0.3c0.89,0.02,1.79,0.01,2.68,0c0.13,0,0.25-0.02,0.38-0.03
	C30.67,15.03,30.67,12.51,30.67,9.92z M26.18,26.71c-0.22,0.81-0.45,1.57-0.65,2.34c-0.42,1.61-0.93,3.21-0.75,4.91
	c0.13,1.26,0.32,2.51,0.39,3.77c0.04,0.65,0.33,0.89,0.9,0.95c1.32,0.14,2.4,0.78,3.49,1.49c2.19,1.43,4.57,2.41,7.21,2.63
	c0.63,0.05,1.28,0.01,1.98,0.01c-0.57-0.6-1.05-1.1-1.54-1.6c-0.17-0.18-0.23-0.35-0.04-0.54c0.18-0.19,0.37-0.15,0.55,0.02
	c0.07,0.07,0.15,0.14,0.23,0.22c0.85,0.85,1.69,1.73,2.57,2.55c0.34,0.32,0.75,0.69,1.17,0.75c0.84,0.12,1.71,0.03,2.56,0.03
	c0.02-0.1,0.03-0.14,0.03-0.18c0-2.44,0.01-4.89-0.01-7.33c0-0.14-0.16-0.35-0.29-0.4c-0.73-0.26-1.46-0.52-2.2-0.71
	c-0.39-0.1-0.87-0.19-1.22-0.05c-0.74,0.28-1.43,0.7-2.09,1.05c0,0.14-0.01,0.18,0,0.2c0.13,0.24,0.17,0.51-0.13,0.59
	c-0.14,0.04-0.42-0.1-0.53-0.25c-0.81-1.11-1.85-1.82-3.23-2.04c-1.23-0.19-2.39,0.06-3.55,0.42c-0.7,0.22-1.27,0.52-1.39,1.34
	c-0.04,0.27-0.2,0.51-0.52,0.38c-0.32-0.13-0.22-0.39-0.15-0.65c0.16-0.53,0.32-1.05,0.43-1.59c0.2-1.02,0.17-2-0.38-2.94
	c-0.25-0.43-0.42-0.92-0.55-1.41c-0.25-0.99-0.45-1.99-0.68-3.04C27.01,27.86,26.74,27.09,26.18,26.71z M24.46,38.67
	c0.02-0.04,0.04-0.09,0.06-0.13c-0.18,0-0.35,0-0.53,0c-5.42,0-10.85,0-16.27,0c-0.61,0-0.65-0.04-0.65-0.62c0-9.36,0-18.72,0-28.08
	c0-0.59,0.04-0.62,0.65-0.62c0.95,0,1.9,0,2.87,0c-0.12-0.49-0.22-0.95-0.34-1.43c-1.09,0-2.18,0-3.26,0c-0.95,0-1.35,0.4-1.35,1.36
	c0,9.82,0,19.65,0,29.47c0,0.98,0.39,1.37,1.39,1.37c6.75,0,13.5,0,20.25,0c0.14,0,0.28,0,0.41,0c-0.22-0.18-0.45-0.28-0.68-0.35
	c-0.62-0.16-1.25-0.28-1.85-0.47C24.9,39.07,24.69,38.84,24.46,38.67z M11.02,7.06c-0.15,2.39,1.62,4.28,4.01,4.29
	c2.8,0.02,5.6,0.02,8.4-0.01c0.5,0,1.01-0.1,1.48-0.27c1.65-0.59,2.79-2.45,2.49-4.02c-0.15,0-0.32,0-0.48,0c-1.67,0-3.34,0-5,0
	c-0.34,0-0.51-0.1-0.56-0.47c-0.09-0.63-0.5-0.95-1.14-0.97c-0.64-0.01-1.28-0.01-1.92,0c-0.69,0.01-1.08,0.32-1.19,1.01
	c-0.05,0.32-0.21,0.42-0.51,0.42c-0.94-0.01-1.88,0-2.81,0C12.86,7.06,11.96,7.06,11.02,7.06z M33.53,22.84
	c0-0.79,0.16-1.44-0.04-1.94c-0.21-0.51-0.78-0.87-1.2-1.3c-0.02-0.02-0.05-0.04-0.06-0.06c-0.72-1.01-1.67-1.41-2.91-1.22
	c-0.6,0.09-1.29-0.14-1.81,0.08c-0.52,0.22-0.85,0.86-1.33,1.23c-1.01,0.76-1.41,1.7-1.23,2.96c0.08,0.58-0.14,1.26,0.07,1.77
	c0.22,0.52,0.86,0.85,1.22,1.34c0.77,1.02,1.73,1.29,2.99,1.29c1.3,0,2.2-0.35,3.09-1.3C33.15,24.77,33.91,23.96,33.53,22.84z
	 M32.72,19.04c0.03-0.02,0.07-0.04,0.1-0.05c0-0.15,0-0.29,0-0.44c0-1.85,0-3.69,0-5.54c0-1.34,0-2.68,0-4.02
	c0-0.69-0.38-1.18-1.01-1.2c-1.2-0.04-2.41-0.01-3.61-0.01c-0.11,0.48-0.22,0.94-0.33,1.43c0.94,0,1.86,0,2.78,0
	c0.73,0,0.73,0,0.73,0.71c0,2.46,0,4.91,0.01,7.37c0,0.18,0.05,0.39,0.15,0.52C31.92,18.24,32.32,18.63,32.72,19.04z M32.78,34.39
	c0-2.73,0-5.44,0-8.22c-0.41,0.42-0.79,0.76-1.11,1.14c-0.15,0.17-0.27,0.43-0.27,0.65c-0.02,2.1-0.01,4.2-0.01,6.29
	c0,0.13,0.01,0.26,0.02,0.4C31.88,34.56,32.31,34.48,32.78,34.39z M28.59,27.65c0.19,1.49,0.44,2.93,1.13,4.23
	c0.47,0.9,0.58,1.83,0.46,2.81c-0.02,0.12-0.02,0.24-0.03,0.37c0.43-0.02,0.54-0.21,0.54-0.58c-0.02-2.14-0.01-4.29-0.01-6.44
	c0-0.13-0.02-0.26-0.03-0.4C29.97,27.65,29.32,27.65,28.59,27.65z"/>
<path d="M16.34,33.53c-1.94,0-3.87,0-5.81,0c-0.54,0-0.6-0.05-0.6-0.58c0-0.6,0.01-1.19,0-1.79c-0.01-0.34,0.13-0.49,0.48-0.49
	c3.98,0,7.96,0,11.94,0c0.35,0,0.47,0.17,0.47,0.5c-0.01,0.58,0,1.16,0,1.74c0,0.57-0.05,0.62-0.61,0.62
	C20.24,33.53,18.29,33.53,16.34,33.53z M22.07,32.8c0-0.49,0-0.94,0-1.38c-3.82,0-7.6,0-11.39,0c0,0.48,0,0.93,0,1.38
	C14.49,32.8,18.27,32.8,22.07,32.8z"/>
<path d="M15.7,20.66c1.71,0,3.42,0,5.14,0c0.51,0,0.6,0.09,0.61,0.59c0,0.58,0,1.16,0,1.74c0,0.37-0.15,0.53-0.54,0.53
	c-3.48-0.01-6.97-0.01-10.45,0c-0.38,0-0.54-0.15-0.53-0.53c0.02-0.6,0.02-1.19,0-1.79c-0.01-0.4,0.14-0.56,0.55-0.55
	C12.22,20.67,13.96,20.66,15.7,20.66z M20.67,21.4c-3.35,0-6.67,0-9.99,0c0,0.48,0,0.94,0,1.37c3.35,0,6.67,0,9.99,0
	C20.67,22.3,20.67,21.86,20.67,21.4z"/>
<path d="M19.23,15c0.7-0.03,1.37-0.06,2.04-0.11c0.12-0.01,0.24-0.11,0.35-0.18c0.76-0.46,1.52-0.93,2.29-1.39
	c0.25-0.15,0.53-0.35,0.73,0.01c0.2,0.35-0.13,0.49-0.37,0.63c-0.76,0.46-1.52,0.92-2.27,1.38c0.31,0.9,0.18,1.42-0.52,2.02
	c-0.57,0.49-1.21,0.82-1.98,0.78c-0.38-0.02-0.77-0.16-0.85-0.52c-0.05-0.25,0.1-0.61,0.28-0.82c0.32-0.38,0.73-0.69,1.06-1.12
	c-0.35,0.15-0.71,0.29-1.06,0.44c-0.15,0.07-0.28,0.19-0.43,0.23c-0.15,0.04-0.38,0.05-0.47-0.04c-0.09-0.09-0.09-0.33-0.04-0.47
	c0.16-0.38,0.37-0.74,0.55-1.12c0.06-0.12,0.07-0.25,0.14-0.49c-0.3,0.08-0.54,0.09-0.73,0.19c-1.07,0.6-2.14,1.22-3.2,1.84
	c-0.13,0.07-0.24,0.22-0.37,0.24c-0.16,0.03-0.34-0.03-0.51-0.05c0.04-0.18,0.01-0.43,0.12-0.52c0.32-0.28,0.69-0.52,1.06-0.74
	c0.88-0.5,1.77-0.97,2.65-1.45c0.08-0.04,0.17-0.07,0.25-0.09c0.4-0.12,0.82-0.25,1.18,0.08c0.37,0.34,0.25,0.76,0.12,1.17
	C19.23,14.95,19.22,15.01,19.23,15z M21.46,15.87c-0.05-0.02-0.1-0.04-0.15-0.07c-0.66,0.48-1.37,0.91-1.88,1.57
	c0.78,0.03,1.39-0.28,1.84-0.87C21.39,16.34,21.39,16.09,21.46,15.87z"/>
<path d="M14.85,25.67c1.42,0,2.83,0,4.25,0c0.54,0,0.6,0.06,0.61,0.58c0,0.57,0,1.13,0,1.7c0,0.52-0.07,0.58-0.61,0.58
	c-2.86,0-5.72,0-8.58,0.01c-0.42,0-0.6-0.13-0.58-0.56c0.02-0.58,0.02-1.16,0-1.74c-0.02-0.44,0.17-0.57,0.59-0.56
	C11.96,25.68,13.4,25.67,14.85,25.67z M18.95,26.41c-2.79,0-5.54,0-8.28,0c0,0.47,0,0.92,0,1.38c2.77,0,5.52,0,8.28,0
	C18.95,27.32,18.95,26.88,18.95,26.41z"/>
<path d="M35.22,40.41c-1.61-0.05-3-0.52-4.29-1.32c-0.21-0.13-0.35-0.3-0.2-0.55c0.15-0.24,0.36-0.2,0.58-0.07
	c1.37,0.83,2.82,1.3,4.45,1.17c0.14-0.01,0.3,0.19,0.45,0.3c-0.12,0.13-0.23,0.33-0.38,0.39C35.62,40.41,35.37,40.39,35.22,40.41z"
	/>
<path d="M19.21,8.49c-0.43,0-0.86-0.01-1.29,0c-0.34,0.01-0.49-0.15-0.48-0.49c0.01-0.33-0.01-0.65,0.01-0.98
	c0.02-0.58,0.45-1.01,1.02-1.03c0.51-0.02,1.01-0.02,1.52,0c0.58,0.02,1,0.45,1.03,1.02c0.01,0.34,0,0.68,0,1.03
	c0,0.32-0.15,0.46-0.47,0.45C20.1,8.49,19.66,8.49,19.21,8.49z M20.3,7.76c0-0.14,0-0.26,0-0.38c0-0.6-0.08-0.68-0.66-0.68
	c-0.33,0-0.65,0.01-0.98,0c-0.35-0.01-0.52,0.16-0.51,0.51c0,0.17,0,0.35,0,0.54C18.88,7.76,19.55,7.76,20.3,7.76z"/>
</svg>
