<?xml version="1.0" encoding="utf-8"?>
<!-- Generator: Adobe Illustrator 24.3.0, SVG Export Plug-In . SVG Version: 6.00 Build 0)  -->
<svg version="1.1" id="Layer_1" xmlns="http://www.w3.org/2000/svg" xmlns:xlink="http://www.w3.org/1999/xlink" x="0px" y="0px"
	 viewBox="0 0 50 50" style="enable-background:new 0 0 50 50;" xml:space="preserve">
<style type="text/css">
	.st0{fill:#FFFFFF;}
</style>
<path d="M1.28,11.77c1.73,0,3.38,0,5.09,0c0-1.97,0-3.93,0-5.91c10.92,0,21.79,0,32.68,0c0,5.9,0,11.79,0,17.71
	c-0.44,0-0.88,0-1.36,0c0-5.43,0-10.86,0-16.32c-9.97,0-19.89,0-29.89,0c0,0.18,0,0.37,0,0.56c0,7.44,0,14.88,0,22.33
	c0,0.83-0.03,1.64-0.53,2.45c7.19,0,14.31,0,21.45,0c0,0.51,0,0.95,0,1.45c-0.18,0-0.35,0-0.51,0c-7.85,0-15.69,0.01-23.54-0.01
	c-1.31,0-2.4-0.59-3.05-1.77c-0.2-0.36-0.32-0.81-0.32-1.22c-0.02-6.23-0.01-12.47-0.01-18.71C1.28,12.16,1.28,11.99,1.28,11.77z
	 M2.58,13.2c0,0.22,0,0.39,0,0.56c0,1.9,0,3.81,0,5.71c0,3.67,0,7.33,0,11c0,0.99,0.48,1.72,1.29,1.99c1.27,0.43,2.52-0.5,2.52-1.9
	c0-5.66,0-11.33,0-16.99c0-0.12-0.02-0.24-0.03-0.38C5.1,13.2,3.87,13.2,2.58,13.2z"/>
<path d="M10.12,15.36c0-1.94,0-3.85,0-5.78c8.4,0,16.79,0,25.21,0c0,1.92,0,3.83,0,5.78C26.94,15.36,18.55,15.36,10.12,15.36z
	 M11.54,13.97c7.47,0,14.91,0,22.36,0c0-1.02,0-2.02,0-3c-7.47,0-14.9,0-22.36,0C11.54,11.98,11.54,12.96,11.54,13.97z"/>
<path d="M38.39,41.41c-4.51-0.01-8.15-3.67-8.14-8.19c0.01-4.47,3.69-8.1,8.19-8.09c4.49,0.02,8.14,3.69,8.12,8.17
	C46.55,37.78,42.88,41.42,38.39,41.41z M45.14,33.3c0.01-3.72-2.98-6.75-6.67-6.77c-3.72-0.02-6.77,3-6.8,6.72
	c-0.02,3.69,3.01,6.75,6.69,6.76C42.12,40.01,45.12,37.04,45.14,33.3z"/>
<path d="M17.44,24.33c-2.45,0-4.86,0-7.3,0c0-2.44,0-4.86,0-7.32c2.41,0,4.83,0,7.3,0C17.44,19.43,17.44,21.86,17.44,24.33z
	 M16.04,18.42c-1.53,0-3,0-4.5,0c0,1.51,0,2.98,0,4.46c1.52,0,3,0,4.5,0C16.04,21.38,16.04,19.92,16.04,18.42z"/>
<path d="M30.96,25.94c0,0.47,0,0.9,0,1.36c-6.94,0-13.86,0-20.82,0c0-0.44,0-0.88,0-1.36C17.06,25.94,23.99,25.94,30.96,25.94z"/>
<path d="M10.13,30.28c0-0.46,0-0.9,0-1.37c6.44,0,12.87,0,19.33,0c0,0.46,0,0.9,0,1.37C23.02,30.28,16.59,30.28,10.13,30.28z"/>
<path d="M47.47,36.74c0.42,0.16,0.82,0.32,1.22,0.47c-1.3,4.08-5.88,7.33-10.33,7.14c0-0.44,0-0.88,0-1.34
	C42.66,42.8,45.67,40.69,47.47,36.74z"/>
<path d="M35.41,24.33c-2.46,0-4.91,0-7.4,0c0-0.46,0-0.9,0-1.37c2.46,0,4.91,0,7.4,0C35.41,23.39,35.41,23.83,35.41,24.33z"/>
<path d="M19.06,24.31c0-0.46,0-0.89,0-1.35c2.47,0,4.93,0,7.42,0c0,0.43,0,0.87,0,1.35C24.03,24.31,21.56,24.31,19.06,24.31z"/>
<path d="M26.49,17c0,0.45,0,0.88,0,1.35c-2.47,0-4.93,0-7.43,0c0-0.44,0-0.88,0-1.35C21.53,17,23.98,17,26.49,17z"/>
<path d="M26.49,19.98c0,0.46,0,0.88,0,1.35c-2.47,0-4.93,0-7.43,0c0-0.44,0-0.88,0-1.35C21.54,19.98,23.99,19.98,26.49,19.98z"/>
<path d="M28,18.36c0-0.46,0-0.9,0-1.36c2.48,0,4.93,0,7.41,0c0,0.46,0,0.9,0,1.36C32.94,18.36,30.49,18.36,28,18.36z"/>
<path d="M35.4,21.34c-0.15,0.01-0.28,0.03-0.42,0.03c-2.18,0-4.35-0.01-6.53,0.01c-0.39,0-0.53-0.11-0.49-0.5
	c0.03-0.29,0.01-0.58,0.01-0.9c2.5,0,4.94,0,7.43,0C35.4,20.42,35.4,20.87,35.4,21.34z"/>
<path d="M23.5,13.15c-2.49,0-4.94,0-7.42,0c0-0.45,0-0.87,0-1.34c2.45,0,4.92,0,7.42,0C23.5,12.23,23.5,12.67,23.5,13.15z"/>
<path d="M25.02,13.13c0-0.44,0-0.88,0-1.34c0.5,0,0.97,0,1.47,0c0,0.45,0,0.87,0,1.34C26.01,13.13,25.53,13.13,25.02,13.13z"/>
<path d="M29.47,11.79c0,0.46,0,0.89,0,1.35c-0.49,0-0.97,0-1.47,0c0-0.45,0-0.89,0-1.35C28.5,11.79,28.95,11.79,29.47,11.79z"/>
<path d="M41.22,33.38c0,0.96,0.12,1.89-0.03,2.77c-0.25,1.52-1.64,2.42-3.23,2.26c-1.35-0.13-2.46-1.35-2.52-2.77
	c-0.03-0.74,0-1.48,0-2.25C37.4,33.38,39.32,33.38,41.22,33.38z M36.87,34.8c-0.09,0.83-0.04,1.57,0.74,2.02
	c0.56,0.32,1.13,0.29,1.65-0.1c0.66-0.48,0.69-1.18,0.61-1.93C38.86,34.8,37.88,34.8,36.87,34.8z"/>
<path d="M33.28,31.8c-0.07-1.18,0.93-2.2,2.12-2.21c1.24-0.01,2.22,0.95,2.18,2.17c-0.43,0-0.87,0-1.23,0
	c-0.22-0.25-0.37-0.52-0.59-0.67c-0.35-0.23-0.88-0.07-1.01,0.34c-0.11,0.36-0.32,0.39-0.61,0.37C33.85,31.79,33.56,31.8,33.28,31.8
	z"/>
<path d="M39.24,31.8c-0.06-1.17,0.91-2.18,2.07-2.21c1.26-0.03,2.23,0.9,2.24,2.2c-0.39,0-0.79,0.01-1.18-0.01
	c-0.08,0-0.19-0.13-0.22-0.23C42,31.21,41.75,31,41.37,31c-0.35,0.01-0.6,0.2-0.73,0.55c-0.04,0.1-0.17,0.23-0.26,0.24
	C40,31.82,39.61,31.8,39.24,31.8z"/>
<path d="M34.67,35.5c-0.5,0-0.95,0-1.44,0c0-0.46,0-0.89,0-1.37c0.48,0,0.94,0,1.44,0C34.67,34.58,34.67,35.02,34.67,35.5z"/>
<path d="M43.61,34.13c0,0.47,0,0.9,0,1.36c-0.48,0-0.95,0-1.44,0c0-0.45,0-0.88,0-1.36C42.64,34.13,43.1,34.13,43.61,34.13z"/>
<path class="st0" d="M36.87,34.8c1.02,0,2,0,3.01,0c0.08,0.75,0.05,1.44-0.61,1.93c-0.52,0.38-1.09,0.42-1.65,0.1
	C36.83,36.37,36.78,35.63,36.87,34.8z"/>
</svg>
