<?xml version="1.0" encoding="utf-8"?>
<!-- Generator: Adobe Illustrator 24.3.0, SVG Export Plug-In . SVG Version: 6.00 Build 0)  -->
<svg version="1.1" id="Layer_1" xmlns="http://www.w3.org/2000/svg" xmlns:xlink="http://www.w3.org/1999/xlink" x="0px" y="0px"
	 viewBox="0 0 50 50" style="enable-background:new 0 0 50 50;" xml:space="preserve">
<path d="M2.81,43.95c0-9.89,0-19.78,0-29.67c0.23-0.47,0.61-0.65,1.14-0.61c0.4,0.03,0.81,0.01,1.22,0.01c0.49,0,0.97,0,1.48,0
	c0-1.51,0-2.96,0-4.41C6.64,8.36,6.9,8.1,7.8,8.1c0.88,0,1.76,0,2.67,0c0-1.22,0.02-2.4-0.01-3.57c-0.01-0.52,0.14-0.9,0.62-1.13
	c11.89,0,23.78,0,35.67,0c0.4,0.22,0.61,0.52,0.61,1c-0.01,12.96,0,25.92-0.01,38.88c0,2.57-2.08,4.65-4.64,4.66
	c-11.76,0.01-23.52,0.01-35.27,0c-1.5,0-2.7-0.65-3.65-1.81C3.27,45.49,3.04,44.72,2.81,43.95z M12.21,5.16c0,0.2,0,0.38,0,0.55
	c0,5.87,0,11.75,0,17.62c0,0.14,0.01,0.29,0,0.43c-0.04,0.46-0.42,0.79-0.88,0.78c-0.53-0.01-0.85-0.38-0.85-0.99
	c0-4.39,0-8.79,0-13.18c0-0.17,0-0.34,0-0.5c-0.73,0-1.4,0-2.09,0c0,0.22,0,0.41,0,0.6c0,10.51,0,21.03,0,31.54
	c0,0.15,0.01,0.29,0,0.43c-0.03,0.47-0.4,0.8-0.86,0.81c-0.46,0-0.83-0.33-0.87-0.79c-0.01-0.14,0-0.29,0-0.43
	c0-8.69,0-17.37,0-26.06c0-0.18,0-0.36,0-0.53c-0.73,0-1.39,0-2.09,0c0,0.18,0,0.34,0,0.49c0,9,0,18.01,0,27.01
	c0,0.13,0,0.26,0,0.39c0.09,1.85,1.71,3.14,3.52,2.81c1.43-0.27,2.39-1.48,2.39-3.04c0-3.81,0-7.63,0-11.44
	c0-0.64,0.33-1.02,0.87-1.02c0.54,0,0.87,0.38,0.87,1.02c0,3.86,0,7.71,0,11.57c0,0.97-0.28,1.85-0.81,2.66
	c-0.06,0.09-0.11,0.18-0.2,0.32c0.19,0,0.31,0,0.44,0c10.25,0,20.5,0,30.76,0c1.98,0,3.22-1.24,3.22-3.24c0-12.44,0-24.88,0-37.32
	c0-0.16,0-0.31,0-0.48C34.47,5.16,23.37,5.16,12.21,5.16z"/>
<path d="M28.92,17.15c-4.39,0-8.78,0-13.18,0c-0.81,0-1.09-0.29-1.09-1.1c0-1.96,0-3.91,0-5.87c0-0.73,0.31-1.03,1.02-1.03
	c8.83,0,17.65,0,26.48,0c0.72,0,1.03,0.31,1.03,1.03c0,1.97,0,3.94,0,5.91c0,0.75-0.3,1.06-1.05,1.06
	C37.73,17.15,33.32,17.15,28.92,17.15z M41.42,10.91c-8.36,0-16.69,0-25.01,0c0,1.51,0,3,0,4.48c8.35,0,16.67,0,25.01,0
	C41.42,13.89,41.42,12.42,41.42,10.91z"/>
<path d="M28.89,42.21c-4.41,0-8.81,0-13.22,0c-0.64,0-1.02-0.32-1.02-0.86c0-0.46,0.33-0.83,0.79-0.87c0.09-0.01,0.17,0,0.26,0
	c8.81,0,17.62,0,26.43,0c0.58,0,0.93,0.23,1.03,0.67c0.12,0.53-0.25,1.03-0.8,1.07c-0.2,0.01-0.41,0-0.61,0
	C37.47,42.21,33.18,42.21,28.89,42.21z"/>
<path d="M37.68,21.32c-1.48,0-2.95,0-4.43,0c-0.65,0-1.02-0.31-1.03-0.85c-0.01-0.56,0.37-0.88,1.04-0.88c3,0,5.99,0,8.99,0
	c0.49,0,0.84,0.28,0.91,0.7c0.07,0.4-0.12,0.8-0.51,0.95c-0.15,0.06-0.34,0.08-0.51,0.08C40.67,21.33,39.18,21.32,37.68,21.32z"/>
<path d="M37.68,25.5c-1.49,0-2.98,0-4.47,0c-0.61,0-0.98-0.33-0.98-0.86c-0.01-0.53,0.36-0.88,0.96-0.88c3.03,0,6.05,0,9.08,0
	c0.49,0,0.84,0.28,0.91,0.7c0.07,0.42-0.15,0.83-0.55,0.97c-0.15,0.05-0.31,0.06-0.47,0.06C40.66,25.5,39.17,25.5,37.68,25.5z"/>
<path d="M37.68,29.68c-1.49,0-2.98,0-4.47,0c-0.61,0-0.98-0.33-0.98-0.85c-0.01-0.53,0.36-0.88,0.96-0.88c3.03,0,6.05,0,9.08,0
	c0.49,0,0.84,0.28,0.91,0.7c0.07,0.42-0.15,0.83-0.55,0.97c-0.15,0.05-0.31,0.06-0.47,0.06C40.67,29.68,39.17,29.68,37.68,29.68z"/>
<path d="M37.72,32.12c1.49,0,2.98,0,4.47,0c0.61,0,0.98,0.33,0.99,0.85c0.01,0.55-0.37,0.88-1,0.88c-2.98,0-5.97,0-8.95,0
	c-0.64,0-1.01-0.33-1.01-0.88c0-0.54,0.38-0.86,1.02-0.86C34.74,32.12,36.23,32.12,37.72,32.12z"/>
<path d="M37.73,36.29c1.48,0,2.95,0,4.43,0c0.64,0,1.02,0.32,1.02,0.86c0,0.54-0.37,0.87-1.01,0.88c-2.98,0-5.97,0-8.95,0
	c-0.63,0-1.01-0.34-1-0.88c0.01-0.53,0.38-0.85,0.99-0.85C34.72,36.29,36.22,36.29,37.73,36.29z"/>
<path d="M11.34,28.46c-0.46-0.02-0.84-0.42-0.84-0.87c0.01-0.48,0.41-0.87,0.9-0.86c0.48,0.01,0.88,0.42,0.86,0.9
	C12.24,28.1,11.83,28.48,11.34,28.46z"/>
<path d="M12.89,25.4c0.07-0.36,0.12-0.73,0.23-1.08c0.11-0.36,0.26-0.7,0.42-1.04c0.13-0.28,0.33-0.35,0.54-0.25
	c0.21,0.11,0.25,0.31,0.12,0.58c-0.93,1.93-0.73,3.74,0.58,5.42c0.2,0.26,0.46,0.49,0.69,0.72c1.76,1.76,3.52,3.52,5.28,5.28
	c0.04,0.04,0.09,0.08,0.15,0.15c0.47-1.74,0.92-3.45,1.39-5.19c-0.26-0.07-0.51-0.14-0.76-0.21c-0.53-0.14-1.05-0.28-1.58-0.42
	c-0.37-0.1-0.45-0.24-0.35-0.62c0.59-2.2,1.18-4.4,1.77-6.6c0.04-0.15,0.01-0.22-0.12-0.31c-1.61-1.01-3.27-1.11-4.99-0.3
	c-0.03,0.02-0.06,0.04-0.1,0.05c-0.22,0.11-0.44,0.05-0.53-0.15c-0.09-0.19-0.02-0.38,0.19-0.5c0.63-0.35,1.3-0.57,2.01-0.64
	c1.52-0.16,2.89,0.21,4.1,1.14c0.27,0.21,0.3,0.28,0.21,0.61c-0.58,2.17-1.16,4.33-1.74,6.5c-0.01,0.05-0.02,0.1-0.04,0.17
	c0.46,0.12,0.91,0.25,1.36,0.37c0.34,0.09,0.68,0.18,1.02,0.27c0.31,0.09,0.4,0.24,0.31,0.56c-0.54,2-1.07,4-1.61,6
	c-0.1,0.39-0.41,0.47-0.69,0.19c-2.08-2.08-4.17-4.16-6.25-6.25c-0.92-0.92-1.45-2.04-1.6-3.33c0-0.03-0.02-0.07-0.03-0.1
	C12.89,26.08,12.89,25.74,12.89,25.4z"/>
<path d="M22.17,27.69c0.8,0.21,1.58,0.42,2.35,0.63c0.33,0.09,0.42,0.24,0.33,0.56c-0.22,0.84-0.45,1.69-0.67,2.53
	c-0.05,0.17-0.12,0.32-0.31,0.36c-0.27,0.06-0.49-0.19-0.42-0.48c0.19-0.72,0.38-1.44,0.57-2.16c0.02-0.06,0.02-0.11,0.04-0.18
	c-0.76-0.2-1.51-0.4-2.26-0.6c-0.05-0.01-0.09-0.02-0.14-0.04c-0.27-0.08-0.37-0.25-0.29-0.53c0.34-1.27,0.68-2.54,1.02-3.81
	c0.25-0.92,0.5-1.85,0.74-2.77c0.04-0.16,0.13-0.26,0.28-0.34c3.28-1.68,7.35,0.29,8.04,3.91c0.37,1.96-0.16,3.66-1.54,5.1
	c-0.05,0.05-0.11,0.08-0.15,0.11c0.65,1.18,0.29,2.28-0.33,2.9c-0.56,0.57-1.66,1.01-2.91,0.34c-0.03,0.04-0.06,0.1-0.11,0.15
	c-1.25,1.26-2.51,2.51-3.76,3.76c-0.11,0.11-0.23,0.21-0.4,0.17c-0.23-0.05-0.34-0.26-0.27-0.53c0.15-0.56,0.3-1.11,0.45-1.67
	c0.09-0.33,0.17-0.66,0.27-0.98c0.05-0.18,0.22-0.29,0.38-0.27c0.17,0.02,0.32,0.16,0.33,0.34c0,0.08-0.02,0.16-0.04,0.23
	c-0.1,0.4-0.21,0.79-0.31,1.15c0.95-0.95,1.91-1.91,2.89-2.89c-0.2-0.26-0.38-0.58-0.45-0.96c-0.17-0.81,0.04-1.52,0.6-2.12
	c0.45-0.47,0.91-0.92,1.38-1.38c0.21-0.2,0.4-0.2,0.6,0c0.4,0.4,0.8,0.8,1.23,1.23c0.24-0.3,0.49-0.57,0.7-0.87
	c1.95-2.88,0.29-6.86-3.13-7.52c-1-0.19-1.97-0.08-2.9,0.33c-0.1,0.04-0.16,0.1-0.19,0.22c-0.52,1.97-1.05,3.93-1.58,5.9
	C22.19,27.58,22.18,27.63,22.17,27.69z M27.78,28.96c-0.45,0.46-0.89,0.89-1.29,1.35c-0.3,0.34-0.35,0.78-0.28,1.22
	c0.1,0.62,0.62,1.14,1.23,1.27c0.64,0.13,1.29-0.13,1.65-0.67c0.37-0.55,0.4-1.28-0.02-1.79C28.69,29.86,28.23,29.43,27.78,28.96z"
	/>
<path d="M23.06,32.82c0-0.2,0.17-0.37,0.37-0.36c0.2,0.01,0.36,0.17,0.36,0.36c0,0.2-0.17,0.37-0.37,0.38
	C23.23,33.19,23.06,33.02,23.06,32.82z"/>
<path d="M15.15,22.18c0,0.2-0.17,0.37-0.37,0.36c-0.19-0.01-0.36-0.17-0.36-0.36c0-0.2,0.17-0.37,0.37-0.37
	C14.99,21.81,15.16,21.97,15.15,22.18z"/>
</svg>
