<?xml version="1.0" encoding="utf-8"?>
<!-- Generator: Adobe Illustrator 24.3.0, SVG Export Plug-In . SVG Version: 6.00 Build 0)  -->
<svg version="1.1" id="Layer_1" xmlns="http://www.w3.org/2000/svg" xmlns:xlink="http://www.w3.org/1999/xlink" x="0px" y="0px"
	 viewBox="0 0 50 50" style="enable-background:new 0 0 50 50;" xml:space="preserve">
<path d="M2.81,43.95c0-9.89,0-19.78,0-29.67c0.23-0.47,0.61-0.65,1.14-0.61c0.4,0.03,0.81,0.01,1.22,0.01c0.49,0,0.97,0,1.48,0
	c0-1.51,0-2.96,0-4.41C6.64,8.36,6.9,8.1,7.8,8.1c0.88,0,1.76,0,2.67,0c0-1.22,0.02-2.4-0.01-3.57c-0.01-0.52,0.14-0.9,0.62-1.13
	c11.89,0,23.78,0,35.67,0c0.4,0.22,0.61,0.52,0.61,1c-0.01,12.96,0,25.92-0.01,38.88c0,2.57-2.08,4.65-4.64,4.66
	c-11.76,0.01-23.52,0.01-35.27,0c-1.5,0-2.7-0.65-3.65-1.81C3.27,45.49,3.04,44.72,2.81,43.95z M12.21,5.16c0,0.2,0,0.38,0,0.55
	c0,5.87,0,11.75,0,17.62c0,0.14,0.01,0.29,0,0.43c-0.04,0.46-0.42,0.79-0.88,0.78c-0.53-0.01-0.85-0.38-0.85-0.99
	c0-4.39,0-8.79,0-13.18c0-0.17,0-0.34,0-0.5c-0.73,0-1.4,0-2.09,0c0,0.22,0,0.41,0,0.6c0,10.51,0,21.03,0,31.54
	c0,0.15,0.01,0.29,0,0.43c-0.03,0.47-0.4,0.8-0.86,0.81c-0.46,0-0.83-0.33-0.87-0.79c-0.01-0.14,0-0.29,0-0.43
	c0-8.69,0-17.37,0-26.06c0-0.18,0-0.36,0-0.53c-0.73,0-1.39,0-2.09,0c0,0.18,0,0.34,0,0.49c0,9,0,18.01,0,27.01
	c0,0.13,0,0.26,0,0.39c0.09,1.85,1.71,3.14,3.52,2.81c1.43-0.27,2.39-1.48,2.39-3.04c0-3.81,0-7.63,0-11.44
	c0-0.64,0.33-1.02,0.87-1.02c0.54,0,0.87,0.38,0.87,1.02c0,3.86,0,7.71,0,11.57c0,0.97-0.28,1.85-0.81,2.66
	c-0.06,0.09-0.11,0.18-0.2,0.32c0.19,0,0.31,0,0.44,0c10.25,0,20.5,0,30.76,0c1.98,0,3.22-1.24,3.22-3.24c0-12.44,0-24.88,0-37.32
	c0-0.16,0-0.31,0-0.48C34.47,5.16,23.37,5.16,12.21,5.16z"/>
<path d="M28.92,17.15c-4.39,0-8.78,0-13.18,0c-0.81,0-1.09-0.29-1.09-1.1c0-1.96,0-3.91,0-5.87c0-0.73,0.31-1.03,1.02-1.03
	c8.83,0,17.65,0,26.48,0c0.72,0,1.03,0.31,1.03,1.03c0,1.97,0,3.94,0,5.91c0,0.75-0.3,1.06-1.05,1.06
	C37.73,17.15,33.32,17.15,28.92,17.15z M41.42,10.91c-8.36,0-16.69,0-25.01,0c0,1.51,0,3,0,4.48c8.35,0,16.67,0,25.01,0
	C41.42,13.89,41.42,12.42,41.42,10.91z"/>
<path d="M28.89,42.21c-4.41,0-8.81,0-13.22,0c-0.64,0-1.02-0.32-1.02-0.86c0-0.46,0.33-0.83,0.79-0.87c0.09-0.01,0.17,0,0.26,0
	c8.81,0,17.62,0,26.43,0c0.58,0,0.93,0.23,1.03,0.67c0.12,0.53-0.25,1.03-0.8,1.07c-0.2,0.01-0.41,0-0.61,0
	C37.47,42.21,33.18,42.21,28.89,42.21z"/>
<path d="M37.68,21.32c-1.48,0-2.95,0-4.43,0c-0.65,0-1.02-0.31-1.03-0.85c-0.01-0.56,0.37-0.88,1.04-0.88c3,0,5.99,0,8.99,0
	c0.49,0,0.84,0.28,0.91,0.7c0.07,0.4-0.12,0.8-0.51,0.95c-0.15,0.06-0.34,0.08-0.51,0.08C40.67,21.33,39.18,21.32,37.68,21.32z"/>
<path d="M37.68,25.5c-1.49,0-2.98,0-4.47,0c-0.61,0-0.98-0.33-0.98-0.86c-0.01-0.53,0.36-0.88,0.96-0.88c3.03,0,6.05,0,9.08,0
	c0.49,0,0.84,0.28,0.91,0.7c0.07,0.42-0.15,0.83-0.55,0.97c-0.15,0.05-0.31,0.06-0.47,0.06C40.66,25.5,39.17,25.5,37.68,25.5z"/>
<path d="M37.68,29.68c-1.49,0-2.98,0-4.47,0c-0.61,0-0.98-0.33-0.98-0.85c-0.01-0.53,0.36-0.88,0.96-0.88c3.03,0,6.05,0,9.08,0
	c0.49,0,0.84,0.28,0.91,0.7c0.07,0.42-0.15,0.83-0.55,0.97c-0.15,0.05-0.31,0.06-0.47,0.06C40.67,29.68,39.17,29.68,37.68,29.68z"/>
<path d="M37.72,32.12c1.49,0,2.98,0,4.47,0c0.61,0,0.98,0.33,0.99,0.85c0.01,0.55-0.37,0.88-1,0.88c-2.98,0-5.97,0-8.95,0
	c-0.64,0-1.01-0.33-1.01-0.88c0-0.54,0.38-0.86,1.02-0.86C34.74,32.12,36.23,32.12,37.72,32.12z"/>
<path d="M37.73,36.29c1.48,0,2.95,0,4.43,0c0.64,0,1.02,0.32,1.02,0.86c0,0.54-0.37,0.87-1.01,0.88c-2.98,0-5.97,0-8.95,0
	c-0.63,0-1.01-0.34-1-0.88c0.01-0.53,0.38-0.85,0.99-0.85C34.72,36.29,36.22,36.29,37.73,36.29z"/>
<path d="M11.34,28.46c-0.46-0.02-0.84-0.42-0.84-0.87c0.01-0.48,0.41-0.87,0.9-0.86c0.48,0.01,0.88,0.42,0.86,0.9
	C12.24,28.1,11.83,28.48,11.34,28.46z"/>
<g>
	<path d="M22.18,36.91c-4.63,0-8.67-3.28-8.73-8.78c-0.05-4.76,3.94-8.67,8.76-8.66c4.79,0,8.77,3.92,8.71,8.67
		C30.86,33.65,26.79,36.92,22.18,36.91z M22.19,20.99c-3.61-0.03-7.18,2.45-7.29,7.28c-0.09,3.93,3.29,7.24,7.27,7.25
		c3.98,0.01,7.36-3.29,7.28-7.23C29.37,23.47,25.83,20.98,22.19,20.99z"/>
	<path d="M22.47,29.95c1.04,0.03,2.07,0.59,2.8,1.69c0.28,0.43,0.2,0.88-0.17,1.11c-0.37,0.23-0.77,0.12-1.05-0.3
		c-0.94-1.38-2.78-1.38-3.71,0c-0.29,0.42-0.68,0.54-1.05,0.31c-0.38-0.23-0.45-0.68-0.18-1.11C19.75,30.6,20.92,29.95,22.47,29.95z
		"/>
	<path d="M17,26.63c0.09-0.64,0.66-0.97,1.2-0.67c0.63,0.34,1.24,0.71,1.86,1.07c0.23,0.13,0.47,0.25,0.69,0.4
		c0.35,0.23,0.44,0.65,0.24,0.99c-0.2,0.34-0.62,0.48-0.98,0.27c-0.87-0.48-1.73-0.98-2.57-1.5C17.26,27.08,17.15,26.82,17,26.63z"
		/>
	<path d="M27.36,26.64c-0.16,0.2-0.27,0.45-0.47,0.58c-0.82,0.51-1.67,0.99-2.51,1.46c-0.38,0.21-0.8,0.09-1.01-0.26
		c-0.21-0.35-0.1-0.77,0.28-1c0.83-0.49,1.67-0.98,2.51-1.45C26.7,25.66,27.29,26,27.36,26.64z"/>
</g>
</svg>
