<?xml version="1.0" encoding="utf-8"?>
<!-- Generator: Adobe Illustrator 24.3.0, SVG Export Plug-In . SVG Version: 6.00 Build 0)  -->
<svg version="1.1" id="Layer_1" xmlns="http://www.w3.org/2000/svg" xmlns:xlink="http://www.w3.org/1999/xlink" x="0px" y="0px"
	 viewBox="0 0 50 50" style="enable-background:new 0 0 50 50;" xml:space="preserve">
<path d="M8.04,47.96c-4.51-2.41-6.64-8.99-2.1-13.82c0.88-0.93,1.91-1.65,2.9-2.16c-0.02-0.87-0.1-1.66-0.04-2.43
	c0.06-0.72,0.56-1.16,1.31-1.36C9.68,27.44,9.23,26.74,8.88,26c-0.18-0.37-0.29-0.83-0.24-1.23c0.1-0.75,0.76-1.23,1.53-1.24
	c0.77-0.01,1.55,0,2.4,0c0-0.21,0-0.39,0-0.58c0-6.45,0-12.89,0.01-19.34c0-0.33,0.04-0.72,0.21-0.97c0.17-0.24,0.54-0.36,0.84-0.5
	c0.11-0.05,0.26-0.01,0.4-0.01c10.4,0,20.8,0,31.2,0c1.09,0,1.47,0.38,1.47,1.49c0,7.12,0,14.23,0,21.35c0,0.04,0,0.09,0,0.13
	c-0.01,0.57-0.27,0.92-0.7,0.91c-0.42-0.01-0.68-0.35-0.68-0.93c0-7,0-13.99,0-20.99c0-0.19,0-0.38,0-0.6c-10.46,0-20.89,0-31.34,0
	c0,6.66,0,13.32,0,20.03c0.55,0,1.09,0,1.64,0c1.42,0.01,2.14,1.24,1.44,2.48c-0.4,0.71-0.82,1.42-1.23,2.13
	c1.3,0.72,1.73,2.01,1.19,3.5c-0.03,0.08-0.06,0.16-0.1,0.26c1.12,0.57,2.13,1.28,2.99,2.18c1.1,1.15,1.9,2.48,2.3,4.03
	c0.14,0.55,0,0.89-0.42,1.01c-0.42,0.12-0.72-0.1-0.88-0.65c-0.84-2.89-2.82-4.69-5.55-5.75c-0.16-0.06-0.35-0.07-0.52-0.07
	c-1.09-0.01-2.18,0.02-3.27-0.01c-0.62-0.02-1.17,0.11-1.72,0.38c-2.01,0.96-3.58,2.36-4.48,4.42c-1.25,2.9-0.43,6.24,2.01,8.46
	c0.58,0.52,1.17,0.76,1.96,0.75c2.61-0.05,5.22-0.01,7.83-0.03c0.26,0,0.56-0.1,0.76-0.25c1.6-1.21,2.66-2.79,3.08-4.77
	c0.1-0.49,0.41-0.72,0.8-0.64c0.4,0.08,0.6,0.41,0.53,0.89c0,0.03-0.01,0.06-0.02,0.09c-0.3,1.41-0.9,2.68-1.8,3.8
	c-0.23,0.29-0.48,0.56-0.75,0.87c8.52,0,16.99,0,25.53,0c0-0.19,0-0.37,0-0.56c0-5.71,0-11.43,0-17.14c0-0.18,0-0.36,0.03-0.53
	c0.06-0.35,0.28-0.56,0.64-0.57c0.39-0.01,0.61,0.21,0.69,0.57c0.03,0.16,0.02,0.33,0.02,0.49c0,5.85-0.01,11.7,0.01,17.55
	c0,0.68-0.17,1.22-0.79,1.56C33.28,47.96,20.66,47.96,8.04,47.96z M12.96,24.88c-0.87,0-1.73-0.01-2.6,0
	c-0.43,0-0.51,0.13-0.29,0.52c0.48,0.84,0.96,1.68,1.46,2.51c0.08,0.13,0.29,0.26,0.44,0.26c0.66,0.03,1.31,0.03,1.97,0
	c0.14-0.01,0.34-0.12,0.41-0.24c0.5-0.83,0.98-1.67,1.46-2.51c0.23-0.41,0.16-0.54-0.31-0.54C14.66,24.87,13.81,24.88,12.96,24.88z
	 M12.91,29.52c-0.52,0-1.04-0.01-1.57,0c-1.4,0.02-1.2-0.24-1.23,1.23c-0.01,0.39,0.13,0.52,0.52,0.51c1.3-0.02,2.59-0.01,3.89-0.01
	c1.26,0,1.25,0,1.24-1.25c0-0.36-0.11-0.51-0.49-0.5C14.49,29.54,13.7,29.52,12.91,29.52z"/>
<path d="M38.56,21c0.42,0,0.77,0,1.17,0c0-0.18,0-0.34,0-0.5c0-1.82,0-3.64,0-5.46c0-0.7,0.37-1.07,1.07-1.08
	c0.49-0.01,0.98-0.01,1.48,0c0.65,0.02,1.02,0.39,1.03,1.04c0,2.12,0,4.24,0,6.36c0,0.66-0.36,1.01-1.03,1.01
	c-8.43,0-16.86,0-25.29,0c-0.71,0-1.06-0.36-1.06-1.08c0-1.61,0-3.22,0-4.83c0-0.72,0.34-1.08,1.06-1.1c0.51-0.02,1.01-0.02,1.52,0
	c0.68,0.03,1,0.37,1.01,1.05c0.01,1.36,0,2.72,0,4.07c0,0.16,0,0.32,0,0.52c0.39,0,0.75,0,1.16,0c0-0.17,0-0.33,0-0.49
	c0-2.06,0-4.12,0-6.18c0-0.9,0.34-1.25,1.24-1.25c0.37,0,0.75,0,1.12,0c0.92,0,1.25,0.32,1.25,1.23c0,2.04,0,4.09,0,6.13
	c0,0.18,0,0.35,0,0.56c0.39,0,0.74,0,1.15,0c0-0.18,0-0.35,0-0.53c0-2.76,0-5.52,0-8.28c0-1.02,0.29-1.31,1.3-1.31
	c0.43,0,0.87-0.01,1.3,0c0.62,0.02,0.99,0.36,1.01,0.96c0.03,0.77,0.02,1.55,0,2.33c-0.01,0.44-0.32,0.73-0.7,0.72
	c-0.38-0.01-0.66-0.3-0.67-0.75c-0.02-0.61,0-1.22,0-1.87c-0.28,0-0.54,0-0.83,0c0,2.9,0,5.8,0,8.72c0.26,0,0.51,0,0.81,0
	c0.01-0.15,0.02-0.31,0.02-0.47c0-0.98,0-1.97,0-2.95c0-0.58,0.27-0.91,0.7-0.91c0.43,0.01,0.68,0.34,0.68,0.93
	c0,1.12,0,2.24,0,3.39c0.38,0,0.74,0,1.15,0c0-0.19,0-0.36,0-0.54c0-3.4,0-6.8,0-10.2c0-1.05,0.27-1.31,1.33-1.31
	c0.39,0,0.78,0,1.16,0c0.76,0.01,1.11,0.36,1.11,1.13c0,1.27,0,2.54,0,3.8c0,2.21,0,4.42,0,6.62c0,0.16,0,0.32,0,0.51
	c0.39,0,0.74,0,1.16,0c0-0.17,0-0.34,0-0.52c0-2.67,0-5.34,0-8.01c0-0.9,0.3-1.2,1.21-1.21c0.42,0,0.84,0,1.25,0
	c0.77,0,1.12,0.35,1.12,1.12c0,2.7,0,5.4,0,8.1C38.56,20.64,38.56,20.8,38.56,21z M31.59,20.99c0.28,0,0.54,0,0.82,0
	c0-3.58,0-7.13,0-10.7c-0.29,0-0.55,0-0.82,0C31.59,13.87,31.59,17.42,31.59,20.99z M37.17,21.01c0-2.82,0-5.6,0-8.37
	c-0.3,0-0.56,0-0.82,0c0,2.81,0,5.59,0,8.37C36.64,21.01,36.89,21.01,37.17,21.01z M22.88,21c0-2.2,0-4.35,0-6.52
	c-0.28,0-0.54,0-0.82,0c0,2.19,0,4.35,0,6.52C22.35,21,22.6,21,22.88,21z M41.1,15.34c0,1.92,0,3.79,0,5.65c0.3,0,0.58,0,0.84,0
	c0-1.9,0-3.77,0-5.65C41.64,15.34,41.38,15.34,41.1,15.34z M17.3,16.72c0,1.46,0,2.86,0,4.27c0.29,0,0.55,0,0.82,0
	c0-1.44,0-2.86,0-4.27C17.83,16.72,17.58,16.72,17.3,16.72z"/>
<path d="M33.24,26.63c1.65-1.16,3.44-1.47,5.32-0.69c1.89,0.78,2.94,2.26,3.3,4.24c0.84,0.07,1.05,0.25,0.98,1.19
	c-0.23,3.09-2.86,5.68-5.84,5.85c-3.41,0.19-6.26-2.16-6.74-5.37c-0.29-1.9,0.23-3.6,1.46-5.08C32.32,26.07,32.56,26.05,33.24,26.63
	z M32.6,27.91c-1.29,1.57-1.36,3.97-0.22,5.72c1.18,1.81,3.41,2.64,5.51,2.06c1.87-0.52,3.45-2.35,3.53-4.11
	c-1.19,0-2.39-0.08-3.57,0.02c-1.16,0.1-2.01-0.26-2.75-1.15C34.33,29.56,33.45,28.77,32.6,27.91z M34.18,27.64
	c0.42,0.41,0.81,0.78,1.19,1.15c0.48,0.47,0.88,1.13,1.45,1.36c0.59,0.24,1.35,0.07,2.03,0.08c0.53,0,1.05,0,1.63,0
	c-0.33-1.48-1.12-2.5-2.46-3.04C36.71,26.66,35.45,26.82,34.18,27.64z"/>
<path d="M33.51,43.66c-2.45,0-4.89,0.01-7.34,0c-0.99,0-1.87-0.76-2.02-1.7c-0.16-1.07,0.4-2.04,1.41-2.34
	c0.29-0.09,0.62-0.12,0.92-0.12c4.67-0.01,9.33-0.01,14,0c1.37,0,2.31,0.8,2.36,1.98c0.05,1.19-0.86,2.18-2.05,2.18
	C38.37,43.67,35.94,43.66,33.51,43.66z M35.95,40.87c-0.21,0-0.37,0-0.54,0c-2.95,0-5.9,0-8.85,0c-0.13,0-0.27,0-0.4,0.01
	c-0.38,0.03-0.61,0.24-0.67,0.6c-0.06,0.39,0.12,0.67,0.51,0.78c0.17,0.05,0.35,0.05,0.53,0.05c2.98,0,5.96,0,8.94,0
	c0.16,0,0.31,0,0.48,0C35.95,41.81,35.95,41.37,35.95,40.87z M37.33,42.32c0.58,0,1.11,0,1.64,0c0.6,0,1.19,0.01,1.79-0.01
	c0.44-0.02,0.75-0.36,0.74-0.74c-0.01-0.4-0.32-0.68-0.78-0.69c-0.36-0.01-0.71,0-1.07,0c-0.77,0-1.54,0-2.32,0
	C37.33,41.37,37.33,41.81,37.33,42.32z"/>
<path d="M12.23,42.78c-0.4,0-0.79,0.01-1.17,0c-0.44-0.01-0.7-0.25-0.71-0.64c-0.01-0.4,0.26-0.69,0.7-0.7
	c0.84-0.01,1.67,0,2.51-0.01c0.57,0,0.88-0.26,0.87-0.73c-0.01-0.44-0.31-0.7-0.85-0.7c-0.45-0.01-0.9,0-1.34,0
	c-1.18-0.02-2.07-0.86-2.12-1.99c-0.04-1.12,0.8-2.03,1.97-2.13c0.04,0,0.09-0.02,0.15-0.03c0.14-0.52-0.21-1.4,0.75-1.38
	c0.89,0.02,0.58,0.83,0.71,1.41c0.35,0,0.7,0,1.05,0c0.55,0,0.82,0.23,0.82,0.66c0,0.45-0.28,0.68-0.85,0.68c-0.79,0-1.58,0-2.37,0
	c-0.53,0-0.85,0.27-0.86,0.7c-0.01,0.44,0.33,0.73,0.88,0.73c0.43,0,0.87,0,1.3,0c1.19,0.01,2.1,0.85,2.15,2
	c0.05,1.08-0.79,1.99-1.94,2.12c-0.06,0.01-0.11,0.02-0.18,0.03c-0.14,0.53,0.19,1.38-0.73,1.37
	C12.03,44.18,12.34,43.35,12.23,42.78z"/>
<path d="M24.72,30.3c-1.18,0-2.36,0.02-3.53-0.01c-0.25-0.01-0.57-0.13-0.74-0.3c-0.3-0.3-0.13-0.83,0.28-0.99
	c0.15-0.06,0.32-0.07,0.48-0.07c2.36,0,4.71,0,7.07,0c0.54,0,0.83,0.19,0.89,0.56c0.08,0.48-0.24,0.81-0.81,0.81
	C27.14,30.31,25.93,30.3,24.72,30.3z"/>
<path d="M20.44,5.42c1.22,0,2.44-0.02,3.67,0.02c0.23,0.01,0.52,0.17,0.65,0.36c0.1,0.15,0.08,0.48-0.03,0.65
	c-0.11,0.17-0.38,0.32-0.59,0.32c-2.49,0.02-4.98,0.02-7.47,0.01c-0.41,0-0.7-0.29-0.71-0.66c-0.01-0.39,0.27-0.68,0.71-0.68
	C17.93,5.42,19.18,5.42,20.44,5.42z"/>
<path d="M24.73,26.37c1.19,0,2.38,0,3.58,0c0.58,0,0.86,0.22,0.86,0.67c0,0.44-0.29,0.68-0.86,0.68c-2.38,0-4.77,0-7.15,0
	c-0.54,0-0.86-0.27-0.85-0.7c0.01-0.41,0.31-0.65,0.84-0.65C22.34,26.37,23.54,26.37,24.73,26.37z"/>
<path d="M25.22,31.5c1.06,0,2.12-0.01,3.17,0c0.58,0.01,0.97,0.49,0.71,0.93c-0.12,0.2-0.43,0.41-0.66,0.41
	c-2.13,0.03-4.26,0.02-6.39,0.01c-0.46,0-0.72-0.29-0.71-0.69c0.01-0.39,0.3-0.66,0.75-0.66C23.14,31.5,24.18,31.5,25.22,31.5z"/>
<path d="M26.26,35.43c-0.7,0-1.4,0.01-2.1,0c-0.48,0-0.76-0.27-0.76-0.68c0.01-0.39,0.29-0.65,0.74-0.66c1.43-0.01,2.86-0.01,4.29,0
	c0.45,0,0.73,0.27,0.73,0.66c0,0.4-0.26,0.67-0.72,0.67C27.72,35.44,26.99,35.43,26.26,35.43z"/>
<path d="M40.49,6.77c-0.64,0-1.28,0.01-1.92,0c-0.47-0.01-0.79-0.28-0.79-0.68c0-0.39,0.3-0.67,0.78-0.67
	c1.31-0.01,2.62-0.01,3.94,0c0.48,0,0.79,0.27,0.79,0.67c0,0.41-0.32,0.68-0.83,0.68C41.8,6.78,41.14,6.77,40.49,6.77z"/>
<path d="M40.52,9.13c-0.66,0-1.31,0.01-1.97,0c-0.47-0.01-0.78-0.29-0.78-0.68c0.01-0.39,0.32-0.67,0.8-0.67
	c1.31-0.01,2.62-0.01,3.94,0c0.46,0,0.78,0.3,0.78,0.69c-0.01,0.38-0.3,0.65-0.75,0.66C41.86,9.14,41.19,9.13,40.52,9.13z"/>
</svg>
