<?xml version="1.0" encoding="utf-8"?>
<!-- Generator: Adobe Illustrator 24.3.0, SVG Export Plug-In . SVG Version: 6.00 Build 0)  -->
<svg version="1.1" xmlns="http://www.w3.org/2000/svg" xmlns:xlink="http://www.w3.org/1999/xlink" x="0px" y="0px"
	 viewBox="0 0 50 50" style="enable-background:new 0 0 50 50;" xml:space="preserve">
<style type="text/css">
	.st0{display:none;}
</style>
<g id="Layer_1">
	<path d="M24.17,46.78c-0.72-0.23-1.47-0.39-2.14-0.71c-1.71-0.84-2.81-2.23-3.31-4.07c-0.09-0.32-0.22-0.39-0.52-0.39
		c-3.71,0.01-7.43,0-11.14,0.01c-0.62,0-1.11-0.19-1.36-0.77c-0.26-0.58-0.09-1.08,0.34-1.53c2.7-2.87,4.46-6.23,5.18-10.1
		c0.25-1.33,0.32-2.7,0.38-4.06c0.06-1.34,0.01-2.7,0.01-4.04c0.01-5.65,3.72-10.77,9.09-12.55c0.12-0.04,0.24-0.08,0.38-0.13
		c0-0.64,0-1.27,0-1.9c0.02-2.12,1.75-3.82,3.89-3.82c2.11,0,3.83,1.71,3.85,3.82c0.01,0.63,0,1.26,0,1.9
		c1.64,0.52,3.14,1.29,4.46,2.37c2.85,2.33,4.56,5.31,4.91,8.99c0.16,1.65,0.11,3.32,0.09,4.98c-0.03,4.11,0.93,7.95,3.17,11.41
		c0.72,1.11,1.6,2.13,2.45,3.15c0.69,0.84,0.47,1.92-0.51,2.21c-0.17,0.05-0.37,0.05-0.55,0.05c-3.7,0-7.4,0.01-11.1-0.01
		c-0.35,0-0.48,0.1-0.58,0.43c-0.8,2.61-2.55,4.17-5.24,4.66c-0.07,0.01-0.13,0.05-0.2,0.08C25.21,46.78,24.69,46.78,24.17,46.78z
		 M9.76,39c10.13,0,20.26,0,30.44,0c-0.15-0.22-0.28-0.39-0.4-0.57c-2.33-3.37-3.72-7.09-4-11.18c-0.12-1.77-0.06-3.55-0.1-5.33
		c-0.02-0.81-0.04-1.64-0.16-2.44c-0.89-5.95-6.85-10.07-12.7-8.8c-5.15,1.11-8.63,5.41-8.65,10.68c0,1.45,0.01,2.9-0.01,4.35
		c-0.05,3.7-0.95,7.19-2.71,10.45C10.96,37.13,10.34,38.05,9.76,39z M21.36,41.63c0.34,1.44,2.04,2.61,3.68,2.56
		c1.61-0.05,3.23-1.24,3.48-2.56C26.14,41.63,23.75,41.63,21.36,41.63z M26.24,7.9c0-0.39,0-0.77,0-1.15c0-0.11,0-0.23-0.02-0.34
		c-0.12-0.63-0.63-1.09-1.24-1.11c-0.59-0.02-1.19,0.42-1.27,1.05c-0.07,0.51-0.01,1.04-0.01,1.55C24.54,7.9,25.37,7.9,26.24,7.9z"
		/>
	<path d="M5.59,20.65c0.21-5.08,2.07-9.45,5.63-13.08c0.53-0.54,1.33-0.56,1.85-0.06c0.54,0.52,0.54,1.32-0.04,1.92
		c-1.68,1.71-2.95,3.68-3.79,5.92c-0.71,1.89-1.04,3.86-1.07,5.88c-0.01,0.52-0.24,0.91-0.7,1.15c-0.46,0.24-0.96,0.24-1.32-0.11
		c-0.26-0.24-0.41-0.62-0.54-0.97C5.53,21.1,5.59,20.86,5.59,20.65z"/>
	<path d="M44.31,20.69c0,0.17,0,0.34,0,0.52c-0.01,0.74-0.55,1.29-1.26,1.3c-0.74,0.01-1.3-0.53-1.32-1.29
		c-0.04-2.45-0.51-4.8-1.55-7.03c-0.82-1.77-1.92-3.35-3.28-4.74c-0.69-0.71-0.59-1.71,0.2-2.15c0.54-0.29,1.14-0.19,1.61,0.28
		c2.62,2.67,4.37,5.82,5.15,9.49c0.25,1.18,0.36,2.4,0.53,3.6C44.36,20.68,44.34,20.69,44.31,20.69z"/>
</g>
<g id="Layer_2">
	<path class="st0" d="M25,36.14c-5.91,0.01-11.08-4.19-11.16-11.21c-0.07-6.09,5.04-11.07,11.19-11.07
		c6.11,0.01,11.2,5.01,11.14,11.08C36.08,31.98,30.89,36.16,25,36.14z M25.01,15.8c-4.62-0.03-9.17,3.13-9.31,9.3
		c-0.11,5.02,4.21,9.25,9.29,9.26c5.08,0.01,9.4-4.2,9.31-9.23C34.18,18.97,29.66,15.78,25.01,15.8z"/>
	<path d="M25.29,30.99c1.33,0.04,2.65,0.75,3.58,2.16c0.36,0.55,0.26,1.12-0.22,1.42c-0.47,0.3-0.98,0.15-1.35-0.39
		c-1.2-1.76-3.55-1.76-4.74,0c-0.37,0.54-0.87,0.69-1.35,0.39c-0.48-0.3-0.57-0.86-0.22-1.42C21.82,31.82,23.32,30.99,25.29,30.99z"
		/>
	<path d="M17.1,19.16c0.11-0.82,0.84-1.23,1.53-0.86c0.8,0.43,1.58,0.91,2.37,1.36c0.29,0.17,0.6,0.32,0.88,0.51
		c0.44,0.3,0.57,0.83,0.31,1.26c-0.25,0.43-0.79,0.61-1.25,0.35c-1.11-0.62-2.21-1.25-3.29-1.91C17.43,19.73,17.29,19.4,17.1,19.16z
		"/>
	<path d="M32.41,19.21c-0.2,0.25-0.35,0.58-0.61,0.74c-1.05,0.65-2.13,1.26-3.21,1.86c-0.49,0.27-1.03,0.11-1.29-0.33
		c-0.26-0.45-0.13-0.99,0.36-1.28c1.06-0.63,2.13-1.26,3.21-1.86C31.56,17.96,32.3,18.39,32.41,19.21z"/>
</g>
</svg>
