<?xml version="1.0" encoding="utf-8"?>
<!-- Generator: Adobe Illustrator 24.3.0, SVG Export Plug-In . SVG Version: 6.00 Build 0)  -->
<svg version="1.1" id="Layer_1" xmlns="http://www.w3.org/2000/svg" xmlns:xlink="http://www.w3.org/1999/xlink" x="0px" y="0px"
	 viewBox="0 0 50 50" style="enable-background:new 0 0 50 50;" xml:space="preserve">
<path d="M25.81,6.55c2.36,0.87,3.26,2.12,3.21,4.59c-0.01,0.7,0.22,0.98,0.84,1.27c4.14,1.94,6.59,5.17,7.21,9.73
	c0.54,3.98,1.04,7.96,1.64,11.93c0.37,2.46,1.3,4.71,2.9,6.65c0.55,0.67,0.92,1.4,1.05,2.26c0.19,1.19-0.05,1.88-1.16,2.35
	c-1.18,0.5-2.41,0.94-3.67,1.17c-5.54,1.01-11.14,1.14-16.76,0.88c-3.33-0.15-6.65-0.47-9.88-1.34c-0.92-0.25-1.83-0.6-2.67-1.03
	c-1.21-0.63-1.46-1.33-1.04-2.63c0.16-0.49,0.39-1,0.72-1.39c1.99-2.39,2.91-5.2,3.32-8.22c0.43-3.2,0.88-6.4,1.26-9.61
	c0.22-1.86,0.56-3.67,1.47-5.34c1.42-2.58,3.48-4.46,6.22-5.57c0.37-0.15,0.5-0.33,0.49-0.73c0-0.66-0.01-1.35,0.14-1.98
	c0.34-1.36,1.21-2.32,2.55-2.78c0.44-0.15,0.56-0.35,0.54-0.79c-0.04-0.82-0.02-1.65-0.01-2.47c0.01-0.67,0.29-1,0.82-0.99
	c0.52,0.01,0.79,0.34,0.8,1.01C25.82,4.54,25.81,5.56,25.81,6.55z M40.28,41.69c-0.15-0.21-0.35-0.47-0.54-0.74
	c-1.93-2.72-2.64-5.85-3.03-9.09c-0.41-3.36-0.82-6.73-1.32-10.07c-0.7-4.62-4.62-8.28-9.32-8.79c-4.63-0.51-9.25,2.3-10.88,6.73
	c-0.42,1.14-0.6,2.39-0.77,3.6c-0.45,3.14-0.85,6.28-1.26,9.43c-0.39,3.05-1.25,5.93-3.1,8.45c-0.05,0.06-0.08,0.14-0.04,0.07
	C20.1,39.86,30.2,39.72,40.28,41.69z M40.88,44.04c-0.01-0.09-0.02-0.18-0.03-0.27c-0.49-0.18-0.97-0.39-1.48-0.52
	c-3.15-0.81-6.36-1.09-9.59-1.24c-0.15-0.01-0.37,0.18-0.45,0.33c-0.93,1.77-2.4,2.75-4.39,2.73c-1.97-0.02-3.42-1-4.29-2.78
	c-0.14-0.28-0.28-0.38-0.58-0.35c-2.88,0.28-5.77,0.52-8.65,0.83c-0.78,0.08-1.53,0.38-2.44,0.62c0.26,0.19,0.34,0.27,0.44,0.31
	c0.51,0.2,1.01,0.43,1.53,0.58c3.24,0.92,6.56,1.29,9.91,1.45c5.63,0.26,11.25,0.17,16.81-0.86C38.75,44.68,39.81,44.32,40.88,44.04
	z M27.38,11.45c0.11-1.11,0.01-2.24-1.15-2.95c-0.84-0.51-1.72-0.5-2.55,0.04c-1.11,0.72-1.19,1.83-1.08,2.91
	C24.21,11.45,25.78,11.45,27.38,11.45z M27.69,41.93c-1.84,0-3.57,0-5.4,0c0.68,1.02,1.56,1.5,2.65,1.52
	C26.07,43.47,26.98,42.99,27.69,41.93z"/>
<path d="M35.06,25.69c-0.06,0.32-0.1,0.63-0.18,0.95c-0.27,1.09-0.81,2.03-1.6,2.83c-0.05,0.05-0.11,0.09-0.17,0.14
	c0.26,0.46,0.39,0.92,0.38,1.42c-0.02,1.18-0.94,2.23-2.1,2.42c-0.56,0.09-1.09,0.01-1.59-0.25c-0.12-0.07-0.19-0.05-0.28,0.04
	c-1.37,1.37-2.74,2.74-4.1,4.11c-0.13,0.13-0.26,0.23-0.45,0.18c-0.25-0.06-0.36-0.28-0.28-0.58c0.19-0.7,0.38-1.39,0.56-2.09
	c0.06-0.23,0.12-0.47,0.19-0.7c0.07-0.26,0.28-0.4,0.49-0.34c0.24,0.06,0.35,0.27,0.28,0.54c-0.11,0.41-0.22,0.82-0.33,1.24
	c-0.01,0.04-0.02,0.09-0.02,0.11c1.04-1.04,2.08-2.08,3.14-3.14c-0.22-0.29-0.42-0.65-0.5-1.05c-0.18-0.87,0.03-1.64,0.63-2.28
	c0.49-0.53,1.01-1.02,1.52-1.53c0.21-0.21,0.42-0.21,0.64,0.01c0.44,0.44,0.87,0.87,1.31,1.32c0.69-0.65,1.16-1.41,1.44-2.3
	c0.94-3.05-1.02-6.26-4.16-6.79c-1.04-0.18-2.04-0.05-3.01,0.37c-0.12,0.05-0.19,0.12-0.23,0.26c-0.56,2.13-1.14,4.25-1.71,6.37
	c-0.01,0.05-0.02,0.1-0.03,0.17c0.66,0.18,1.31,0.35,1.96,0.53c0.22,0.06,0.43,0.11,0.65,0.17c0.28,0.08,0.39,0.27,0.32,0.56
	c-0.25,0.94-0.5,1.88-0.76,2.82c-0.08,0.28-0.27,0.42-0.5,0.35c-0.22-0.06-0.35-0.3-0.27-0.57c0.22-0.76,0.41-1.52,0.61-2.28
	c0.02-0.06,0.03-0.12,0.04-0.2c-0.73-0.19-1.43-0.39-2.14-0.58c-0.15-0.04-0.31-0.08-0.46-0.12c-0.3-0.09-0.4-0.27-0.32-0.59
	c0.34-1.27,0.68-2.54,1.02-3.81c0.3-1.1,0.59-2.21,0.89-3.31c0.05-0.17,0.14-0.28,0.3-0.37c3.55-1.82,7.96,0.32,8.71,4.23
	c0.04,0.23,0.08,0.45,0.12,0.68C35.06,24.98,35.06,25.33,35.06,25.69z M30.93,28.53c-0.39,0.39-0.79,0.78-1.18,1.19
	c-0.31,0.31-0.48,0.68-0.51,1.12c-0.05,0.76,0.41,1.47,1.14,1.73c0.74,0.27,1.56,0,2.01-0.64c0.44-0.64,0.42-1.52-0.1-2.09
	C31.86,29.39,31.4,28.98,30.93,28.53z"/>
<path d="M23.51,35.22c0.5-1.87,1-3.73,1.5-5.61c-0.24-0.07-0.48-0.13-0.71-0.19c-0.6-0.16-1.21-0.32-1.81-0.48
	c-0.42-0.11-0.51-0.26-0.4-0.67c0.64-2.38,1.28-4.77,1.92-7.15c0.04-0.15,0.02-0.23-0.11-0.32c-1.75-1.11-3.55-1.22-5.42-0.33
	c-0.05,0.02-0.09,0.05-0.14,0.07c-0.21,0.09-0.43,0.02-0.53-0.16c-0.11-0.2-0.05-0.44,0.17-0.54c0.51-0.22,1.01-0.47,1.54-0.59
	c1.87-0.43,3.59-0.05,5.12,1.11c0.29,0.22,0.32,0.31,0.22,0.66c-0.63,2.34-1.25,4.68-1.88,7.02c-0.02,0.06-0.03,0.11-0.05,0.2
	c0.35,0.1,0.7,0.19,1.04,0.28c0.51,0.14,1.02,0.27,1.52,0.41c0.35,0.09,0.45,0.26,0.35,0.62c-0.58,2.17-1.16,4.34-1.74,6.51
	c-0.11,0.41-0.44,0.5-0.75,0.19c-2.25-2.25-4.51-4.5-6.76-6.76c-1.29-1.3-1.87-2.89-1.77-4.71c0.05-0.88,0.29-1.71,0.71-2.48
	c0.14-0.26,0.4-0.33,0.61-0.18c0.18,0.12,0.22,0.32,0.1,0.54c-0.26,0.5-0.46,1.02-0.55,1.57c-0.28,1.72,0.11,3.28,1.32,4.53
	c2.1,2.18,4.27,4.3,6.41,6.44C23.46,35.18,23.48,35.19,23.51,35.22z"/>
<path d="M25.85,32.67c0-0.22,0.18-0.4,0.4-0.4c0.21,0,0.39,0.18,0.39,0.39c0.01,0.21-0.18,0.41-0.39,0.41
	C26.04,33.08,25.85,32.89,25.85,32.67z"/>
<path d="M17.28,21.12c0,0.22-0.18,0.41-0.4,0.4c-0.21,0-0.4-0.19-0.4-0.41c0-0.21,0.18-0.39,0.39-0.39
	C17.1,20.72,17.28,20.9,17.28,21.12z"/>
</svg>
