<?xml version="1.0" encoding="utf-8"?>
<!-- Generator: Adobe Illustrator 24.3.0, SVG Export Plug-In . SVG Version: 6.00 Build 0)  -->
<svg version="1.1" id="Layer_1" xmlns="http://www.w3.org/2000/svg" xmlns:xlink="http://www.w3.org/1999/xlink" x="0px" y="0px"
	 viewBox="0 0 50 50" style="enable-background:new 0 0 50 50;" xml:space="preserve">
<path d="M23.68,9.68c1.96,0.72,2.7,1.76,2.66,3.81c-0.01,0.58,0.19,0.81,0.7,1.05c3.44,1.61,5.47,4.29,5.98,8.08
	c0.45,3.3,0.87,6.61,1.36,9.9c0.31,2.04,1.08,3.91,2.41,5.52c0.46,0.55,0.76,1.16,0.87,1.88c0.15,0.99-0.04,1.56-0.96,1.95
	c-0.98,0.42-2,0.78-3.05,0.97c-4.6,0.83-9.25,0.94-13.91,0.73c-2.77-0.13-5.52-0.39-8.2-1.11c-0.76-0.2-1.52-0.5-2.22-0.86
	c-1-0.52-1.21-1.11-0.87-2.18c0.13-0.41,0.33-0.83,0.6-1.16c1.65-1.98,2.42-4.31,2.75-6.82c0.36-2.66,0.73-5.31,1.05-7.97
	c0.18-1.55,0.46-3.05,1.22-4.43c1.18-2.14,2.89-3.7,5.16-4.62c0.3-0.12,0.41-0.27,0.41-0.6c0-0.55-0.01-1.12,0.12-1.65
	c0.28-1.13,1-1.93,2.11-2.3c0.36-0.12,0.46-0.29,0.45-0.66c-0.03-0.68-0.02-1.37-0.01-2.05c0.01-0.56,0.24-0.83,0.68-0.82
	c0.43,0,0.66,0.28,0.67,0.84C23.69,8.01,23.68,8.86,23.68,9.68z M35.7,38.86c-0.13-0.17-0.29-0.39-0.45-0.62
	c-1.6-2.26-2.19-4.85-2.52-7.54c-0.34-2.79-0.68-5.58-1.1-8.36c-0.58-3.84-3.83-6.87-7.73-7.3c-3.85-0.42-7.68,1.91-9.03,5.58
	c-0.35,0.95-0.49,1.98-0.64,2.99c-0.38,2.61-0.71,5.22-1.05,7.83c-0.33,2.53-1.04,4.92-2.57,7.01c-0.04,0.05-0.07,0.11-0.03,0.06
	C18.94,37.33,27.33,37.22,35.7,38.86z M36.19,40.81c-0.01-0.08-0.02-0.15-0.02-0.23c-0.41-0.15-0.81-0.33-1.23-0.43
	c-2.61-0.67-5.28-0.91-7.96-1.03c-0.12-0.01-0.31,0.15-0.37,0.28c-0.77,1.47-1.99,2.29-3.65,2.27c-1.63-0.02-2.84-0.83-3.56-2.31
	c-0.11-0.23-0.23-0.31-0.48-0.29c-2.39,0.23-4.79,0.43-7.18,0.69c-0.64,0.07-1.27,0.32-2.03,0.51c0.22,0.16,0.28,0.23,0.36,0.26
	c0.42,0.17,0.84,0.36,1.27,0.48c2.69,0.76,5.45,1.07,8.23,1.2c4.67,0.22,9.34,0.14,13.95-0.71C34.43,41.33,35.31,41.04,36.19,40.81z
	 M24.99,13.75c0.09-0.92,0.01-1.86-0.95-2.45c-0.7-0.43-1.43-0.42-2.12,0.03c-0.92,0.6-0.99,1.52-0.9,2.42
	C22.36,13.75,23.66,13.75,24.99,13.75z M25.24,39.06c-1.53,0-2.96,0-4.48,0c0.56,0.85,1.3,1.25,2.2,1.26
	C23.9,40.33,24.66,39.93,25.24,39.06z"/>
<path d="M12.99,15.35c-0.01,1.29-1.04,2.32-2.33,2.32c-1.29,0-2.37-1.08-2.35-2.36c0.02-1.27,1.08-2.32,2.35-2.32
	C11.97,12.99,13,14.03,12.99,15.35z M11.64,15.34c0.01-0.57-0.41-1-0.97-1c-0.54,0-1,0.46-1,0.99c0,0.52,0.45,0.96,0.96,0.98
	C11.2,16.32,11.63,15.9,11.64,15.34z"/>
<path d="M36.36,12.99c0.23,0,0.45-0.02,0.68,0c0.4,0.03,0.63,0.27,0.64,0.66c0.01,0.37-0.22,0.64-0.58,0.67c-0.5,0.04-1,0.04-1.5,0
	c-0.39-0.03-0.62-0.31-0.59-0.7c0.02-0.36,0.25-0.6,0.62-0.63C35.87,12.97,36.12,12.99,36.36,12.99z"/>
<path d="M40.3,14.33c-0.23,0-0.46,0.02-0.68-0.01c-0.39-0.05-0.63-0.3-0.62-0.69c0.01-0.38,0.25-0.63,0.65-0.65
	c0.45-0.02,0.91-0.02,1.36,0c0.4,0.01,0.62,0.26,0.67,0.64c0.04,0.35-0.26,0.67-0.65,0.7C40.79,14.35,40.55,14.34,40.3,14.33
	C40.3,14.33,40.3,14.33,40.3,14.33z"/>
<path d="M39.04,11.66c-0.01,0.26,0,0.52-0.04,0.78c-0.06,0.37-0.31,0.56-0.68,0.54c-0.36-0.02-0.59-0.22-0.61-0.57
	c-0.03-0.5-0.03-1.01,0-1.51c0.02-0.35,0.26-0.55,0.61-0.57c0.38-0.01,0.62,0.17,0.68,0.55C39.03,11.14,39.02,11.4,39.04,11.66z"/>
<path d="M39,15.68c0,0.24,0.02,0.49-0.01,0.73c-0.05,0.37-0.28,0.58-0.66,0.58c-0.38,0-0.62-0.21-0.64-0.59
	c-0.03-0.5-0.03-1.01,0.01-1.51c0.02-0.36,0.27-0.54,0.62-0.55c0.35-0.01,0.6,0.16,0.66,0.52c0.05,0.27,0.04,0.55,0.05,0.82
	C39.03,15.68,39.01,15.68,39,15.68z"/>
<path d="M11.71,20.71c0.01,0.38-0.31,0.72-0.69,0.75c-0.39,0.02-0.76-0.33-0.76-0.73c0-0.38,0.33-0.7,0.71-0.71
	C11.37,20.01,11.7,20.32,11.71,20.71z"/>
<path d="M40.32,26.01c0.38-0.01,0.72,0.31,0.73,0.7c0.01,0.41-0.28,0.72-0.68,0.73c-0.41,0.01-0.72-0.28-0.73-0.69
	C39.61,26.36,39.93,26.02,40.32,26.01z"/>
<path d="M22.34,26.32c0.91,0,1.82,0.01,2.73,0c0.67-0.01,1.22,0.22,1.54,0.83c0.33,0.61,0.21,1.19-0.16,1.75
	c-1.02,1.52-2.5,2.14-4.26,2.1c-1.63-0.03-3-0.67-3.94-2.06c-0.38-0.56-0.54-1.15-0.19-1.78c0.34-0.63,0.9-0.84,1.59-0.84
	C20.55,26.33,21.44,26.32,22.34,26.32z M22.37,27.67c-0.89,0-1.79-0.01-2.68,0.01c-0.15,0-0.29,0.09-0.44,0.13
	c0.04,0.13,0.06,0.28,0.13,0.4c1.19,1.9,4.67,1.91,5.88,0.02c0.08-0.12,0.09-0.29,0.13-0.44c-0.15-0.04-0.3-0.11-0.45-0.11
	C24.09,27.67,23.23,27.67,22.37,27.67z"/>
<path d="M18.96,21.97c0.95,0.07,1.66,0.48,2.1,1.32c0.2,0.37,0.13,0.7-0.23,0.93c-0.32,0.21-0.75,0.11-0.94-0.29
	c-0.37-0.77-1.46-0.82-1.86,0.02c-0.19,0.39-0.63,0.5-0.95,0.29c-0.36-0.24-0.41-0.57-0.22-0.94C17.3,22.44,18.03,22.04,18.96,21.97
	z"/>
<path d="M28.02,23.76c-0.13,0.15-0.27,0.41-0.48,0.51c-0.29,0.14-0.58,0.03-0.81-0.26c-0.17-0.22-0.37-0.46-0.61-0.59
	c-0.47-0.24-0.9-0.04-1.25,0.51c-0.31,0.48-0.88,0.57-1.15,0.14c-0.1-0.17-0.15-0.44-0.09-0.63c0.25-0.82,1.19-1.45,2.1-1.47
	c0.9-0.02,1.87,0.59,2.17,1.38C27.95,23.45,27.96,23.55,28.02,23.76z"/>
</svg>
