<?xml version="1.0" encoding="utf-8"?>
<!-- Generator: Adobe Illustrator 24.3.0, SVG Export Plug-In . SVG Version: 6.00 Build 0)  -->
<svg version="1.1" id="Layer_1" xmlns="http://www.w3.org/2000/svg" xmlns:xlink="http://www.w3.org/1999/xlink" x="0px" y="0px"
	 viewBox="0 0 50 50" style="enable-background:new 0 0 50 50;" xml:space="preserve">
<path d="M2.02,13.53c0.22-0.33,0.38-0.74,0.68-0.97c0.31-0.24,0.74-0.41,1.13-0.45c0.72-0.07,1.46-0.02,2.24-0.02
	c0-0.61,0-1.18,0-1.74c0-1.35,0.84-2.43,2.19-2.59c0.97-0.11,1.98-0.09,2.95,0.03c1.17,0.14,2.01,1.15,2.06,2.33
	c0.04,0.91,0.02,1.83,0.01,2.74c-0.01,0.45-0.3,0.74-0.68,0.74c-0.38-0.01-0.67-0.32-0.67-0.76c-0.01-0.81,0-1.62-0.01-2.43
	c-0.01-0.83-0.46-1.31-1.3-1.33c-0.63-0.02-1.26-0.02-1.89,0C7.89,9.1,7.42,9.59,7.42,10.45c0,6.94,0,13.88,0,20.82
	c0,0.9,0.49,1.39,1.39,1.4c0.57,0.01,1.14,0.01,1.71,0c0.94-0.01,1.41-0.48,1.41-1.41c0-5.01,0-10.01,0-15.02c0-0.12,0-0.24,0-0.36
	c0.02-0.47,0.3-0.78,0.7-0.78c0.39,0.01,0.65,0.29,0.66,0.75c0.01,0.58,0,1.17,0,1.78c1.07,0,2.11,0,3.22,0c0-0.44,0.01-0.9,0-1.36
	c-0.03-1.1,0.38-1.97,1.35-2.51c0.96-0.54,1.93-0.45,2.84,0.18c0.03,0.02,0.08,0.03,0.11,0.05c1.41-1.29,2.32-1.44,3.77-0.6
	c0.57-0.8,1.31-1.32,2.35-1.3c1.04,0.03,1.77,0.54,2.31,1.45c0.68-0.4,1.4-0.58,2.18-0.37c1.05,0.28,1.83,1.15,1.91,2.24
	c0.05,0.73,0.01,1.47,0.01,2.23c1.18,0,2.29,0,3.47,0c0-0.18,0-0.36,0-0.53c0-2.19,0-4.38,0-6.57c0-1.8,1.06-2.85,2.85-2.84
	c0.76,0,1.54-0.03,2.28,0.08c1.24,0.19,2.07,1.25,2.08,2.5c0,0.58,0,1.16,0,1.81c0.67,0,1.31,0,1.95,0c1.37,0.01,2.1,0.74,2.1,2.11
	c0,4.45,0,8.9,0,13.36c0,1.34-0.74,2.08-2.09,2.08c-0.63,0-1.26,0-1.96,0c0,0.52-0.03,1.03,0.01,1.53c0.13,1.65-1.19,2.98-2.88,2.87
	c-0.54-0.03-1.08,0-1.62-0.01c-1.62-0.01-2.72-1.07-2.73-2.69c-0.02-2.23,0-4.47,0-6.7c0-0.18,0-0.35,0-0.56c-0.78,0-1.52,0-2.31,0
	c0,0.38-0.01,0.75,0,1.12c0.02,0.73-0.23,1.35-0.68,1.9c-0.58,0.71-1.18,1.4-1.73,2.12c-0.16,0.21-0.25,0.49-0.28,0.76
	c-0.05,0.35,0,0.72-0.01,1.08c-0.02,0.44-0.31,0.73-0.7,0.72c-0.37-0.01-0.64-0.29-0.65-0.71c-0.01-0.57-0.03-1.14,0.01-1.71
	c0.01-0.22,0.14-0.46,0.28-0.63c0.62-0.79,1.26-1.56,1.91-2.33c0.36-0.42,0.53-0.88,0.52-1.44c-0.02-1.18,0-2.37-0.01-3.55
	c0-0.65-0.24-0.91-0.89-0.91c-1.83-0.01-3.66-0.01-5.49,0c-0.79,0-1.28,0.46-1.28,1.14c0,0.67,0.51,1.13,1.29,1.14
	c0.93,0.01,1.86,0,2.79,0c0.51,0,0.78,0.23,0.79,0.65c0.01,0.44-0.28,0.7-0.8,0.69c-3.96-0.02-7.91-0.05-11.87-0.08
	c-0.22,0-0.45,0-0.71,0c-0.04,0.88-0.14,1.72,0.56,2.45c0.67,0.7,1.26,1.48,1.86,2.25c0.15,0.2,0.26,0.48,0.26,0.73
	c0.02,4.02,0.01,8.03,0.01,12.05c0,0.53-0.25,0.84-0.66,0.85c-0.42,0.01-0.7-0.32-0.7-0.86c0-3.84,0-7.67-0.01-11.51
	c0-0.27-0.13-0.58-0.29-0.8c-0.49-0.66-1.02-1.3-1.56-1.91c-0.6-0.67-0.9-1.43-0.84-2.34c0.02-0.28,0-0.57,0-0.88
	c-0.77,0-1.51,0-2.31,0c0,0.18,0,0.35,0,0.53c0,2.17-0.04,4.35,0.01,6.52c0.05,1.95-1.42,3.02-2.9,2.91c-0.58-0.04-1.17,0-1.75-0.01
	c-1.46-0.02-2.57-1.15-2.58-2.61c0-0.57,0-1.14,0-1.78c-0.58,0-1.15-0.04-1.71,0.01c-1.15,0.09-1.93-0.37-2.34-1.46
	C2.02,23.31,2.02,18.42,2.02,13.53z M44.02,13.44c0,0.22,0,0.38,0,0.54c0,3.06,0,6.11,0,9.17c0,0.13,0.01,0.27-0.01,0.4
	c-0.06,0.38-0.28,0.59-0.67,0.59c-0.39,0-0.61-0.22-0.66-0.6c-0.02-0.13-0.01-0.27-0.01-0.4c0-4.21,0-8.42,0-12.63
	c0-0.94-0.46-1.42-1.39-1.43c-0.6-0.01-1.2-0.01-1.8,0c-0.86,0.02-1.32,0.49-1.32,1.36c0,6.95,0,13.9,0,20.86
	c0,0.88,0.47,1.36,1.35,1.38c0.55,0.01,1.11,0,1.66,0c1.02-0.01,1.49-0.47,1.49-1.48c0-1.56,0-3.12,0-4.67
	c0-0.54,0.23-0.83,0.66-0.84c0.44-0.01,0.68,0.29,0.69,0.85c0,0.58,0,1.16,0,1.72c0.09,0.02,0.12,0.03,0.15,0.04
	c0.55,0,1.11,0.01,1.66,0.01c0.76,0,0.89-0.13,0.89-0.88c0-4.36,0-8.72,0-13.08c0-0.1,0.01-0.21,0-0.31
	c-0.03-0.35-0.21-0.56-0.57-0.57C45.46,13.43,44.77,13.44,44.02,13.44z M6.05,13.44c-0.62,0-1.2,0-1.78,0c-0.75,0-0.9,0.14-0.9,0.88
	c0,4.36,0,8.72,0,13.08c0,0.13-0.05,0.3,0.02,0.4c0.12,0.18,0.29,0.45,0.46,0.46c0.73,0.05,1.46,0.02,2.2,0.02
	C6.05,23.32,6.05,18.41,6.05,13.44z M13.32,22.69c3.69,0,7.33,0,11.02,0c-0.28-0.75-0.27-1.47,0-2.08
	c-0.57,0.07-1.17,0.25-1.73,0.17c-0.56-0.08-1.08-0.44-1.65-0.69c-1.49,1.26-3.27,0.94-4.25-0.83c-0.05-0.1-0.18-0.21-0.28-0.22
	c-1.03-0.02-2.06-0.01-3.11-0.01C13.32,20.27,13.32,21.46,13.32,22.69z M28.11,16.46C28.11,16.46,28.11,16.46,28.11,16.46
	c0-0.6,0.01-1.2-0.01-1.79c-0.01-0.55-0.3-0.93-0.8-1.13c-0.82-0.32-1.65,0.24-1.68,1.17c-0.04,1.16-0.01,2.33-0.01,3.5
	c0,0.1,0.03,0.21,0.05,0.31c0.12,0.51,0.32,0.65,0.83,0.62c0.22-0.01,0.45-0.01,0.67-0.01c0.72,0,0.94-0.22,0.95-0.96
	C28.12,17.6,28.11,17.03,28.11,16.46z M24.24,16.87c0-0.43,0-0.87,0-1.3c0-0.03,0-0.06,0-0.09c-0.03-0.65-0.52-1.17-1.15-1.22
	c-0.63-0.05-1.26,0.37-1.31,1.03c-0.07,1.04-0.07,2.09,0,3.13c0.04,0.66,0.67,1.1,1.29,1.05c0.65-0.05,1.15-0.58,1.17-1.25
	C24.25,17.76,24.24,17.32,24.24,16.87z M31.98,16.96c0-0.43,0-0.87,0-1.3c0-0.03,0-0.06,0-0.09c-0.06-0.59-0.55-1.07-1.16-1.12
	c-0.56-0.05-1.23,0.37-1.26,0.93c-0.06,1.04-0.05,2.09-0.01,3.14c0.02,0.4,0.27,0.68,0.76,0.62c0.27-0.03,0.54-0.01,0.81-0.01
	c0.6,0,0.83-0.21,0.86-0.82C32,17.86,31.98,17.41,31.98,16.96z M20.37,17.16c0-0.37,0.01-0.75,0-1.12c-0.02-0.68-0.52-1.2-1.17-1.25
	c-0.62-0.05-1.24,0.39-1.3,1.05c-0.07,0.84-0.07,1.7-0.01,2.55c0.05,0.68,0.69,1.14,1.32,1.07c0.65-0.06,1.13-0.59,1.15-1.27
	C20.38,17.85,20.37,17.51,20.37,17.16z M34.48,22.68c0.8,0,1.54,0,2.28,0c0-1.22,0-2.41,0-3.6c-1.11-0.17-3.41-0.07-3.62,0.18
	C34.75,19.92,34.49,21.34,34.48,22.68z"/>
<path d="M30.43,37.82c0-1.23,0-2.45,0-3.68c0-0.55,0.22-0.82,0.66-0.83c0.45-0.01,0.69,0.29,0.69,0.85c0,2.45,0,4.91,0,7.36
	c0,0.54-0.27,0.87-0.69,0.87c-0.41-0.01-0.66-0.32-0.66-0.84C30.43,40.3,30.43,39.06,30.43,37.82z"/>
</svg>
