<?xml version="1.0" encoding="utf-8"?>
<!-- Generator: Adobe Illustrator 24.3.0, SVG Export Plug-In . SVG Version: 6.00 Build 0)  -->
<svg version="1.1" id="Layer_1" xmlns="http://www.w3.org/2000/svg" xmlns:xlink="http://www.w3.org/1999/xlink" x="0px" y="0px"
	 viewBox="0 0 50 50" style="enable-background:new 0 0 50 50;" xml:space="preserve">
<style type="text/css">
	.st0{fill:#FFFFFF;}
</style>
<path d="M18.61,42c-0.13-0.79-0.26-1.56-0.4-2.33c-0.02-0.11-0.12-0.22-0.22-0.28c-0.56-0.39-1.12-0.76-1.58-1.07
	c-0.61,0.18-1.15,0.34-1.69,0.5c-0.01-0.04-0.03-0.09-0.04-0.13c-0.02,0.03-0.06,0.06-0.05,0.08c0.2,1.23-0.14,1.84-1.33,2.25
	c-1.31,0.45-2.61,0.38-3.87-0.18c-1.35-0.6-1.78-1.76-1.16-3.09c0.22-0.48,0.59-0.9,0.84-1.37c0.1-0.19,0.15-0.45,0.1-0.66
	c-0.3-1.25-0.74-2.47-0.92-3.74c-0.31-2.25,0.31-4.28,1.79-6.04c0.17-0.2,0.28-0.5,0.29-0.77c0.2-3.49,1.38-6.59,3.6-9.29
	c0.35-0.43,0.08-0.62-0.18-0.92c-0.67,0.57-1.32,1.12-1.97,1.68c-1.02,0.87-2.03,0.65-2.58-0.57c-1.18-2.61-0.47-5.89,1.67-7.76
	c2.23-1.95,5.51-2.22,7.99-0.68c1.25,0.78,1.33,1.81,0.21,2.76c-0.61,0.52-1.22,1.04-1.82,1.57c0.26,0.51,0.56,0.55,1.03,0.27
	c1.6-0.94,3.34-1.54,5.17-1.84c0.83-0.13,0.84-0.15,0.79-1.04c-0.03-0.02-0.05-0.06-0.08-0.06c-1.2-0.16-1.67-0.92-1.27-2.08
	c0.15-0.43,0.48-0.67,0.94-0.67c1.45-0.01,2.9-0.02,4.34,0c0.59,0.01,0.94,0.4,0.98,1c0.08,1.27-0.09,1.5-1.32,1.8
	c-0.1,0.87-0.06,0.93,0.73,1.05c1.86,0.3,3.61,0.9,5.23,1.85c0.46,0.27,0.74,0.23,1-0.27c-0.61-0.53-1.23-1.06-1.85-1.59
	c-1.07-0.91-1-1.95,0.19-2.7c2.5-1.58,5.83-1.32,8.04,0.63c2.22,1.97,2.9,5.26,1.62,7.89c-0.51,1.06-1.52,1.28-2.42,0.53
	c-0.49-0.41-0.98-0.84-1.47-1.26c-0.19-0.16-0.38-0.32-0.58-0.49c-0.39,0.3-0.47,0.55-0.13,0.97c2.21,2.68,3.35,5.79,3.55,9.25
	c0.01,0.25,0.1,0.54,0.26,0.72c1.48,1.75,2.11,3.79,1.8,6.04c-0.17,1.25-0.57,2.46-0.92,3.68c-0.1,0.33-0.08,0.54,0.13,0.81
	c0.32,0.42,0.63,0.88,0.84,1.36c0.57,1.29,0.15,2.38-1.13,2.98c-1.23,0.58-2.52,0.65-3.82,0.25c-1.26-0.39-1.65-1.04-1.47-2.25
	c-0.55-0.15-1.09-0.29-1.76-0.47c-0.42,0.28-1,0.66-1.57,1.05c-0.1,0.07-0.2,0.18-0.22,0.28c-0.14,0.77-0.26,1.54-0.4,2.35
	c0.19,0.05,0.34,0.08,0.49,0.13c0.48,0.18,1,0.3,1.44,0.55c1.3,0.77,1.32,2.39,0.07,3.23c-1.78,1.2-5.31,0.91-6.75-0.67
	c-0.53-0.58-0.77-1.42-1.11-2.16c-0.17-0.37-0.22-0.8-0.38-1.17c-0.06-0.15-0.28-0.29-0.45-0.32c-0.33-0.05-0.68,0-1.02,0
	c-0.92-0.01-0.92-0.01-1.2,0.9c-0.12,0.39-0.26,0.78-0.37,1.18c-0.47,1.66-1.68,2.47-3.27,2.81c-1.43,0.3-2.85,0.27-4.18-0.43
	c-0.94-0.5-1.32-1.38-1.04-2.28c0.2-0.64,0.69-1.04,1.29-1.28C17.55,42.29,18.06,42.17,18.61,42z M38.47,25.88
	c0.03-6.6-5.46-12.36-12.44-12.34c-6.79,0.01-12.29,5.59-12.27,12.43c0.02,6.83,5.56,12.33,12.39,12.31
	C32.93,38.26,38.5,32.65,38.47,25.88z M31.92,12.17C27,9.93,20.17,10.62,15.47,15.33c-4.78,4.79-5.06,11.51-3.51,15.33
	c-1.22-5.82,0.09-10.97,4.51-15.08C20.91,11.45,26.16,10.54,31.92,12.17z M10.42,16.54c-0.74-2.29-0.68-4.38,0.63-6.31
	c1.33-1.95,3.22-2.84,5.59-2.87c-2.45-0.69-5.62,0.59-6.84,3.28C8.87,12.7,9.1,15.81,10.42,16.54z M10.34,27.05
	c-1.74,1.99-1.68,5.94-0.56,8.58c0.79-0.27,0.78-0.27,0.55-1.02c-0.14-0.46-0.31-0.92-0.38-1.39c-0.06-0.38-0.03-0.8,0.05-1.18
	c0.12-0.55,0.1-1.05-0.17-1.55c-0.11-0.2-0.2-0.47-0.17-0.69c0.08-0.58,0.21-1.15,0.35-1.72C10.07,27.78,10.19,27.49,10.34,27.05z
	 M34.71,7.61c-0.02-0.04-0.05-0.08-0.07-0.11c-0.42,0.22-0.86,0.42-1.26,0.68c-0.79,0.5-0.84,1.12-0.14,1.73
	c0.8,0.71,1.63,1.39,2.44,2.09c1.68,1.44,3.36,2.89,5.05,4.32c0.2,0.17,0.46,0.25,0.7,0.37c0.05-0.06,0.09-0.12,0.14-0.19
	c-0.11-0.08-0.23-0.15-0.34-0.24c-0.91-0.78-1.82-1.56-2.73-2.33c-1.48-1.27-2.96-2.53-4.44-3.8c-0.78-0.67-0.73-1.56,0.11-2.16
	C34.34,7.84,34.53,7.73,34.71,7.61z M28.4,7.24c0-0.03,0-0.06,0-0.08c-0.06-0.02-0.13-0.05-0.19-0.05c-1.41,0-2.82-0.02-4.22,0.01
	c-0.19,0-0.5,0.26-0.53,0.44c-0.06,0.37-0.18,0.84,0.34,1.17c0.08-0.46,0.13-0.84,0.21-1.21c0.03-0.11,0.15-0.26,0.24-0.27
	c0.33-0.03,0.66,0,0.99,0C26.31,7.24,27.36,7.24,28.4,7.24z M18.82,43.6c-0.66-0.31-1.57-0.06-1.87,0.48
	C17.54,44.36,18.35,44.17,18.82,43.6z M33.34,43.59c0.44,0.59,1.36,0.8,1.87,0.46C34.82,43.52,34.01,43.31,33.34,43.59z
	 M35.09,12.84c0.89,0.76,1.69,1.45,2.54,2.18C37.61,14.52,35.69,12.87,35.09,12.84z M17.02,12.89c-0.54-0.09-2.48,1.6-2.42,2.09
	C15.41,14.28,16.2,13.59,17.02,12.89z M24.79,9.94c0.03,0.04,0.05,0.07,0.08,0.11c0.68,0,1.36,0,2.18,0
	c-0.61-0.65-1.26-0.36-1.83-0.4C25.08,9.64,24.93,9.84,24.79,9.94z M14.67,36.74c-0.53-0.63-0.96-1.16-1.45-1.75
	C13.18,35.93,13.5,36.31,14.67,36.74z M37.54,36.69c1.07-0.29,1.54-0.86,1.32-1.58C38.43,35.62,38.02,36.12,37.54,36.69z"/>
<path d="M21.49,5.34c0.01,0.65-0.5,1.17-1.14,1.18c-0.63,0.01-1.16-0.51-1.16-1.15c-0.01-0.65,0.5-1.17,1.13-1.18
	C20.95,4.18,21.48,4.7,21.49,5.34z M21.02,5.5c0-0.08,0-0.17,0.01-0.25c-0.23-0.17-0.44-0.43-0.68-0.47
	c-0.34-0.06-0.6,0.18-0.6,0.57c0,0.38,0.23,0.65,0.58,0.61C20.57,5.92,20.79,5.66,21.02,5.5z"/>
<path d="M43.85,20.92c-0.64,0.01-1.17-0.49-1.18-1.13c-0.01-0.64,0.5-1.17,1.13-1.19c0.63-0.02,1.17,0.5,1.18,1.14
	C45,20.39,44.5,20.91,43.85,20.92z M43.82,19.17c-0.38,0.04-0.65,0.26-0.57,0.62c0.05,0.23,0.34,0.51,0.57,0.57
	c0.36,0.08,0.6-0.2,0.61-0.58C44.44,19.39,44.2,19.2,43.82,19.17z"/>
<path d="M31.16,6.57C30.9,6.37,30.7,6.23,30.5,6.08c0.16-0.18,0.32-0.35,0.47-0.53c0,0,0.01,0.01,0.01,0.01
	c0.15-0.2,0.31-0.41,0.46-0.61c0.18,0.17,0.35,0.33,0.53,0.5c-0.01,0.01-0.03,0.02-0.04,0.03c0.19,0.1,0.4,0.18,0.57,0.31
	c0.05,0.04,0.02,0.26-0.04,0.34c-0.29,0.31-0.61,0.59-0.92,0.89C31.41,6.85,31.27,6.69,31.16,6.57z"/>
<path d="M8.68,19.28c0.02,0.24,0.03,0.47,0.05,0.71c-0.24,0-0.47,0-0.71,0c0-0.01,0-0.01,0-0.02c-0.25,0.01-0.5,0.03-0.76,0.04
	c0.01-0.24,0.02-0.48,0.03-0.71c-0.01,0-0.02,0-0.03,0c0-0.25,0-0.5,0-0.75c0.24,0.02,0.48,0.03,0.71,0.05
	c0.24-0.02,0.48-0.04,0.72-0.07c0,0.23,0,0.47,0,0.7C8.69,19.25,8.69,19.26,8.68,19.28z"/>
<path d="M6.6,7.68C6.4,7.33,6.2,7.12,6.22,6.95c0.02-0.15,0.3-0.39,0.44-0.38C6.82,6.58,7.07,6.85,7.07,7
	C7.07,7.18,6.84,7.35,6.6,7.68z"/>
<path d="M44.73,7.95c-0.19-0.32-0.4-0.52-0.39-0.69c0.01-0.15,0.32-0.41,0.43-0.38c0.18,0.05,0.39,0.29,0.41,0.47
	C45.2,7.49,44.95,7.66,44.73,7.95z"/>
<path d="M25.57,23.58c-1.19,2.12-3.59,2.96-5.33,1.93c-1.73-1.03-2.25-3.58-1.06-5.52C21.29,21.18,23.42,22.37,25.57,23.58z
	 M23.98,23.75c-0.04-0.39-0.27-0.63-0.68-0.67c-0.39-0.04-0.73,0.3-0.71,0.7c0.01,0.42,0.24,0.66,0.66,0.69
	C23.63,24.49,23.97,24.16,23.98,23.75z M22.32,24.06c-0.21-0.12-0.35-0.26-0.45-0.24c-0.11,0.02-0.19,0.19-0.29,0.29
	c0.11,0.09,0.21,0.25,0.32,0.26C22.01,24.36,22.12,24.21,22.32,24.06z"/>
<path d="M32.95,20.01c1.22,2.02,0.63,4.65-1.21,5.6c-1.77,0.92-4.32-0.07-5.15-2.03C28.7,22.4,30.81,21.22,32.95,20.01z M29.54,23.8
	c-0.04-0.41-0.26-0.66-0.68-0.68c-0.4-0.02-0.73,0.31-0.72,0.69c0.01,0.38,0.36,0.72,0.74,0.68C29.3,24.46,29.51,24.2,29.54,23.8z
	 M30.66,24.08c-0.2-0.12-0.32-0.27-0.43-0.25c-0.11,0.02-0.27,0.2-0.26,0.29c0.01,0.1,0.18,0.27,0.29,0.27
	C30.36,24.4,30.47,24.23,30.66,24.08z"/>
<path d="M23.61,29.79c0.78-1.31,2.78-2.05,4.06-1.51c0.18,0.08,0.38,0.4,0.36,0.59c-0.02,0.32-0.32,0.41-0.62,0.29
	c-1.34-0.56-2.54-0.31-3.64,0.59C23.76,29.76,23.72,29.76,23.61,29.79z"/>
<path d="M20.81,16.33c0.15,0,0.18-0.01,0.18,0c0.31,0.54,0.63,1.08,0.94,1.62c-0.17,0.02-0.45,0.12-0.51,0.05
	c-0.29-0.38-0.54-0.79-0.75-1.21C20.63,16.67,20.77,16.46,20.81,16.33z"/>
<path d="M18.34,21.15c-0.19,0.05-0.39,0.18-0.51,0.13c-0.4-0.17-0.79-0.4-1.16-0.64c-0.1-0.06-0.18-0.29-0.14-0.39
	c0.04-0.1,0.28-0.23,0.36-0.2c0.45,0.23,0.88,0.51,1.32,0.78C18.24,20.86,18.25,20.96,18.34,21.15z"/>
<path d="M31.29,33.32c0.23,0.36,0.47,0.72,0.67,1.09c0.1,0.19,0.11,0.42,0.17,0.63c-0.16,0-0.42,0.06-0.48-0.01
	c-0.27-0.38-0.5-0.78-0.69-1.2c-0.05-0.11,0.07-0.31,0.11-0.47C31.14,33.35,31.22,33.34,31.29,33.32z"/>
<path d="M34.27,21.11c-0.13-0.11-0.27-0.17-0.29-0.26c-0.03-0.09,0.02-0.27,0.1-0.32c0.4-0.26,0.82-0.5,1.24-0.72
	c0.08-0.04,0.26,0.01,0.32,0.08c0.06,0.07,0.08,0.29,0.04,0.33C35.23,20.52,34.76,20.8,34.27,21.11z"/>
<path d="M35.81,31.09c-0.21,0.06-0.41,0.19-0.52,0.14c-0.42-0.19-0.81-0.44-1.2-0.69c-0.08-0.05-0.12-0.25-0.09-0.36
	c0.02-0.08,0.23-0.18,0.29-0.15c0.46,0.23,0.9,0.49,1.34,0.75C35.69,30.81,35.71,30.9,35.81,31.09z"/>
<path d="M17.05,31.74c-0.13-0.1-0.27-0.15-0.29-0.24c-0.03-0.1,0.01-0.28,0.09-0.33c0.4-0.26,0.82-0.5,1.25-0.72
	c0.08-0.04,0.27,0.02,0.32,0.09c0.06,0.08,0.06,0.3,0.01,0.33C17.98,31.17,17.52,31.44,17.05,31.74z"/>
<path d="M15.88,25.75c-0.16,0.01-0.33,0.07-0.48,0.02c-0.16-0.05-0.28-0.19-0.42-0.29c0.13-0.12,0.24-0.34,0.38-0.35
	c0.41-0.03,0.82,0.01,1.22,0.06c0.1,0.01,0.19,0.16,0.29,0.25c-0.1,0.1-0.18,0.27-0.3,0.29C16.35,25.78,16.11,25.75,15.88,25.75z"/>
<path d="M30.7,17.81c-0.05-0.19-0.16-0.35-0.12-0.45c0.15-0.39,0.32-0.78,0.54-1.14c0.06-0.11,0.28-0.18,0.42-0.17
	c0.07,0.01,0.2,0.29,0.16,0.37c-0.22,0.42-0.48,0.82-0.73,1.23C30.93,17.69,30.86,17.71,30.7,17.81z"/>
<path d="M36.24,25.18c0.2,0,0.4-0.04,0.59,0.01c0.12,0.03,0.21,0.18,0.32,0.28c-0.11,0.09-0.22,0.25-0.34,0.26
	c-0.39,0.03-0.79,0.03-1.18,0c-0.12-0.01-0.23-0.17-0.34-0.26c0.12-0.1,0.22-0.25,0.36-0.29C35.83,25.14,36.04,25.18,36.24,25.18
	C36.24,25.18,36.24,25.18,36.24,25.18z"/>
<path d="M21.47,33.86c-0.09,0.25-0.16,0.51-0.28,0.74c-0.11,0.22-0.26,0.41-0.41,0.61c-0.04,0.06-0.14,0.08-0.2,0.12
	c-0.05-0.08-0.15-0.2-0.13-0.25c0.24-0.45,0.5-0.9,0.75-1.34C21.29,33.78,21.38,33.82,21.47,33.86z"/>
<path d="M25.76,36.7c0-0.54,0-1.09,0-1.72C26.12,35.36,26.14,36.28,25.76,36.7z"/>
<path d="M25.98,14.87c0,0.53,0,1.05,0,1.64C25.59,16.18,25.55,15.29,25.98,14.87z"/>
<path class="st0" d="M23.98,23.75c0,0.4-0.35,0.74-0.73,0.72c-0.42-0.03-0.64-0.28-0.66-0.69c-0.01-0.4,0.32-0.73,0.71-0.7
	C23.7,23.12,23.94,23.36,23.98,23.75z"/>
<path class="st0" d="M22.32,24.06c-0.2,0.15-0.31,0.31-0.42,0.3c-0.11,0-0.22-0.16-0.32-0.26c0.09-0.1,0.18-0.27,0.29-0.29
	C21.97,23.79,22.1,23.93,22.32,24.06z"/>
<path class="st0" d="M29.54,23.8c-0.03,0.41-0.24,0.66-0.66,0.7c-0.38,0.03-0.73-0.3-0.74-0.68c-0.01-0.38,0.32-0.71,0.72-0.69
	C29.28,23.14,29.5,23.38,29.54,23.8z"/>
<path class="st0" d="M30.66,24.08c-0.18,0.15-0.29,0.31-0.4,0.31c-0.11-0.01-0.28-0.17-0.29-0.27c-0.01-0.1,0.15-0.27,0.26-0.29
	C30.33,23.81,30.46,23.96,30.66,24.08z"/>
</svg>
