<?xml version="1.0" encoding="utf-8"?>
<!-- Generator: Adobe Illustrator 24.3.0, SVG Export Plug-In . SVG Version: 6.00 Build 0)  -->
<svg version="1.1" id="Layer_1" xmlns="http://www.w3.org/2000/svg" xmlns:xlink="http://www.w3.org/1999/xlink" x="0px" y="0px"
	 viewBox="0 0 50 50" style="enable-background:new 0 0 50 50;" xml:space="preserve">
<path d="M3.09,25.21c0-11.95,9.68-21.61,21.64-21.62c11.99,0,21.67,9.67,21.66,21.65c-0.01,11.94-9.7,21.6-21.67,21.59
	C12.77,46.83,3.09,37.16,3.09,25.21z M24.73,5.13C13.66,5.16,4.63,14.19,4.64,25.22c0.01,11.04,9.05,20.07,20.1,20.07
	c11.07,0.01,20.16-9.09,20.11-20.11C44.81,14.12,35.77,5.11,24.73,5.13z"/>
<path d="M43.31,25.22c0,10.22-8.32,18.52-18.56,18.52c-10.26,0-18.57-8.31-18.56-18.57c0.01-10.22,8.33-18.5,18.58-18.5
	C35.01,6.69,43.31,14.99,43.31,25.22z M41.71,24.4c-0.09-4.01-2.08-8.31-4.43-10.58c-0.44,0.37-0.86,1.08-1.53,0.49
	c-0.78-0.69,0.05-1.16,0.44-1.66c-3.06-2.71-6.58-4.17-10.65-4.4c-0.09,0.61,0.19,1.47-0.78,1.49c-1.02,0.02-0.71-0.89-0.81-1.49
	c-4.09,0.24-7.62,1.7-10.64,4.41c0.77,0.87,0.9,1.27,0.5,1.62c-0.73,0.63-1.14-0.08-1.64-0.49c-2.71,3.04-4.18,6.56-4.41,10.62
	c0.6,0.1,1.45-0.18,1.49,0.75c0.04,1.04-0.88,0.75-1.49,0.85c0.25,4.09,1.71,7.61,4.42,10.62c0.84-0.76,1.24-0.91,1.59-0.52
	c0.68,0.73-0.05,1.16-0.46,1.66c3.05,2.71,6.57,4.17,10.64,4.4c0.08-0.62-0.18-1.46,0.76-1.49c1.02-0.03,0.75,0.86,0.84,1.49
	c4.08-0.24,7.6-1.7,10.64-4.4c-0.4-0.49-1.14-0.92-0.51-1.6c0.69-0.72,1.14,0.08,1.65,0.45c2.71-3.05,4.18-6.56,4.39-10.6
	c-1.26-0.14-1.52-0.29-1.51-0.84C40.23,24.66,40.45,24.54,41.71,24.4z"/>
<path d="M18.72,32.32c-0.78,0.78-1.56,1.56-2.34,2.35c-0.11,0.11-0.22,0.23-0.34,0.34c-0.36,0.32-0.82,0.32-1.13,0.01
	c-0.31-0.31-0.31-0.77,0.03-1.12c0.88-0.89,1.77-1.77,2.69-2.68c-2.24-2.93-2.87-6.14-1.44-9.56c1.42-3.4,4.13-5.23,7.79-5.71
	c0-0.98,0-1.95,0-2.91c0-0.61,0.28-0.95,0.78-0.94c0.5,0,0.76,0.33,0.76,0.96c0,0.92,0,1.83,0,2.75c0,0.03,0.01,0.06,0.03,0.14
	c3.72,0.5,6.44,2.42,7.86,5.95c0.99,2.48,0.83,4.97-0.32,7.39C30.74,34.22,23.87,36.47,18.72,32.32z M32.48,25.2
	c-0.03-4.27-3.53-7.74-7.77-7.71c-4.27,0.03-7.72,3.52-7.7,7.78c0.02,4.23,3.57,7.7,7.82,7.66C29.03,32.89,32.51,29.38,32.48,25.2z"
	/>
<path d="M24.75,29.84c-1.71,0-3.32-1.18-3.83-2.8c-0.13-0.43,0.04-0.83,0.43-1c0.39-0.16,0.78-0.01,1.01,0.4
	c0.16,0.29,0.3,0.61,0.5,0.87c1,1.32,2.8,1.3,3.78-0.03c0.19-0.26,0.32-0.55,0.47-0.83c0.22-0.41,0.61-0.58,1-0.42
	c0.39,0.16,0.6,0.57,0.44,0.99C28.04,28.43,26.75,29.87,24.75,29.84z"/>
<path d="M22.42,23.69c-0.01,0.43-0.35,0.75-0.78,0.75c-0.45,0-0.78-0.36-0.76-0.81c0.02-0.43,0.37-0.74,0.8-0.72
	C22.11,22.92,22.43,23.26,22.42,23.69z"/>
<path d="M27.85,22.9c0.43,0,0.76,0.33,0.76,0.77c0,0.45-0.35,0.79-0.8,0.77c-0.43-0.02-0.75-0.36-0.74-0.79
	C27.08,23.22,27.41,22.89,27.85,22.9z"/>
</svg>
