<?xml version="1.0" encoding="utf-8"?>
<!-- Generator: Adobe Illustrator 24.3.0, SVG Export Plug-In . SVG Version: 6.00 Build 0)  -->
<svg version="1.1" id="Layer_1" xmlns="http://www.w3.org/2000/svg" xmlns:xlink="http://www.w3.org/1999/xlink" x="0px" y="0px"
	 viewBox="0 0 50 50" style="enable-background:new 0 0 50 50;" xml:space="preserve">
<path d="M30.25,38.66c0.01-4.45,3.61-8.04,8.05-8.03c4.39,0.01,8.01,3.67,7.99,8.06c-0.02,4.41-3.63,7.99-8.05,7.99
	C33.81,46.67,30.24,43.09,30.25,38.66z M37.72,34.47c-0.21,0.06-0.36,0.09-0.5,0.15c-0.86,0.34-1.48,0.9-1.61,1.85
	c-0.13,0.99,0.37,1.68,1.18,2.17c0.31,0.18,0.66,0.3,0.99,0.43c0.46,0.18,0.94,0.33,1.39,0.53c0.39,0.17,0.68,0.46,0.69,0.93
	c0,0.49-0.26,0.82-0.67,1.05c-0.73,0.41-1.84,0.26-2.43-0.36c-0.26-0.27-0.53-0.39-0.82-0.11c-0.29,0.27-0.24,0.62,0.04,0.83
	c0.43,0.32,0.89,0.61,1.38,0.81c0.29,0.11,0.38,0.22,0.36,0.5c-0.02,0.23-0.01,0.45,0,0.68c0.03,0.33,0.21,0.55,0.55,0.54
	c0.33-0.01,0.52-0.22,0.52-0.57c0-0.15,0.02-0.31,0-0.45c-0.06-0.42,0.07-0.62,0.51-0.76c0.97-0.31,1.57-1.01,1.62-2.07
	c0.05-1.01-0.51-1.64-1.38-2.03c-0.47-0.21-0.97-0.34-1.44-0.54c-0.36-0.15-0.73-0.3-1.03-0.54c-0.57-0.44-0.56-1.15,0.01-1.58
	c0.27-0.21,0.64-0.35,0.99-0.39c0.67-0.07,1.29,0.09,1.76,0.63c0.21,0.24,0.48,0.26,0.73,0.07c0.27-0.21,0.31-0.51,0.07-0.75
	c-0.3-0.29-0.64-0.54-0.99-0.76c-0.24-0.14-0.53-0.19-0.85-0.29c0-0.32,0-0.65,0-0.98c0-0.35-0.15-0.59-0.53-0.6
	c-0.39-0.01-0.53,0.25-0.54,0.59C37.71,33.79,37.72,34.12,37.72,34.47z"/>
<path d="M18.98,20.68c-0.87,0-1.71,0-2.58,0c0-5.79,0-11.55,0-17.35c0.85,0,1.7,0,2.58,0C18.98,9.1,18.98,14.86,18.98,20.68z"/>
<path d="M20.14,8.31C20.12,8.24,20.1,8.2,20.1,8.16C20.04,7.21,20.04,7.21,20.97,7c10.05-2.3,20.29,4.17,22.54,14.23
	c0.72,3.22,0.63,6.41-0.28,9.58c-0.01,0.04-0.03,0.08-0.07,0.16c-0.27-0.15-0.55-0.26-0.78-0.44c-0.09-0.07-0.12-0.31-0.09-0.45
	c0.4-1.59,0.62-3.2,0.58-4.84c-0.12-5.13-2.05-9.45-5.81-12.93c-2.83-2.61-6.2-4.1-10.01-4.55c-2.21-0.26-4.4-0.08-6.56,0.48
	C20.38,8.27,20.26,8.29,20.14,8.31z"/>
<path d="M12.65,20.68c-0.88,0-1.72,0-2.59,0c0-4.21,0-8.4,0-12.62c0.86,0,1.71,0,2.59,0C12.65,12.26,12.65,16.44,12.65,20.68z"/>
<path d="M7.13,31.39c0.35-0.09,0.67-0.17,1.02-0.26c1.61,4.49,4.46,7.91,8.67,10.12c4.2,2.2,8.62,2.56,13.22,1.34
	c0.09,0.16,0.17,0.31,0.26,0.47c0.09,0.16,0.18,0.31,0.27,0.47C21.49,46.52,10.38,41.6,7.13,31.39z"/>
<path d="M3.71,20.7c0-2.67,0-5.27,0-7.94c0.82,0,1.61,0,2.41,0c0.32,0,0.23,0.26,0.23,0.43c0.01,2.04,0.01,4.08,0,6.12
	c0,0.45,0.12,1.04-0.12,1.3c-0.2,0.22-0.82,0.08-1.25,0.09C4.58,20.71,4.17,20.7,3.71,20.7z"/>
<path d="M9.98,29.52C8.19,30,6.47,30.46,4.67,30.94c0.5-1.76,0.97-3.43,1.46-5.17C7.42,27.04,8.67,28.25,9.98,29.52z"/>
<path d="M27.27,24.03c-0.27-0.27-0.5-0.5-0.76-0.76c0.04-0.05,0.12-0.14,0.21-0.23c2.23-2.23,4.46-4.46,6.69-6.69
	c0.1-0.1,0.2-0.24,0.31-0.25c0.2-0.02,0.5-0.04,0.61,0.08c0.13,0.14,0.12,0.42,0.12,0.64c0,0.09-0.14,0.19-0.22,0.27
	c-2.27,2.28-4.55,4.55-6.82,6.82C27.35,23.96,27.29,24.01,27.27,24.03z"/>
<path d="M24.53,27.99c0.39,0,0.71,0,1.05,0c0.01,0.1,0.04,0.2,0.04,0.3c0,1.8,0,3.59,0,5.39c0,0.06,0,0.12,0,0.18
	c-0.05,0.33-0.25,0.53-0.57,0.52c-0.3-0.01-0.5-0.2-0.51-0.52c-0.01-0.42-0.01-0.84-0.01-1.27c0-1.36,0-2.72,0-4.07
	C24.53,28.35,24.53,28.19,24.53,27.99z"/>
<path d="M25.07,26.92c-0.82,0-1.45-0.64-1.45-1.46c0-0.79,0.65-1.44,1.43-1.45c0.79-0.01,1.48,0.66,1.48,1.45
	C26.53,26.26,25.87,26.92,25.07,26.92z"/>
<path d="M24.53,9.93c0-0.24-0.01-0.48,0-0.72c0.01-0.33,0.21-0.51,0.51-0.52c0.31-0.01,0.54,0.18,0.56,0.48
	c0.03,0.53,0.04,1.06,0,1.58c-0.02,0.3-0.27,0.52-0.57,0.43c-0.2-0.06-0.4-0.29-0.48-0.48C24.47,10.47,24.53,10.19,24.53,9.93
	C24.53,9.93,24.53,9.93,24.53,9.93z"/>
<path d="M40.58,26.01c-0.24,0-0.48,0.01-0.73,0c-0.31-0.02-0.51-0.19-0.52-0.51c-0.02-0.33,0.17-0.54,0.47-0.56
	c0.53-0.04,1.06-0.04,1.58,0c0.3,0.02,0.53,0.28,0.45,0.57c-0.05,0.2-0.29,0.41-0.49,0.48C41.12,26.07,40.84,26,40.58,26.01
	C40.58,26.01,40.58,26.01,40.58,26.01z"/>
<path d="M9.51,26.01c-0.24,0-0.48,0.02-0.72,0c-0.32-0.03-0.49-0.21-0.5-0.53c0-0.33,0.19-0.53,0.49-0.55
	c0.51-0.03,1.03-0.06,1.54,0.02c0.19,0.03,0.43,0.33,0.47,0.55c0.05,0.28-0.18,0.5-0.51,0.51C10.03,26.02,9.77,26.01,9.51,26.01
	C9.51,26.01,9.51,26.01,9.51,26.01z"/>
<path d="M25.62,41.03c0,0.24,0.02,0.49-0.01,0.72c-0.04,0.31-0.22,0.49-0.55,0.49c-0.32,0-0.52-0.18-0.53-0.5
	c-0.02-0.5-0.01-1,0-1.49c0.01-0.33,0.22-0.51,0.51-0.52c0.32-0.01,0.54,0.19,0.57,0.53C25.64,40.51,25.62,40.77,25.62,41.03
	C25.62,41.03,25.62,41.03,25.62,41.03z"/>
</svg>
