<?xml version="1.0" encoding="utf-8"?>
<!-- Generator: Adobe Illustrator 24.3.0, SVG Export Plug-In . SVG Version: 6.00 Build 0)  -->
<svg version="1.1" id="Layer_1" xmlns="http://www.w3.org/2000/svg" xmlns:xlink="http://www.w3.org/1999/xlink" x="0px" y="0px"
	 viewBox="0 0 50 50" style="enable-background:new 0 0 50 50;" xml:space="preserve">
<path d="M16.12,47.22c-0.33-0.13-0.69-0.23-1-0.4c-1.18-0.66-1.74-1.7-1.76-3.04c-0.01-0.38,0-0.75,0-1.19
	c-0.7,0.4-1.39,0.61-2.16,0.56c-1.69-0.12-3.07-1.5-3.09-3.2c-0.03-2.59-0.02-5.17,0-7.76c0-0.37,0.1-0.75,0.25-1.09
	c0.13-0.31,0.05-0.46-0.17-0.66c-2.01-1.79-3.47-3.96-4.4-6.49C0.88,15.98,4.94,6.88,12.81,3.75c9.03-3.6,18.97,1.4,21.46,10.8
	c1.8,6.77-1.18,14.06-7.23,17.66c-0.12,0.07-0.23,0.15-0.45,0.28c3.05,0,5.99,0,8.98,0c0-0.24,0-0.47,0-0.69
	c0.02-1.04-0.05-2.1,0.07-3.13c0.2-1.72,1.75-2.96,3.39-2.86c1.79,0.11,3.15,1.49,3.22,3.28c0.01,0.14,0.01,0.28,0.02,0.34
	c0.58-0.15,1.14-0.37,1.72-0.42c1.6-0.11,2.95,0.89,3.4,2.42c0.03,0.09,0.07,0.18,0.11,0.27c0,2.91,0,5.81,0,8.72
	c-0.04,0.09-0.08,0.18-0.1,0.27c-0.43,1.48-1.73,2.51-3.25,2.44c-0.63-0.03-1.25-0.27-1.89-0.41c0,0.36,0.02,0.79,0,1.22
	c-0.07,1.36-0.7,2.36-1.93,2.97c-0.27,0.13-0.56,0.21-0.85,0.31c-0.38,0-0.76,0-1.13,0c-0.05-0.03-0.1-0.06-0.15-0.08
	c-1.47-0.39-2.36-1.33-2.57-2.84c-0.09-0.63-0.05-1.27-0.05-1.91c-0.01-0.62,0-1.24,0-1.87c-5.2,0-10.35,0-15.54,0
	c0,1.15,0.02,2.28,0,3.41c-0.02,1.12-0.48,2.03-1.41,2.66c-0.41,0.28-0.91,0.42-1.37,0.63C16.87,47.22,16.49,47.22,16.12,47.22z
	 M25.06,27.87c1.24-0.85,2.29-1.86,3.1-3.13c-0.26-0.15-0.47-0.26-0.66-0.39c-0.32-0.22-0.4-0.6-0.22-0.92
	c0.19-0.34,0.56-0.46,0.94-0.28c0.22,0.1,0.43,0.23,0.67,0.36c0.66-1.36,1.04-2.75,1.12-4.25c-0.57-0.1-1.39,0.18-1.39-0.73
	c0-0.91,0.82-0.63,1.39-0.73c-0.09-1.51-0.46-2.91-1.14-4.24c-0.98,0.51-1.32,0.55-1.54,0.13c-0.47-0.87,0.37-1.02,0.83-1.38
	c-0.84-1.24-1.86-2.27-3.09-3.09c-0.69,0.94-0.92,1.09-1.34,0.85c-0.43-0.24-0.42-0.52,0.06-1.59c-1.33-0.66-2.73-1.05-4.26-1.12
	c0,0.27,0.01,0.49,0,0.7c-0.02,0.42-0.29,0.7-0.68,0.7c-0.4,0.01-0.69-0.28-0.71-0.71c-0.01-0.23,0-0.45,0-0.71
	c-1.54,0.11-2.94,0.47-4.26,1.14c0.49,1.03,0.51,1.33,0.09,1.56c-0.14,0.08-0.39,0.16-0.49,0.09c-0.33-0.25-0.62-0.56-0.96-0.87
	c-1.16,0.77-2.18,1.8-3.02,3.04c0.44,0.36,1.28,0.53,0.85,1.31c-0.45,0.81-1.04,0.15-1.58-0.05c-0.66,1.35-1.05,2.74-1.12,4.24
	c0.57,0.08,1.36-0.19,1.38,0.69c0.02,0.94-0.81,0.67-1.39,0.75c0.1,1.51,0.47,2.91,1.14,4.25c0.54-0.23,1.11-0.86,1.56-0.08
	c0.47,0.8-0.41,0.98-0.84,1.34c0.84,1.24,1.86,2.27,3.09,3.09c0.76-1.07,0.81-1.09,1.5-0.81c1.21-1.31,2.58-1.45,3.66-1.06
	c1.7,0.62,2.37,1.94,2.3,3.7c1.33-0.15,2.57-0.49,3.74-1.09c-0.51-1.02-0.53-1.31-0.11-1.58C24.1,26.74,24.39,26.91,25.06,27.87z
	 M11.61,28.93C6.1,24.97,4.91,18.06,7.52,12.9c2.69-5.31,8.51-8.01,14.29-6.65c5.49,1.29,9.56,6.38,9.63,12.04
	c0.04,2.94-0.82,5.61-2.63,7.94c-2.22,2.85-5.17,4.45-8.75,4.87c0,0.48,0,0.92,0,1.41c0.53,0,1.04,0.02,1.54,0
	c0.56-0.02,1.16,0.02,1.68-0.14c7-2.22,11.25-9.47,9.83-16.66C31.36,6.94,22.1,1.75,13.76,4.89C4.93,8.2,1.51,18.8,6.73,26.64
	c0.75,1.13,1.65,2.13,2.66,2.97c0.39-0.18,0.72-0.37,1.07-0.48C10.82,29.01,11.2,28.99,11.61,28.93z M35.56,33.98
	c-5.2,0-10.34,0-15.49,0c0,1.72,0,3.41,0,5.09c5.18,0,10.33,0,15.49,0C35.56,37.36,35.56,35.68,35.56,33.98z M14.79,36.51
	c0,2.48-0.01,4.97,0,7.45c0.01,1,0.77,1.77,1.78,1.86c0.94,0.08,1.82-0.61,2-1.57c0.03-0.16,0.05-0.32,0.05-0.47
	c0-4.84,0-9.67,0-14.51c0-0.56-0.15-1.07-0.55-1.47c-0.58-0.58-1.28-0.72-2.04-0.46c-0.74,0.25-1.24,0.93-1.24,1.72
	C14.79,31.54,14.79,34.03,14.79,36.51z M37,36.52c0,1.93,0,3.86,0,5.79c0,0.61-0.02,1.22,0.03,1.83c0.09,1.09,1.18,1.87,2.24,1.64
	c1.03-0.22,1.57-0.96,1.57-2.14c0-4.75,0-9.5,0-14.25c0-0.22-0.01-0.44-0.05-0.65c-0.13-0.79-0.85-1.44-1.65-1.51
	c-1.24-0.11-2.13,0.71-2.14,2.01C37,31.67,37,34.09,37,36.52z M42.26,36.01c0,1.25,0,2.5,0,3.75c0,1.11,0.79,1.95,1.83,1.98
	c1.11,0.03,2-0.78,2.01-1.9c0.02-2.51,0.02-5.02,0-7.53c-0.01-1.12-0.89-1.94-2-1.91c-1.05,0.02-1.84,0.86-1.84,1.97
	C42.26,33.57,42.26,34.79,42.26,36.01z M13.35,36.08C13.35,36.08,13.35,36.08,13.35,36.08c0.01-1.23,0-2.47,0.01-3.7
	c0-0.51-0.14-0.97-0.48-1.36c-0.53-0.59-1.36-0.8-2.1-0.53c-0.79,0.29-1.25,1-1.26,1.95c-0.01,2.41-0.01,4.82,0,7.23
	c0,0.26,0.04,0.52,0.12,0.77c0.29,0.89,1.19,1.42,2.12,1.28c0.88-0.14,1.57-0.89,1.59-1.81C13.37,38.64,13.35,37.36,13.35,36.08z"/>
<path d="M18.12,13.47c0-0.78,0-1.57,0-2.35c0-0.56,0.24-0.86,0.68-0.87c0.46-0.01,0.71,0.3,0.71,0.89c0,1.57,0.01,3.14,0,4.7
	c0,0.28,0.05,0.45,0.35,0.6c0.92,0.46,1.36,1.24,1.3,2.26c-0.02,0.28,0.06,0.41,0.3,0.54c0.87,0.48,1.74,0.99,2.6,1.5
	c0.29,0.17,0.49,0.44,0.36,0.75c-0.1,0.23-0.34,0.45-0.58,0.56c-0.15,0.07-0.42-0.06-0.6-0.16c-0.86-0.48-1.71-0.97-2.56-1.48
	c-0.19-0.11-0.31-0.11-0.49,0.02c-1.19,0.81-2.68,0.49-3.39-0.72c-0.7-1.2-0.25-2.69,1.04-3.31c0.25-0.12,0.29-0.26,0.29-0.5
	C18.12,15.1,18.12,14.28,18.12,13.47z M19.76,18.53c0-0.5-0.45-0.94-0.95-0.94c-0.5,0-0.94,0.45-0.94,0.95
	c0,0.5,0.45,0.94,0.95,0.94C19.33,19.47,19.77,19.03,19.76,18.53z"/>
</svg>
