<?xml version="1.0" encoding="utf-8"?>
<!-- Generator: Adobe Illustrator 24.3.0, SVG Export Plug-In . SVG Version: 6.00 Build 0)  -->
<svg version="1.1" id="Layer_1" xmlns="http://www.w3.org/2000/svg" xmlns:xlink="http://www.w3.org/1999/xlink" x="0px" y="0px"
	 viewBox="0 0 50 50" style="enable-background:new 0 0 50 50;" xml:space="preserve">
<g>
	<g>
		<path d="M12.11,20.39c0.1-0.5,0.17-1.01,0.32-1.49c0.15-0.49,0.36-0.97,0.58-1.44c0.17-0.38,0.45-0.49,0.74-0.34
			c0.29,0.15,0.34,0.43,0.16,0.8c-1.28,2.66-1.01,5.16,0.8,7.48c0.28,0.36,0.63,0.67,0.96,1c2.43,2.43,4.86,4.86,7.29,7.29
			c0.06,0.06,0.12,0.11,0.21,0.2c0.64-2.39,1.28-4.76,1.92-7.16c-0.36-0.1-0.7-0.2-1.04-0.29c-0.73-0.19-1.45-0.38-2.18-0.58
			c-0.51-0.13-0.62-0.33-0.48-0.85c0.81-3.03,1.62-6.07,2.44-9.1c0.05-0.2,0.02-0.31-0.16-0.42c-2.22-1.4-4.51-1.54-6.88-0.41
			c-0.05,0.02-0.09,0.05-0.13,0.07c-0.3,0.15-0.6,0.06-0.73-0.2c-0.13-0.26-0.03-0.53,0.26-0.69c0.87-0.48,1.8-0.78,2.78-0.89
			c2.09-0.23,3.98,0.29,5.66,1.57c0.37,0.28,0.41,0.39,0.29,0.84c-0.8,2.99-1.6,5.97-2.4,8.96c-0.02,0.07-0.03,0.14-0.05,0.23
			c0.63,0.17,1.25,0.34,1.87,0.51c0.47,0.13,0.94,0.25,1.41,0.37c0.43,0.12,0.55,0.33,0.43,0.77c-0.74,2.76-1.48,5.52-2.22,8.28
			c-0.14,0.53-0.56,0.65-0.95,0.26c-2.88-2.87-5.75-5.74-8.62-8.63c-1.27-1.27-2-2.81-2.2-4.59c-0.01-0.05-0.03-0.09-0.05-0.14
			C12.11,21.33,12.11,20.86,12.11,20.39z"/>
		<path d="M24.91,23.54c1.1,0.3,2.17,0.58,3.25,0.87c0.45,0.12,0.57,0.33,0.45,0.78c-0.31,1.16-0.62,2.33-0.93,3.49
			c-0.06,0.24-0.17,0.44-0.43,0.5c-0.37,0.08-0.68-0.27-0.58-0.66c0.26-0.99,0.53-1.99,0.79-2.98c0.02-0.08,0.03-0.16,0.05-0.25
			c-1.05-0.28-2.09-0.56-3.12-0.83c-0.06-0.02-0.13-0.03-0.19-0.05c-0.38-0.11-0.51-0.34-0.41-0.73c0.47-1.75,0.94-3.5,1.41-5.25
			c0.34-1.28,0.69-2.55,1.02-3.83c0.06-0.22,0.18-0.36,0.38-0.46c4.52-2.32,10.14,0.4,11.08,5.39c0.51,2.7-0.22,5.05-2.12,7.03
			c-0.06,0.07-0.15,0.11-0.21,0.15c0.89,1.63,0.39,3.14-0.45,4c-0.77,0.78-2.3,1.4-4.01,0.47c-0.04,0.06-0.09,0.14-0.15,0.21
			c-1.73,1.73-3.46,3.46-5.19,5.19c-0.15,0.15-0.31,0.28-0.55,0.23c-0.32-0.07-0.47-0.35-0.37-0.73c0.2-0.77,0.41-1.53,0.62-2.3
			c0.12-0.45,0.24-0.91,0.37-1.35c0.07-0.25,0.3-0.4,0.53-0.37c0.24,0.03,0.44,0.22,0.45,0.47c0,0.11-0.02,0.21-0.05,0.32
			c-0.14,0.55-0.29,1.09-0.42,1.59c1.31-1.31,2.64-2.64,3.99-3.99c-0.28-0.35-0.52-0.81-0.63-1.32c-0.23-1.12,0.05-2.1,0.82-2.92
			c0.61-0.65,1.26-1.27,1.9-1.91c0.28-0.28,0.55-0.28,0.83,0c0.55,0.55,1.1,1.1,1.7,1.7c0.33-0.41,0.68-0.78,0.96-1.2
			c2.69-3.97,0.39-9.47-4.32-10.37c-1.38-0.26-2.71-0.11-4,0.45c-0.14,0.06-0.22,0.14-0.26,0.3c-0.72,2.71-1.45,5.42-2.18,8.14
			C24.93,23.4,24.93,23.46,24.91,23.54z M32.64,25.3c-0.62,0.64-1.23,1.23-1.78,1.86c-0.41,0.47-0.49,1.08-0.39,1.69
			c0.14,0.86,0.86,1.58,1.7,1.75c0.89,0.18,1.78-0.18,2.28-0.92c0.51-0.76,0.55-1.76-0.02-2.47C33.9,26.54,33.26,25.95,32.64,25.3z"
			/>
		<path d="M26.14,30.62c0-0.28,0.23-0.51,0.51-0.5c0.27,0.01,0.49,0.23,0.49,0.5c0,0.27-0.23,0.52-0.5,0.52
			C26.36,31.14,26.13,30.91,26.14,30.62z"/>
	</g>
	<path d="M15.23,15.95c0,0.28-0.24,0.51-0.51,0.5c-0.26-0.01-0.49-0.24-0.49-0.5c0-0.27,0.23-0.51,0.51-0.51
		C15.01,15.43,15.23,15.66,15.23,15.95z"/>
</g>
<path d="M36.41,48.48c-0.37,0-0.73,0-1.1,0c-0.13-0.05-0.25-0.1-0.38-0.15c-1.2-0.39-1.94-1.21-2.23-2.44
	c-0.14-0.59-0.14-0.61-0.71-0.41c-2.57,0.9-5.21,1.19-7.91,1.09c-1.85-0.07-3.66-0.35-5.42-0.93c-0.4-0.13-0.57-0.04-0.66,0.38
	c-0.15,0.75-0.55,1.37-1.18,1.78c-0.42,0.28-0.92,0.45-1.38,0.67c-0.37,0-0.73,0-1.1,0c-0.08-0.03-0.17-0.07-0.25-0.1
	c-2.28-0.69-3.13-3.04-1.82-5.02c0.36-0.54,0.36-0.56-0.19-0.97c-0.09-0.06-0.17-0.12-0.26-0.19c-7.04-5.3-9.6-12.44-8.6-21.02
	c0.24-2.02,0.88-3.94,1.73-5.8c0.08-0.18,0.09-0.5-0.02-0.65c-0.63-0.85-0.92-1.82-1.02-2.85C3.58,8.3,5.41,4.96,8.61,3.25
	c2.46-1.31,5.1-1.78,7.86-1.63c1.32,0.08,2.58,0.36,3.77,1c0.31,0.17,0.77,0.17,1.15,0.11c2.29-0.37,4.58-0.37,6.88-0.07
	c0.53,0.07,1.05,0.08,1.54-0.23c0.28-0.18,0.61-0.29,0.93-0.38c2.65-0.76,5.29-0.61,7.89,0.2c3.87,1.2,6.51,3.59,7.08,7.79
	c0.19,1.43,0.06,2.84-0.66,4.13c-0.19,0.34-0.18,0.6-0.02,0.93c1.18,2.39,1.86,4.91,2.05,7.57c0.21,2.97-0.07,5.88-0.99,8.71
	c-1.44,4.43-4.07,8.01-7.82,10.77c-0.51,0.38-0.51,0.38-0.05,0.84c1.14,1.15,1.2,3.04,0.17,4.29
	C37.85,47.93,37.16,48.25,36.41,48.48z M25.06,43.87c10.65-0.01,19.33-8.7,19.33-19.34c0-10.64-8.7-19.33-19.34-19.32
	C14.37,5.23,5.7,13.92,5.72,24.59C5.74,35.2,14.46,43.89,25.06,43.87z"/>
<path d="M26.22,40.34c0,0.34,0.01,0.67,0,1.01c-0.03,0.71-0.53,1.21-1.18,1.2c-0.63-0.01-1.12-0.5-1.15-1.18
	c-0.02-0.69-0.02-1.37,0-2.06c0.02-0.7,0.55-1.23,1.18-1.22c0.61,0.01,1.11,0.52,1.15,1.2C26.24,39.63,26.22,39.99,26.22,40.34z"/>
<path d="M26.22,9.99c0,0.33,0.01,0.67,0,1c-0.03,0.7-0.53,1.22-1.16,1.22c-0.63,0-1.15-0.51-1.17-1.21c-0.02-0.68-0.02-1.37,0-2.05
	c0.02-0.69,0.56-1.22,1.18-1.21c0.61,0.01,1.11,0.53,1.15,1.19C26.24,9.29,26.22,9.64,26.22,9.99z"/>
<path d="M8.74,25.94c-0.35,0-0.7,0.01-1.05,0c-0.65-0.03-1.14-0.52-1.16-1.13c-0.02-0.61,0.43-1.15,1.09-1.18
	c0.76-0.04,1.53-0.04,2.29,0c0.66,0.04,1.1,0.58,1.07,1.2c-0.03,0.58-0.51,1.07-1.13,1.1C9.47,25.96,9.11,25.94,8.74,25.94z"/>
<path d="M40.08,25.94c-0.35,0-0.7,0.01-1.05,0c-0.66-0.03-1.15-0.51-1.17-1.12c-0.02-0.63,0.41-1.15,1.07-1.19
	c0.76-0.05,1.53-0.04,2.29,0c0.66,0.04,1.11,0.58,1.09,1.19c-0.02,0.6-0.52,1.09-1.17,1.12C40.78,25.96,40.43,25.94,40.08,25.94z"/>
</svg>
